<?xml version="1.0" encoding="utf-8"?>
<!-- Generator: Adobe Illustrator 16.0.4, SVG Export Plug-In . SVG Version: 6.00 Build 0)  -->
<!DOCTYPE svg PUBLIC "-//W3C//DTD SVG 1.1//EN" "http://www.w3.org/Graphics/SVG/1.1/DTD/svg11.dtd">
<svg version="1.1" id="PCHC_Logo" xmlns="http://www.w3.org/2000/svg" xmlns:xlink="http://www.w3.org/1999/xlink" x="0px" y="0px"
	 width="1023.855px" height="654.553px" viewBox="0 0 1023.855 654.553" enable-background="new 0 0 1023.855 654.553"
	 xml:space="preserve">
<g>
	<g id="Logo">
		
			<linearGradient id="Swoosh_1_" gradientUnits="userSpaceOnUse" x1="-52.0723" y1="335.8037" x2="-52.0723" y2="819.6011" gradientTransform="matrix(1 0 0 -1 564 816.5352)">
			<stop  offset="0" style="stop-color:#6D4C39"/>
			<stop  offset="1" style="stop-color:#8C7167"/>
		</linearGradient>
		<path id="Swoosh" fill="url(#Swoosh_1_)" d="M511.936,1.725C229.644,1.725,0,123.828,0,273.916
			c0,75.143,61.905,148.136,170.012,200.739c0.015-0.029,0.044-0.043,0.072-0.062C78.575,426.579,51.005,348.881,51.005,280.426
			c0-134.715,198.15-236.31,460.931-236.31c262.765,0,460.914,101.595,460.914,236.31c0,68.396-29.033,146.283-120.645,194.287
			c0.189,0.162,0.396,0.307,0.57,0.469c108.766-52.633,171.08-125.875,171.08-201.267C1023.857,123.827,794.213,1.725,511.936,1.725
			z"/>
		<g id="PCHC">
			
				<linearGradient id="SVGID_1_" gradientUnits="userSpaceOnUse" x1="-354.5171" y1="447.1719" x2="-354.5173" y2="640.1484" gradientTransform="matrix(1 0 0 -1 564 816.5352)">
				<stop  offset="0" style="stop-color:#212058"/>
				<stop  offset="0.0693" style="stop-color:#24235F"/>
				<stop  offset="0.2522" style="stop-color:#2A2B6F"/>
				<stop  offset="0.437" style="stop-color:#2D2F7B"/>
				<stop  offset="0.6229" style="stop-color:#2F3282"/>
				<stop  offset="0.8118" style="stop-color:#2F3384"/>
			</linearGradient>
			<path fill="url(#SVGID_1_)" d="M257.228,187.906c-4.308-3.749-10.21-6.605-17.695-8.568c-7.484-1.971-17.886-2.952-31.172-2.952
				c-6.753,0-13.623,0.234-20.654,0.703c-7.017,0.469-13.812,0.703-20.36,0.703c-4.688,0-8.893-0.146-12.643-0.425
				c-3.75-0.279-7.207-0.602-10.386-0.981c0.747,12.174,1.304,24.295,1.685,36.372c0.366,12.085,0.558,25.898,0.558,41.435V292.4
				c0,15.542-0.19,29.355-0.558,41.426c-0.381,12.068-0.938,23.92-1.685,35.536c3.179-0.381,6.636-0.569,10.386-0.569
				s7.954,0,12.643,0c4.688,0,8.892,0,12.642,0s7.207,0.188,10.4,0.569c-0.952-13.666-1.554-27.479-1.831-41.438
				c-0.278-13.945-0.425-27.936-0.425-41.997h14.325c10.488,0,20.127-1.113,28.932-3.356c8.804-2.249,16.436-5.757,22.896-10.54
				c6.46-4.774,11.47-10.993,15.03-18.677c3.545-7.677,5.332-16.854,5.332-27.524c0-8.431-1.406-15.638-4.219-21.636
				C267.628,198.204,263.22,192.771,257.228,187.906z M226.333,251.942c-2.622,5.435-5.99,9.603-10.106,12.503
				c-4.131,2.899-8.672,4.826-13.623,5.757c-4.966,0.938-9.785,1.406-14.474,1.406c0-13.11,0.045-26.17,0.146-39.186
				c0.088-13.016,0.234-26.266,0.425-39.749c0.732-0.184,1.582-0.277,2.521-0.277c0.938,0,1.875,0,2.812,0h6.46
				c3.926,0,7.72,0.658,11.367,1.97c3.662,1.305,6.841,3.414,9.551,6.313c2.726,2.907,4.878,6.797,6.46,11.66
				c1.598,4.87,2.402,10.854,2.402,17.975C230.275,239.309,228.956,246.515,226.333,251.942z"/>
			
				<linearGradient id="SVGID_2_" gradientUnits="userSpaceOnUse" x1="-182.4795" y1="443.5273" x2="-182.4795" y2="643.8047" gradientTransform="matrix(1 0 0 -1 564 816.5352)">
				<stop  offset="0" style="stop-color:#212058"/>
				<stop  offset="0.0693" style="stop-color:#24235F"/>
				<stop  offset="0.2522" style="stop-color:#2A2B6F"/>
				<stop  offset="0.437" style="stop-color:#2D2F7B"/>
				<stop  offset="0.6229" style="stop-color:#2F3282"/>
				<stop  offset="0.8118" style="stop-color:#2F3384"/>
			</linearGradient>
			<path fill="url(#SVGID_2_)" d="M363.972,210.655c6.182-6.928,13.052-12.084,20.64-15.446c7.588-3.376,15.117-5.062,22.617-5.062
				c10.107,0,18.911,1.927,26.396,5.757c7.483,3.846,14.795,10.254,21.914,19.241h3.926c0.381-4.863,1.084-9.684,2.107-14.466
				c1.024-4.775,2.49-9.5,4.353-14.181c-3.18-1.875-7.062-3.654-11.646-5.339c-4.601-1.685-9.419-3.135-14.474-4.358
				c-5.054-1.208-10.298-2.196-15.731-2.942c-5.436-0.748-10.574-1.129-15.438-1.129c-14.795,0-28.945,1.971-42.422,5.902
				c-13.479,3.927-25.328,10.159-35.523,18.678c-10.21,8.525-18.354,19.569-24.448,33.149c-6.078,13.579-9.126,30.104-9.126,49.569
				c0,13.305,2.346,25.668,7.031,37.08c4.673,11.426,11.455,21.299,20.361,29.635c8.892,8.334,19.746,14.795,32.578,19.379
				c12.816,4.6,27.393,6.887,43.683,6.887c23.026,0,42.129-3.838,57.29-11.514c0.382-3.941,1.128-7.91,2.257-11.939
				c1.128-4.025,2.434-8.012,3.926-11.938l-3.646-2.239c-3.003,3.178-6.504,6.078-10.533,8.701
				c-4.028,2.62-8.275,4.816-12.771,6.605c-4.496,1.771-9.081,3.179-13.771,4.202c-4.688,1.039-9.271,1.555-13.77,1.555
				c-8.059,0-16.057-1.494-24.011-4.498c-7.954-3.002-15.071-7.731-21.343-14.182c-6.284-6.475-11.382-14.795-15.322-25.004
				c-3.926-10.21-5.889-22.515-5.889-36.939c0-14.979,1.919-27.854,5.757-38.62C352.78,226.431,357.791,217.583,363.972,210.655z"/>
			
				<linearGradient id="SVGID_3_" gradientUnits="userSpaceOnUse" x1="26.9165" y1="447.1738" x2="26.9165" y2="640.1494" gradientTransform="matrix(1 0 0 -1 564 816.5352)">
				<stop  offset="0" style="stop-color:#212058"/>
				<stop  offset="0.0693" style="stop-color:#24235F"/>
				<stop  offset="0.2522" style="stop-color:#2A2B6F"/>
				<stop  offset="0.437" style="stop-color:#2D2F7B"/>
				<stop  offset="0.6229" style="stop-color:#2F3282"/>
				<stop  offset="0.8118" style="stop-color:#2F3384"/>
			</linearGradient>
			<path fill="url(#SVGID_3_)" d="M675.75,212.757c0.381-12.077,0.938-24.198,1.686-36.372c-3.18,0.382-6.649,0.703-10.387,0.981
				c-3.75,0.278-7.969,0.425-12.643,0.425c-4.688,0-8.892-0.146-12.642-0.425c-3.75-0.279-7.207-0.602-10.387-0.981
				c0.748,12.174,1.305,24.199,1.67,36.095c0.381,11.895,0.568,25.605,0.568,41.154c-5.435,0.185-11.339,0.33-17.693,0.417
				c-6.371,0.097-14.604,0.141-24.729,0.141c-10.104,0-18.569-0.044-25.416-0.141c-6.84-0.087-12.686-0.232-17.547-0.417
				c0-15.549,0.131-29.261,0.408-41.154c0.293-11.896,0.896-23.921,1.832-36.095c-3.18,0.382-6.652,0.703-10.387,0.981
				c-3.75,0.278-7.969,0.425-12.643,0.425c-4.688,0-8.904-0.146-12.642-0.425c-3.75-0.278-7.209-0.602-10.402-0.981
				c0.748,12.174,1.318,24.295,1.699,36.372c0.367,12.085,0.558,25.898,0.558,41.435v38.207c0,15.542-0.188,29.355-0.558,41.426
				c-0.381,12.068-0.951,23.92-1.699,35.536c3.193-0.381,6.65-0.569,10.402-0.569c3.732,0,7.953,0,12.642,0
				c4.674,0,8.893,0,12.643,0c3.734,0,7.207,0.188,10.387,0.569c-0.748-11.614-1.305-23.468-1.686-35.536
				c-0.383-12.07-0.558-25.885-0.558-41.426v-16.016c7.104-0.374,14.226-0.651,21.343-0.843c7.119-0.183,14.225-0.285,21.344-0.285
				s14.236,0.146,21.356,0.425c7.105,0.278,14.226,0.521,21.345,0.703v16.016c0,15.542-0.189,29.355-0.57,41.426
				c-0.365,12.068-0.924,23.92-1.67,35.536c3.178-0.381,6.635-0.569,10.385-0.569s7.953,0,12.643,0c4.675,0,8.896,0,12.646,0
				c3.732,0,7.205,0.188,10.385,0.569c-0.745-11.614-1.303-23.468-1.684-35.536c-0.367-12.07-0.562-25.885-0.562-41.426v-38.207
				C675.194,238.656,675.383,224.842,675.75,212.757z"/>
			
				<linearGradient id="SVGID_4_" gradientUnits="userSpaceOnUse" x1="237.4546" y1="443.5273" x2="237.4546" y2="643.8057" gradientTransform="matrix(1 0 0 -1 564 816.5352)">
				<stop  offset="0" style="stop-color:#212058"/>
				<stop  offset="0.0693" style="stop-color:#24235F"/>
				<stop  offset="0.2522" style="stop-color:#2A2B6F"/>
				<stop  offset="0.437" style="stop-color:#2D2F7B"/>
				<stop  offset="0.6229" style="stop-color:#2F3282"/>
				<stop  offset="0.8118" style="stop-color:#2F3384"/>
			</linearGradient>
			<path fill="url(#SVGID_4_)" d="M869.989,344.077c-4.027,2.621-8.291,4.817-12.771,6.606c-4.498,1.771-9.1,3.179-13.771,4.201
				c-4.688,1.041-9.271,1.556-13.771,1.556c-8.043,0-16.055-1.494-24.008-4.498c-7.973-3.002-15.074-7.732-21.358-14.181
				c-6.271-6.475-11.367-14.795-15.308-25.006c-3.926-10.209-5.891-22.514-5.891-36.938c0-14.979,1.918-27.854,5.758-38.62
				c3.838-10.769,8.848-19.615,15.028-26.544c6.183-6.928,13.052-12.084,20.64-15.446c7.59-3.376,15.119-5.062,22.619-5.062
				c10.106,0,18.909,1.927,26.396,5.757c7.482,3.846,14.795,10.254,21.914,19.241h3.926c0.381-4.863,1.084-9.684,2.109-14.466
				c1.021-4.775,2.475-9.5,4.363-14.181c-3.193-1.875-7.074-3.654-11.658-5.339c-4.604-1.686-9.42-3.135-14.477-4.358
				c-5.054-1.208-10.298-2.196-15.729-2.942c-5.438-0.748-10.576-1.129-15.44-1.129c-14.796,0-28.931,1.971-42.423,5.902
				c-13.477,3.927-25.327,10.159-35.521,18.678c-10.209,8.525-18.369,19.569-24.447,33.149c-6.08,13.579-9.127,30.104-9.127,49.569
				c0,13.305,2.344,25.668,7.018,37.079c4.689,11.427,11.47,21.3,20.361,29.637c8.906,8.334,19.76,14.793,32.592,19.379
				c12.818,4.6,27.396,6.887,43.668,6.887c23.043,0,42.146-3.84,57.318-11.516c0.367-3.941,1.115-7.91,2.242-11.938
				c1.129-4.026,2.432-8.014,3.926-11.938l-3.646-2.24C877.518,338.555,874.016,341.456,869.989,344.077z"/>
		</g>
	</g>
	<g>
		<path fill="#BE1E2D" d="M149.945,524.698c-0.172-4.013-0.3-7.554-0.384-10.623c2.388,0.428,4.308,0.639,5.76,0.639
			c1.45,0,3.37-0.211,5.76-0.639c9.3,10.324,18.496,20.479,27.584,30.463c9.088,9.981,18.41,20.141,27.968,30.465v-11.137V551.45
			c0-4.183-0.021-8.297-0.063-12.354c-0.044-4.051-0.086-7.785-0.128-11.198c-0.044-3.412-0.128-6.355-0.256-8.832
			c-0.128-2.476-0.278-4.14-0.448-4.99c2.388,0.428,4.308,0.639,5.76,0.639c1.45,0,3.37-0.211,5.76-0.639
			c-0.428,7.766-0.768,14.781-1.023,21.055c-0.256,6.271-0.47,12.183-0.64,17.729c-0.173,5.549-0.278,11.028-0.32,16.446
			c-0.044,5.421-0.064,11.201-0.064,17.347v15.358c-1.708-0.172-3.456-0.256-5.248-0.256c-1.878,0-3.542,0.084-4.991,0.256
			c-17.58-20.479-36.225-41.088-55.937-61.823c-0.086,2.477-0.15,4.948-0.192,7.424c-0.044,2.477-0.063,4.992-0.063,7.553v14.848
			c0,5.121,0.02,9.474,0.063,13.058c0.042,3.584,0.106,6.612,0.192,9.09c0.084,2.475,0.17,4.502,0.256,6.078
			c0.084,1.58,0.17,2.84,0.256,3.774c-1.023-0.172-2.048-0.256-3.071-0.256c-1.024,0-2.007,0-2.944,0
			c-1.964,0-3.926,0.084-5.888,0.256c0.17-0.682,0.384-3.112,0.64-7.295c0.256-4.18,0.532-9.28,0.832-15.297
			c0.298-6.016,0.554-12.543,0.768-19.584c0.213-7.039,0.32-13.801,0.32-20.287C150.201,533.659,150.115,528.709,149.945,524.698z"
			/>
		<path fill="#BE1E2D" d="M244.088,557.977c1.748-4.266,4.074-7.825,6.977-10.688c2.899-2.857,6.25-4.992,10.048-6.4
			c3.796-1.408,7.7-2.108,11.712-2.108c9.983,0,17.706,2.813,23.168,8.444c5.46,5.634,8.192,13.271,8.192,22.912
			c0,5.207-0.769,9.9-2.305,14.08c-1.536,4.185-3.691,7.744-6.464,10.689c-2.773,2.94-6.08,5.141-9.92,6.592
			c-3.84,1.449-8.064,2.176-12.672,2.176c-3.84,0-7.616-0.512-11.328-1.537c-3.712-1.021-7.062-2.752-10.048-5.184
			c-2.988-2.435-5.397-5.609-7.231-9.535c-1.837-3.924-2.753-8.746-2.753-14.465C241.464,567.239,242.338,562.247,244.088,557.977z
			 M282.424,550.747c-1.878-4.139-4.992-6.209-9.344-6.209c-3.926,0-7.02,2.305-9.279,6.912c-2.263,4.606-3.393,11.817-3.393,21.633
			c0,3.584,0.212,6.912,0.64,9.982c0.427,3.071,1.131,5.739,2.112,8c0.98,2.264,2.26,4.03,3.84,5.312
			c1.578,1.279,3.562,1.92,5.952,1.92c8.192,0,12.288-10.027,12.288-30.08C285.241,560.709,284.3,554.885,282.424,550.747z"/>
		<path fill="#BE1E2D" d="M327.417,541.083c4.138-1.537,8.256-2.305,12.353-2.305c3.411,0,6.548,0.385,9.407,1.149
			c2.858,0.771,5.332,1.984,7.424,3.648c2.091,1.664,3.713,3.818,4.864,6.465c1.152,2.646,1.729,5.846,1.729,9.6
			c0,5.461-0.064,10.521-0.192,15.168c-0.128,4.652-0.192,9.279-0.192,13.89c0,2.049,0.148,3.646,0.448,4.801
			c0.298,1.15,0.746,2.027,1.345,2.623c0.596,0.598,1.386,0.979,2.367,1.15c0.98,0.174,2.112,0.258,3.393,0.258v3.069
			c-2.477,1.025-4.566,1.794-6.272,2.308c-1.708,0.512-3.542,0.768-5.504,0.768c-3.158,0-5.718-0.768-7.68-2.305
			c-1.964-1.535-3.456-3.754-4.48-6.656c-1.964,2.732-4.246,4.908-6.848,6.529c-2.604,1.619-5.868,2.432-9.792,2.432
			c-3.244,0-6.016-0.428-8.32-1.28c-2.304-0.853-4.204-2.066-5.695-3.646c-1.494-1.578-2.582-3.369-3.265-5.375
			c-0.684-2.004-1.023-4.033-1.023-6.08c0-2.815,0.447-5.248,1.344-7.297c0.896-2.047,2.176-3.795,3.84-5.248
			c1.664-1.449,3.648-2.666,5.952-3.648c2.304-0.979,4.906-1.811,7.808-2.495c3.584-0.853,6.42-1.601,8.513-2.238
			c2.09-0.641,3.647-1.279,4.672-1.92c1.023-0.642,1.684-1.346,1.983-2.111c0.298-0.77,0.448-1.707,0.448-2.815
			c0-3.07-1.088-5.695-3.264-7.873c-2.176-2.177-5.185-3.265-9.024-3.265c-1.452,0-2.944,0.193-4.479,0.576
			c-1.536,0.385-3.009,0.918-4.416,1.601c-1.408,0.686-2.688,1.432-3.84,2.239c-1.152,0.812-2.028,1.687-2.624,2.625h-0.896
			l-1.664-7.68C319.417,544.838,323.277,542.618,327.417,541.083z M346.233,574.17c0.042-1.92,0.063-3.604,0.063-5.057
			c-1.792,1.022-3.691,1.854-5.696,2.496c-2.006,0.641-3.84,1.45-5.504,2.432c-1.664,0.98-3.029,2.326-4.096,4.033
			c-1.068,1.707-1.6,4.182-1.6,7.424c0,3.158,0.659,5.566,1.983,7.229c1.322,1.664,3.092,2.496,5.312,2.496
			c2.815,0,5.098-1.063,6.848-3.198c1.748-2.134,2.624-5.289,2.624-9.474C346.168,578.885,346.189,576.09,346.233,574.17z"/>
		<path fill="#BE1E2D" d="M379.96,526.747c-0.172-6.996-0.428-14.08-0.768-21.248c1.107,0.172,2.516,0.32,4.224,0.447
			c1.706,0.129,3.498,0.19,5.376,0.19c1.876,0,3.668-0.062,5.376-0.19c1.706-0.127,3.114-0.275,4.224-0.447
			c-0.342,7.168-0.598,14.252-0.768,21.248c-0.172,6.998-0.256,14.678-0.256,23.039l0.256,0.256c2.218-3.584,4.928-6.354,8.128-8.32
			c3.2-1.961,6.848-2.94,10.944-2.94c6.398,0,11.328,1.854,14.784,5.565c3.455,3.711,5.184,9.707,5.184,17.984
			c0,4.352-0.086,8.188-0.256,11.52c-0.172,3.328-0.256,6.656-0.256,9.984c0,2.73,0.062,5.695,0.19,8.896s0.276,6.295,0.448,9.28
			c-1.11-0.172-2.518-0.256-4.224-0.256c-1.708,0-3.5,0-5.376,0c-1.879,0-3.671,0-5.377,0c-1.707,0-3.115,0.084-4.225,0.256
			c0.597-4.436,0.98-9.664,1.152-15.68c0.17-6.018,0.256-12.906,0.256-20.672c0-5.377-0.918-9.322-2.752-11.84
			c-1.836-2.519-4.416-3.777-7.744-3.777c-3.84,0-6.656,1.664-8.448,4.992s-2.688,7.936-2.688,13.824v5.118
			c0,1.195,0.02,2.927,0.062,5.187c0.042,2.262,0.106,4.734,0.192,7.424c0.084,2.688,0.191,5.42,0.32,8.191
			c0.128,2.772,0.274,5.184,0.446,7.229c-1.108-0.172-2.518-0.256-4.224-0.256c-1.708,0-3.5,0-5.376,0c-1.878,0-3.67,0-5.376,0
			c-1.708,0-3.116,0.084-4.224,0.256c0.34-6.912,0.596-13.865,0.768-20.863c0.17-6.993,0.256-14.676,0.256-23.038v-8.32
			C380.216,541.424,380.13,533.745,379.96,526.747z"/>
		<path fill="#BE1E2D" d="M453.561,530.842c1.449-5.633,2.771-9.896,3.969-12.801c1.192-2.9,2.388-4.777,3.584-5.631
			c1.192-0.854,2.644-1.281,4.352-1.281c1.024,0,2.068,0.172,3.136,0.512c1.066,0.345,2.05,0.832,2.944,1.476
			c0.896,0.639,1.62,1.471,2.176,2.496c0.556,1.021,0.832,2.176,0.832,3.455c0,0.512-0.062,1.065-0.19,1.661
			c-0.128,0.601-0.472,1.392-1.024,2.369c-0.556,0.982-1.324,2.283-2.304,3.904c-0.982,1.621-2.349,3.67-4.097,6.143
			c-1.75,2.479-3.885,5.484-6.399,9.025c-2.519,3.541-5.568,7.787-9.152,12.736l-3.198-1.281
			C450.317,544.071,452.109,536.473,453.561,530.842z"/>
		<path fill="#BE1E2D" d="M478.202,590.17c0.81,1.238,1.812,2.348,3.008,3.328c1.195,0.979,2.625,1.77,4.289,2.367
			c1.664,0.597,3.604,0.896,5.824,0.896c2.985,0,5.289-0.768,6.912-2.305c1.618-1.535,2.432-3.199,2.432-4.992
			c0-1.961-0.728-3.539-2.176-4.736c-1.453-1.19-3.265-2.278-5.441-3.264c-2.176-0.979-4.543-1.983-7.104-3.008
			c-2.562-1.024-4.93-2.324-7.104-3.904c-2.176-1.578-3.99-3.561-5.438-5.951c-1.452-2.389-2.178-5.461-2.178-9.217
			c0-3.584,0.66-6.676,1.984-9.278c1.322-2.603,3.05-4.734,5.185-6.398c2.133-1.664,4.545-2.9,7.231-3.713
			c2.688-0.812,5.354-1.215,8-1.215c3.584,0,6.762,0.512,9.537,1.533c2.771,1.024,5.608,2.52,8.512,4.479
			c-0.768,1.709-1.408,3.543-1.92,5.504c-0.512,1.965-0.895,3.885-1.152,5.76h-3.584c-0.256-1.021-0.684-2.151-1.278-3.391
			c-0.601-1.236-1.408-2.41-2.435-3.521c-1.022-1.107-2.262-2.025-3.711-2.753c-1.453-0.725-3.198-1.088-5.248-1.088
			c-2.561,0-4.717,0.687-6.465,2.047c-1.75,1.367-2.623,3.158-2.623,5.378c0,2.049,0.746,3.69,2.24,4.93
			c1.492,1.236,3.348,2.324,5.567,3.264c2.218,0.939,4.648,1.877,7.296,2.814c2.645,0.938,5.075,2.155,7.297,3.647
			c2.217,1.494,4.073,3.437,5.565,5.824s2.24,5.461,2.24,9.215c0,3.756-0.684,6.978-2.047,9.664
			c-1.367,2.688-3.201,4.908-5.506,6.656c-2.303,1.75-4.928,3.008-7.871,3.774c-2.945,0.771-6.039,1.152-9.281,1.152
			c-3.84,0-7.295-0.557-10.368-1.664c-3.07-1.106-5.504-2.26-7.296-3.457c1.024-4.096,1.664-8.19,1.92-12.287h3.2
			C476.73,587.631,477.389,588.934,478.202,590.17z"/>
		<path fill="#BE1E2D" d="M565.049,524.698c-0.172-4.013-0.301-7.554-0.385-10.623c2.389,0.428,4.309,0.639,5.76,0.639
			c1.449,0,3.371-0.211,5.76-0.639c9.302,10.324,18.496,20.479,27.584,30.463c9.091,9.981,18.41,20.141,27.97,30.465v-11.137V551.45
			c0-4.183-0.021-8.297-0.064-12.354c-0.043-4.051-0.086-7.785-0.127-11.198c-0.045-3.412-0.129-6.355-0.256-8.832
			c-0.129-2.476-0.279-4.14-0.449-4.99c2.392,0.428,4.312,0.639,5.761,0.639c1.45,0,3.37-0.211,5.762-0.639
			c-0.43,7.766-0.771,14.781-1.023,21.055c-0.256,6.273-0.471,12.183-0.641,17.729c-0.172,5.549-0.277,11.028-0.318,16.446
			c-0.045,5.421-0.063,11.201-0.063,17.347v15.358c-1.707-0.172-3.455-0.256-5.248-0.256c-1.88,0-3.541,0.084-4.992,0.256
			c-17.58-20.479-36.226-41.088-55.937-61.823c-0.086,2.477-0.149,4.948-0.19,7.424c-0.045,2.477-0.064,4.992-0.064,7.553v14.848
			c0,5.121,0.021,9.474,0.064,13.058c0.041,3.584,0.104,6.612,0.19,9.09c0.084,2.475,0.17,4.502,0.256,6.078
			c0.084,1.58,0.171,2.84,0.257,3.774c-1.023-0.172-2.05-0.256-3.072-0.256c-1.023,0-2.006,0-2.943,0
			c-1.965,0-3.926,0.084-5.889,0.256c0.17-0.682,0.385-3.112,0.641-7.295c0.257-4.18,0.531-9.28,0.832-15.297
			c0.298-6.016,0.556-12.543,0.771-19.584c0.211-7.039,0.318-13.801,0.318-20.287C565.305,533.659,565.219,528.709,565.049,524.698z
			"/>
		<path fill="#BE1E2D" d="M659.194,557.977c1.747-4.266,4.071-7.825,6.975-10.688c2.9-2.857,6.25-4.992,10.049-6.4
			c3.795-1.408,7.699-2.108,11.711-2.108c9.984,0,17.707,2.813,23.168,8.444c5.461,5.634,8.193,13.271,8.193,22.912
			c0,5.207-0.771,9.9-2.306,14.08c-1.534,4.185-3.69,7.744-6.465,10.689c-2.772,2.94-6.078,5.141-9.92,6.592
			c-3.84,1.449-8.062,2.176-12.672,2.176c-3.84,0-7.615-0.512-11.328-1.537c-3.711-1.021-7.062-2.752-10.047-5.184
			c-2.988-2.435-5.397-5.609-7.231-9.535c-1.837-3.924-2.753-8.746-2.753-14.465C656.569,567.239,657.444,562.247,659.194,557.977z
			 M697.53,550.747c-1.879-4.139-4.992-6.209-9.347-6.209c-3.926,0-7.02,2.305-9.278,6.912c-2.263,4.606-3.394,11.817-3.394,21.633
			c0,3.584,0.213,6.912,0.642,9.982c0.426,3.071,1.131,5.739,2.11,8c0.98,2.264,2.263,4.03,3.84,5.312
			c1.578,1.279,3.562,1.92,5.953,1.92c8.191,0,12.287-10.027,12.287-30.08C700.344,560.709,699.405,554.885,697.53,550.747z"/>
		<path fill="#BE1E2D" d="M763.577,544.538c0,1.109,0.129,2.176,0.385,3.201l-11.266-0.258c-0.172,1.965-0.318,4.225-0.447,6.782
			c-0.127,2.562-0.213,5.164-0.256,7.812c-0.045,2.645-0.086,5.205-0.129,7.68c-0.043,2.476-0.062,4.566-0.062,6.271
			c0,4.438,0.105,8.021,0.32,10.752c0.211,2.729,0.574,4.819,1.088,6.271c0.512,1.451,1.234,2.433,2.176,2.943
			c0.939,0.512,2.134,0.768,3.584,0.768c1.619,0,2.816-0.104,3.584-0.317c0.771-0.214,1.535-0.531,2.306-0.961v5.247
			c-1.707,0.771-3.842,1.449-6.398,2.05c-2.561,0.596-5.078,0.896-7.553,0.896c-10.838,0-16.256-6.483-16.256-19.457
			c0-2.473,0.041-5.268,0.127-8.383c0.084-3.115,0.19-6.314,0.317-9.6c0.132-3.285,0.234-6.529,0.32-9.73
			c0.084-3.199,0.129-6.164,0.129-8.895l-8.961,0.127c0.256-1.023,0.385-2.092,0.385-3.199c0-1.025-0.129-2.176-0.385-3.457
			l8.961,0.385c0-2.645-0.045-5.121-0.129-7.424c-0.086-2.305-0.213-5.076-0.383-8.32c2.983-1.192,5.93-2.452,8.83-3.774
			c2.899-1.322,5.803-2.707,8.705-4.16l1.278,0.896c-0.172,1.365-0.319,2.966-0.446,4.8c-0.13,1.838-0.257,3.758-0.386,5.762
			c-0.127,2.006-0.213,4.055-0.256,6.146c-0.043,2.092-0.063,4.075-0.063,5.95l11.266-0.256
			C763.706,542.362,763.577,543.514,763.577,544.538z"/>
		<path fill="#BE1E2D" d="M790.329,581.018c0.682,2.988,1.727,5.568,3.135,7.744c1.408,2.177,3.201,3.883,5.377,5.119
			c2.177,1.238,4.713,1.857,7.615,1.857c5.889,0,11.137-1.92,15.744-5.763l1.535,1.152l-2.814,7.168
			c-2.135,1.621-4.692,2.924-7.682,3.904c-2.986,0.979-6.91,1.471-11.775,1.471c-4.182,0-8.147-0.576-11.904-1.727
			c-3.756-1.152-7.061-3.054-9.92-5.697c-2.858-2.645-5.118-5.994-6.782-10.047s-2.496-8.896-2.496-14.529
			c0-5.545,0.746-10.367,2.239-14.463c1.492-4.096,3.562-7.508,6.207-10.24c2.646-2.729,5.781-4.776,9.408-6.145
			c3.627-1.363,7.572-2.047,11.84-2.047c8.449,0,14.912,2.475,19.394,7.424c4.48,4.949,6.721,11.947,6.721,20.992v2.688
			c0,0.771-0.043,1.279-0.127,1.535h-36.736C789.303,574.833,789.643,578.032,790.329,581.018z M806.646,550.297
			c-1.407-3.84-3.774-5.76-7.104-5.76c-1.879,0-3.457,0.641-4.736,1.92c-1.278,1.281-2.305,2.924-3.072,4.928
			c-0.768,2.006-1.344,4.271-1.729,6.785c-0.383,2.518-0.619,5.014-0.703,7.488h19.711
			C808.842,559.258,808.055,554.137,806.646,550.297z"/>
		<path fill="#BE1E2D" d="M840.952,590.17c0.811,1.238,1.812,2.348,3.008,3.328c1.193,0.979,2.625,1.77,4.289,2.367
			c1.664,0.597,3.604,0.896,5.822,0.896c2.985,0,5.291-0.768,6.912-2.305c1.62-1.535,2.434-3.199,2.434-4.992
			c0-1.961-0.727-3.539-2.178-4.736c-1.451-1.19-3.265-2.278-5.439-3.264c-2.176-0.979-4.543-1.983-7.104-3.008
			c-2.562-1.024-4.929-2.324-7.104-3.904c-2.176-1.578-3.99-3.561-5.438-5.951c-1.451-2.389-2.179-5.461-2.179-9.217
			c0-3.584,0.66-6.676,1.984-9.278c1.322-2.603,3.051-4.734,5.186-6.398c2.132-1.664,4.543-2.9,7.23-3.713
			c2.689-0.812,5.355-1.215,8-1.215c3.584,0,6.762,0.512,9.537,1.533c2.77,1.024,5.609,2.52,8.512,4.479
			c-0.77,1.709-1.408,3.543-1.92,5.504c-0.512,1.965-0.896,3.885-1.152,5.76h-3.584c-0.256-1.021-0.684-2.151-1.278-3.391
			c-0.601-1.236-1.408-2.41-2.435-3.521c-1.021-1.107-2.262-2.025-3.711-2.753c-1.451-0.725-3.199-1.088-5.248-1.088
			c-2.561,0-4.717,0.687-6.465,2.047c-1.75,1.367-2.623,3.158-2.623,5.378c0,2.049,0.746,3.69,2.24,4.93
			c1.49,1.236,3.348,2.324,5.566,3.264c2.218,0.94,4.649,1.877,7.297,2.814c2.645,0.938,5.076,2.155,7.297,3.647
			c2.217,1.494,4.072,3.437,5.565,5.824c1.492,2.389,2.24,5.461,2.24,9.215c0,3.756-0.684,6.978-2.049,9.664
			c-1.365,2.688-3.199,4.908-5.504,6.656c-2.306,1.75-4.929,3.008-7.871,3.774c-2.943,0.771-6.039,1.152-9.281,1.152
			c-3.84,0-7.295-0.557-10.367-1.664c-3.071-1.106-5.504-2.26-7.297-3.457c1.025-4.096,1.664-8.19,1.922-12.287h3.199
			C839.479,587.631,840.139,588.934,840.952,590.17z"/>
	</g>
</g>
<g>
	<path fill="#8D7167" d="M151.603,644.082h-1.861v-24.679h-8.581v-1.734h19.024v1.734h-8.582V644.082z"/>
	<path fill="#8D7167" d="M177.347,644.082v-12.736c0-1.976-0.416-3.412-1.246-4.31c-0.832-0.896-2.12-1.346-3.867-1.346
		c-2.348,0-4.067,0.594-5.157,1.779c-1.091,1.187-1.636,3.11-1.636,5.772v10.84h-1.788v-28.111h1.788v8.943l-0.09,2.511h0.127
		c0.734-1.181,1.662-2.035,2.781-2.565c1.121-0.53,2.512-0.795,4.174-0.795c4.456,0,6.685,2.391,6.685,7.172v12.846H177.347z"/>
	<path fill="#8D7167" d="M201.718,634.236c0,3.203-0.776,5.706-2.33,7.506c-1.554,1.801-3.697,2.701-6.432,2.701
		c-1.723,0-3.24-0.416-4.553-1.246c-1.312-0.832-2.318-2.023-3.018-3.578c-0.698-1.553-1.047-3.348-1.047-5.383
		c0-3.204,0.776-5.7,2.33-7.489c1.554-1.788,3.686-2.683,6.396-2.683c2.698,0,4.814,0.906,6.351,2.719
		C200.95,628.597,201.718,631.08,201.718,634.236z M186.218,634.236c0,2.697,0.593,4.803,1.779,6.313
		c1.186,1.512,2.863,2.268,5.031,2.268s3.845-0.756,5.031-2.268c1.187-1.511,1.779-3.616,1.779-6.313
		c0-2.711-0.599-4.812-1.797-6.306c-1.199-1.493-2.882-2.24-5.05-2.24s-3.839,0.744-5.014,2.231
		C186.805,629.409,186.218,631.514,186.218,634.236z"/>
	<path fill="#8D7167" d="M208.71,624.443v12.719c0,1.976,0.416,3.412,1.246,4.31c0.832,0.897,2.12,1.346,3.867,1.346
		c2.336,0,4.056-0.59,5.157-1.771c1.103-1.181,1.653-3.102,1.653-5.764v-10.84h1.771v19.639h-1.518l-0.325-2.71h-0.108
		c-1.276,2.048-3.547,3.071-6.812,3.071c-4.468,0-6.702-2.391-6.702-7.172v-12.828H208.71z"/>
	<path fill="#8D7167" d="M244.301,624.443v1.247l-4.065,0.253c1.084,1.349,1.627,2.83,1.627,4.444c0,1.891-0.63,3.424-1.889,4.598
		c-1.259,1.175-2.947,1.762-5.067,1.762c-0.892,0-1.518-0.036-1.879-0.108c-0.711,0.373-1.253,0.812-1.626,1.318
		s-0.561,1.042-0.561,1.608c0,0.626,0.238,1.084,0.714,1.373s1.274,0.434,2.394,0.434h3.434c2.131,0,3.764,0.431,4.896,1.292
		s1.698,2.135,1.698,3.82c0,2.072-0.84,3.671-2.521,4.797c-1.68,1.126-4.073,1.689-7.181,1.689c-2.47,0-4.382-0.476-5.736-1.428
		c-1.355-0.951-2.033-2.275-2.033-3.975c0-1.349,0.419-2.469,1.256-3.359c0.837-0.892,1.973-1.5,3.406-1.825
		c-0.591-0.253-1.063-0.611-1.419-1.075c-0.355-0.463-0.532-0.996-0.532-1.599c0-1.312,0.837-2.469,2.511-3.469
		c-1.145-0.47-2.035-1.207-2.674-2.213s-0.958-2.159-0.958-3.46c0-1.963,0.624-3.538,1.87-4.725c1.247-1.186,2.93-1.779,5.05-1.779
		c1.289,0,2.288,0.127,2.999,0.379H244.301z M228.402,647.406c0,2.698,2.005,4.047,6.017,4.047c5.154,0,7.732-1.645,7.732-4.932
		c0-1.181-0.404-2.036-1.211-2.566c-0.807-0.529-2.113-0.795-3.92-0.795h-3.217C230.203,643.16,228.402,644.576,228.402,647.406z
		 M229.901,630.568c0,1.518,0.461,2.695,1.383,3.532c0.921,0.837,2.152,1.255,3.694,1.255c1.638,0,2.894-0.415,3.767-1.246
		s1.311-2.035,1.311-3.613c0-1.674-0.449-2.93-1.347-3.767s-2.152-1.256-3.767-1.256c-1.565,0-2.798,0.449-3.694,1.346
		C230.351,627.717,229.901,628.967,229.901,630.568z"/>
	<path fill="#8D7167" d="M262.024,644.082v-12.736c0-1.976-0.416-3.412-1.246-4.31c-0.832-0.896-2.12-1.346-3.867-1.346
		c-2.348,0-4.067,0.594-5.157,1.779c-1.091,1.187-1.636,3.11-1.636,5.772v10.84h-1.788v-28.111h1.788v8.943l-0.09,2.511h0.127
		c0.734-1.181,1.662-2.035,2.781-2.565c1.121-0.53,2.512-0.795,4.174-0.795c4.456,0,6.685,2.391,6.685,7.172v12.846H262.024z"/>
	<path fill="#8D7167" d="M275.339,642.854c1.133,0,2.12-0.097,2.963-0.289v1.445c-0.867,0.289-1.866,0.434-2.998,0.434
		c-1.734,0-3.015-0.464-3.84-1.391c-0.825-0.928-1.237-2.385-1.237-4.373v-12.682h-2.909v-1.049l2.909-0.812l0.903-4.444h0.922
		v4.751h5.763v1.555h-5.763v12.43c0,1.505,0.265,2.619,0.795,3.342C273.376,642.492,274.207,642.854,275.339,642.854z"/>
	<path fill="#8D7167" d="M294.725,638.969c0,1.759-0.668,3.111-2.006,4.057c-1.336,0.945-3.233,1.418-5.69,1.418
		c-2.626,0-4.709-0.403-6.251-1.211V641.3c1.976,0.987,4.059,1.481,6.251,1.481c1.939,0,3.411-0.322,4.417-0.967
		c1.006-0.644,1.509-1.502,1.509-2.574c0-0.987-0.4-1.818-1.201-2.493c-0.802-0.675-2.117-1.337-3.948-1.987
		c-1.963-0.711-3.342-1.321-4.137-1.834c-0.795-0.512-1.395-1.09-1.798-1.734c-0.403-0.644-0.604-1.43-0.604-2.357
		c0-1.47,0.616-2.632,1.852-3.486c1.234-0.855,2.96-1.283,5.176-1.283c2.12,0,4.131,0.397,6.034,1.192l-0.669,1.626
		c-1.927-0.795-3.715-1.192-5.365-1.192c-1.602,0-2.873,0.265-3.812,0.795s-1.408,1.265-1.408,2.204
		c0,1.023,0.363,1.843,1.093,2.457c0.729,0.614,2.152,1.301,4.272,2.06c1.771,0.639,3.06,1.214,3.866,1.726s1.412,1.093,1.815,1.743
		S294.725,638.09,294.725,638.969z"/>
	<path fill="#8D7167" d="M325.636,634.236c0,3.203-0.776,5.706-2.33,7.506c-1.554,1.801-3.697,2.701-6.432,2.701
		c-1.723,0-3.24-0.416-4.553-1.246c-1.312-0.832-2.318-2.023-3.018-3.578c-0.698-1.553-1.047-3.348-1.047-5.383
		c0-3.204,0.776-5.7,2.33-7.489c1.554-1.788,3.686-2.683,6.396-2.683c2.698,0,4.814,0.906,6.351,2.719
		C324.868,628.597,325.636,631.08,325.636,634.236z M310.136,634.236c0,2.697,0.593,4.803,1.779,6.313
		c1.186,1.512,2.863,2.268,5.031,2.268s3.845-0.756,5.031-2.268c1.187-1.511,1.779-3.616,1.779-6.313
		c0-2.711-0.599-4.812-1.797-6.306c-1.199-1.493-2.882-2.24-5.05-2.24s-3.839,0.744-5.014,2.231
		C310.723,629.409,310.136,631.514,310.136,634.236z"/>
	<path fill="#8D7167" d="M344.769,644.082v-12.736c0-1.976-0.416-3.412-1.246-4.31c-0.832-0.896-2.12-1.346-3.867-1.346
		c-2.348,0-4.067,0.594-5.157,1.779c-1.091,1.187-1.636,3.11-1.636,5.772v10.84h-1.788v-19.639h1.518l0.343,2.692h0.109
		c1.276-2.048,3.547-3.071,6.811-3.071c4.456,0,6.685,2.391,6.685,7.172v12.846H344.769z"/>
	<path fill="#8D7167" d="M382.094,644.082h-1.86v-12.99h-15.43v12.99h-1.842v-26.413h1.842v11.726h15.43v-11.726h1.86V644.082z"/>
	<path fill="#8D7167" d="M397.052,644.443c-2.854,0-5.079-0.879-6.675-2.638c-1.597-1.759-2.394-4.222-2.394-7.39
		c0-3.131,0.771-5.639,2.312-7.524c1.541-1.885,3.619-2.827,6.232-2.827c2.312,0,4.137,0.807,5.475,2.421
		c1.336,1.614,2.005,3.806,2.005,6.576v1.445h-14.146c0.023,2.698,0.652,4.758,1.888,6.179c1.234,1.421,3.002,2.132,5.302,2.132
		c1.121,0,2.105-0.078,2.954-0.235c0.85-0.156,1.925-0.493,3.226-1.012v1.627c-1.108,0.481-2.133,0.81-3.072,0.984
		C399.22,644.355,398.185,644.443,397.052,644.443z M396.528,625.654c-1.891,0-3.408,0.623-4.553,1.87
		c-1.145,1.246-1.812,3.044-2.006,5.393h12.141c0-2.276-0.493-4.056-1.48-5.339C399.642,626.296,398.274,625.654,396.528,625.654z"
		/>
	<path fill="#8D7167" d="M421.352,644.082l-0.452-3.107h-0.145c-0.987,1.265-2.002,2.159-3.044,2.683
		c-1.042,0.524-2.273,0.786-3.694,0.786c-1.927,0-3.427-0.494-4.498-1.481c-1.072-0.987-1.608-2.354-1.608-4.101
		c0-1.916,0.798-3.403,2.394-4.463s3.905-1.62,6.929-1.68l3.739-0.109v-1.301c0-1.866-0.379-3.275-1.138-4.227
		c-0.759-0.952-1.981-1.428-3.667-1.428c-1.819,0-3.704,0.506-5.655,1.518l-0.669-1.554c2.156-1.012,4.288-1.518,6.396-1.518
		c2.155,0,3.767,0.56,4.832,1.681c1.066,1.119,1.6,2.866,1.6,5.238v13.062H421.352z M414.125,642.817
		c2.096,0,3.749-0.599,4.959-1.798c1.211-1.198,1.815-2.863,1.815-4.995v-1.933l-3.432,0.145c-2.759,0.132-4.725,0.562-5.899,1.291
		c-1.174,0.729-1.761,1.864-1.761,3.406c0,1.229,0.376,2.183,1.129,2.863C411.688,642.478,412.752,642.817,414.125,642.817z"/>
	<path fill="#8D7167" d="M430.818,644.082h-1.788v-28.111h1.788V644.082z"/>
	<path fill="#8D7167" d="M442.579,642.854c1.133,0,2.12-0.097,2.963-0.289v1.445c-0.867,0.289-1.866,0.434-2.998,0.434
		c-1.734,0-3.015-0.464-3.84-1.391c-0.825-0.928-1.237-2.385-1.237-4.373v-12.682h-2.909v-1.049l2.909-0.812l0.903-4.444h0.922
		v4.751h5.763v1.555h-5.763v12.43c0,1.505,0.265,2.619,0.795,3.342C440.616,642.492,441.447,642.854,442.579,642.854z"/>
	<path fill="#8D7167" d="M463.483,644.082v-12.736c0-1.976-0.416-3.412-1.246-4.31c-0.832-0.896-2.12-1.346-3.867-1.346
		c-2.348,0-4.067,0.594-5.157,1.779c-1.091,1.187-1.636,3.11-1.636,5.772v10.84h-1.788v-28.111h1.788v8.943l-0.09,2.511h0.127
		c0.734-1.181,1.662-2.035,2.781-2.565c1.121-0.53,2.512-0.795,4.174-0.795c4.456,0,6.685,2.391,6.685,7.172v12.846H463.483z"/>
	<path fill="#8D7167" d="M492.95,618.951c-3.312,0-5.92,1.061-7.823,3.18c-1.903,2.12-2.854,5.023-2.854,8.709
		c0,3.77,0.897,6.696,2.691,8.779c1.795,2.084,4.36,3.126,7.697,3.126c2.216,0,4.251-0.283,6.105-0.849v1.625
		c-1.746,0.615-3.926,0.922-6.539,0.922c-3.71,0-6.631-1.198-8.763-3.596c-2.132-2.396-3.198-5.744-3.198-10.045
		c0-2.686,0.509-5.052,1.527-7.1c1.018-2.048,2.48-3.628,4.39-4.742s4.128-1.672,6.657-1.672c2.578,0,4.885,0.482,6.92,1.445
		l-0.74,1.662C497.093,619.434,495.069,618.951,492.95,618.951z"/>
	<path fill="#8D7167" d="M516.129,644.082l-0.452-3.107h-0.145c-0.987,1.265-2.002,2.159-3.044,2.683
		c-1.042,0.524-2.273,0.786-3.694,0.786c-1.927,0-3.427-0.494-4.498-1.481c-1.072-0.987-1.608-2.354-1.608-4.101
		c0-1.916,0.798-3.403,2.394-4.463s3.905-1.62,6.929-1.68l3.739-0.109v-1.301c0-1.866-0.379-3.275-1.138-4.227
		c-0.759-0.952-1.981-1.428-3.667-1.428c-1.819,0-3.704,0.506-5.655,1.518l-0.669-1.554c2.156-1.012,4.288-1.518,6.396-1.518
		c2.155,0,3.767,0.56,4.832,1.681c1.066,1.119,1.6,2.866,1.6,5.238v13.062H516.129z M508.902,642.817
		c2.096,0,3.749-0.599,4.959-1.798c1.211-1.198,1.815-2.863,1.815-4.995v-1.933l-3.432,0.145c-2.759,0.132-4.725,0.562-5.899,1.291
		c-1.174,0.729-1.761,1.864-1.761,3.406c0,1.229,0.376,2.183,1.129,2.863C506.466,642.478,507.529,642.817,508.902,642.817z"/>
	<path fill="#8D7167" d="M531.539,624.064c0.831,0,1.723,0.084,2.674,0.253l-0.343,1.716c-0.819-0.204-1.669-0.307-2.548-0.307
		c-1.674,0-3.047,0.711-4.119,2.132s-1.608,3.216-1.608,5.384v10.84h-1.788v-19.639h1.518l0.181,3.541h0.127
		c0.807-1.445,1.668-2.459,2.583-3.044C529.13,624.356,530.238,624.064,531.539,624.064z"/>
	<path fill="#8D7167" d="M546.136,644.443c-2.854,0-5.079-0.879-6.675-2.638c-1.597-1.759-2.394-4.222-2.394-7.39
		c0-3.131,0.771-5.639,2.312-7.524c1.541-1.885,3.619-2.827,6.232-2.827c2.312,0,4.137,0.807,5.475,2.421
		c1.336,1.614,2.005,3.806,2.005,6.576v1.445h-14.146c0.023,2.698,0.652,4.758,1.888,6.179c1.234,1.421,3.002,2.132,5.302,2.132
		c1.121,0,2.105-0.078,2.954-0.235c0.85-0.156,1.925-0.493,3.226-1.012v1.627c-1.108,0.481-2.133,0.81-3.072,0.984
		C548.304,644.355,547.269,644.443,546.136,644.443z M545.612,625.654c-1.891,0-3.408,0.623-4.553,1.87
		c-1.145,1.246-1.812,3.044-2.006,5.393h12.141c0-2.276-0.493-4.056-1.48-5.339C548.726,626.296,547.358,625.654,545.612,625.654z"
		/>
	<path fill="#8D7167" d="M576.415,624.064c2.746,0,4.815,0.864,6.206,2.593c1.392,1.729,2.087,4.255,2.087,7.579
		c0,3.264-0.731,5.781-2.195,7.551c-1.463,1.771-3.52,2.656-6.17,2.656c-1.396,0-2.655-0.289-3.775-0.867s-2.006-1.397-2.656-2.457
		h-0.162l-0.506,2.963h-1.12v-28.111h1.788v7.064c0,1.06-0.023,2.035-0.072,2.926l-0.054,1.536h0.126
		c0.747-1.181,1.647-2.048,2.701-2.602S574.935,624.064,576.415,624.064z M576.38,625.69c-2.312,0-3.969,0.662-4.969,1.987
		s-1.5,3.511-1.5,6.559v0.307c0,2.963,0.521,5.089,1.563,6.377c1.041,1.289,2.665,1.934,4.868,1.934c2.145,0,3.758-0.75,4.842-2.249
		c1.084-1.5,1.627-3.635,1.627-6.405C582.812,628.527,580.667,625.69,576.38,625.69z"/>
	<path fill="#8D7167" d="M586.858,624.443h1.843l4.155,11.021c1.265,3.384,2.065,5.666,2.402,6.847h0.109
		c0.506-1.554,1.33-3.872,2.475-6.956l4.155-10.912h1.843l-8.799,22.818c-0.71,1.854-1.307,3.107-1.788,3.758
		s-1.045,1.139-1.689,1.463c-0.645,0.326-1.424,0.488-2.339,0.488c-0.688,0-1.452-0.127-2.295-0.379v-1.555
		c0.698,0.193,1.451,0.289,2.258,0.289c0.615,0,1.156-0.145,1.627-0.434c0.469-0.289,0.894-0.737,1.273-1.346
		c0.379-0.608,0.818-1.571,1.318-2.891c0.5-1.318,0.822-2.177,0.967-2.574L586.858,624.443z"/>
	<path fill="#8D7167" d="M636.396,644.082h-1.86l-15.646-23.45h-0.145c0.145,2.794,0.217,4.902,0.217,6.323v17.127h-1.77v-26.413
		h1.842l15.628,23.414h0.108c-0.108-2.168-0.162-4.228-0.162-6.179v-17.235h1.788V644.082z"/>
	<path fill="#8D7167" d="M659.665,634.236c0,3.203-0.776,5.706-2.33,7.506c-1.554,1.801-3.697,2.701-6.432,2.701
		c-1.723,0-3.24-0.416-4.553-1.246c-1.312-0.832-2.318-2.023-3.018-3.578c-0.698-1.553-1.047-3.348-1.047-5.383
		c0-3.204,0.776-5.7,2.33-7.489c1.554-1.788,3.686-2.683,6.396-2.683c2.698,0,4.814,0.906,6.351,2.719
		C658.897,628.597,659.665,631.08,659.665,634.236z M644.165,634.236c0,2.697,0.593,4.803,1.779,6.313
		c1.186,1.512,2.863,2.268,5.031,2.268s3.845-0.756,5.031-2.268c1.187-1.511,1.779-3.616,1.779-6.313
		c0-2.711-0.599-4.812-1.797-6.306c-1.199-1.493-2.882-2.24-5.05-2.24s-3.839,0.744-5.014,2.231
		C644.752,629.409,644.165,631.514,644.165,634.236z"/>
	<path fill="#8D7167" d="M677.027,644.082l-0.452-3.107h-0.145c-0.987,1.265-2.002,2.159-3.044,2.683
		c-1.042,0.524-2.273,0.786-3.694,0.786c-1.927,0-3.427-0.494-4.498-1.481c-1.072-0.987-1.608-2.354-1.608-4.101
		c0-1.916,0.798-3.403,2.394-4.463s3.905-1.62,6.929-1.68l3.739-0.109v-1.301c0-1.866-0.379-3.275-1.138-4.227
		c-0.759-0.952-1.981-1.428-3.667-1.428c-1.819,0-3.704,0.506-5.655,1.518l-0.669-1.554c2.156-1.012,4.288-1.518,6.396-1.518
		c2.155,0,3.767,0.56,4.832,1.681c1.066,1.119,1.6,2.866,1.6,5.238v13.062H677.027z M669.801,642.817
		c2.096,0,3.749-0.599,4.959-1.798c1.211-1.198,1.815-2.863,1.815-4.995v-1.933l-3.432,0.145c-2.759,0.132-4.725,0.562-5.899,1.291
		c-1.174,0.729-1.761,1.864-1.761,3.406c0,1.229,0.376,2.183,1.129,2.863C667.364,642.478,668.428,642.817,669.801,642.817z"/>
	<path fill="#8D7167" d="M698.4,644.082v-12.736c0-1.976-0.416-3.412-1.246-4.31c-0.832-0.896-2.12-1.346-3.867-1.346
		c-2.348,0-4.067,0.594-5.157,1.779c-1.091,1.187-1.636,3.11-1.636,5.772v10.84h-1.788v-28.111h1.788v8.943l-0.09,2.511h0.127
		c0.734-1.181,1.662-2.035,2.781-2.565c1.121-0.53,2.512-0.795,4.174-0.795c4.456,0,6.685,2.391,6.685,7.172v12.846H698.4z"/>
	<path fill="#8D7167" d="M735.798,644.082h-1.86l-15.646-23.45h-0.145c0.145,2.794,0.217,4.902,0.217,6.323v17.127h-1.77v-26.413
		h1.842l15.628,23.414h0.108c-0.108-2.168-0.162-4.228-0.162-6.179v-17.235h1.788V644.082z"/>
	<path fill="#8D7167" d="M750.757,644.443c-2.854,0-5.079-0.879-6.675-2.638c-1.597-1.759-2.394-4.222-2.394-7.39
		c0-3.131,0.771-5.639,2.312-7.524c1.541-1.885,3.619-2.827,6.232-2.827c2.312,0,4.137,0.807,5.475,2.421
		c1.336,1.614,2.005,3.806,2.005,6.576v1.445h-14.146c0.023,2.698,0.652,4.758,1.888,6.179c1.234,1.421,3.002,2.132,5.302,2.132
		c1.121,0,2.105-0.078,2.954-0.235c0.85-0.156,1.925-0.493,3.226-1.012v1.627c-1.108,0.481-2.133,0.81-3.072,0.984
		C752.925,644.355,751.89,644.443,750.757,644.443z M750.233,625.654c-1.891,0-3.408,0.623-4.553,1.87
		c-1.145,1.246-1.812,3.044-2.006,5.393h12.141c0-2.276-0.493-4.056-1.48-5.339C753.347,626.296,751.979,625.654,750.233,625.654z"
		/>
	<path fill="#8D7167" d="M775.31,638.969c0,1.759-0.668,3.111-2.006,4.057c-1.336,0.945-3.233,1.418-5.69,1.418
		c-2.626,0-4.709-0.403-6.251-1.211V641.3c1.976,0.987,4.059,1.481,6.251,1.481c1.939,0,3.411-0.322,4.417-0.967
		c1.006-0.644,1.509-1.502,1.509-2.574c0-0.987-0.4-1.818-1.201-2.493c-0.802-0.675-2.117-1.337-3.948-1.987
		c-1.963-0.711-3.342-1.321-4.137-1.834c-0.795-0.512-1.395-1.09-1.798-1.734c-0.403-0.644-0.604-1.43-0.604-2.357
		c0-1.47,0.616-2.632,1.852-3.486c1.234-0.855,2.96-1.283,5.176-1.283c2.12,0,4.131,0.397,6.034,1.192l-0.669,1.626
		c-1.927-0.795-3.715-1.192-5.365-1.192c-1.602,0-2.873,0.265-3.812,0.795s-1.408,1.265-1.408,2.204
		c0,1.023,0.363,1.843,1.093,2.457c0.729,0.614,2.152,1.301,4.272,2.06c1.771,0.639,3.06,1.214,3.866,1.726s1.412,1.093,1.815,1.743
		S775.31,638.09,775.31,638.969z"/>
	<path fill="#8D7167" d="M780.114,618.988c0-1.156,0.379-1.734,1.139-1.734c0.373,0,0.665,0.15,0.876,0.451
		c0.21,0.301,0.315,0.729,0.315,1.283c0,0.541-0.105,0.969-0.315,1.282c-0.211,0.313-0.503,0.47-0.876,0.47
		C780.493,620.74,780.114,620.156,780.114,618.988z M782.155,644.082h-1.788v-19.639h1.788V644.082z"/>
	<path fill="#8D7167" d="M802.427,644.082v-12.736c0-1.976-0.416-3.412-1.246-4.31c-0.832-0.896-2.12-1.346-3.867-1.346
		c-2.348,0-4.067,0.594-5.157,1.779c-1.091,1.187-1.636,3.11-1.636,5.772v10.84h-1.788v-19.639h1.518l0.343,2.692h0.109
		c1.276-2.048,3.547-3.071,6.811-3.071c4.456,0,6.685,2.391,6.685,7.172v12.846H802.427z"/>
	<path fill="#8D7167" d="M812.599,639.782l0.217,0.38c-0.904,3.191-1.951,6.088-3.145,8.689h-1.174
		c0.928-3.312,1.59-6.335,1.987-9.069H812.599z"/>
	<path fill="#8D7167" d="M840.186,644.082l-9.847-24.39h-0.145c0.097,1.493,0.145,3.023,0.145,4.589v19.801h-1.77v-26.413h2.854
		l9.359,23.233h0.107l9.359-23.233h2.781v26.413h-1.86v-20.018c0-1.397,0.072-2.843,0.217-4.336h-0.145l-9.882,24.354H840.186z"/>
	<path fill="#8D7167" d="M880.546,630.623c0,4.432-1.162,7.783-3.486,10.054s-5.739,3.405-10.244,3.405h-6.322v-26.413h7.136
		c4.216,0,7.422,1.103,9.62,3.306C879.447,623.18,880.546,626.395,880.546,630.623z M878.541,630.695
		c0-3.782-0.961-6.628-2.882-8.537c-1.921-1.908-4.742-2.863-8.464-2.863h-4.86v23.161h4.373
		C874.597,642.456,878.541,638.535,878.541,630.695z"/>
</g>
</svg>
