<?xml version="1.0" encoding="utf-8"?>
<!-- Generator: Adobe Illustrator 16.0.4, SVG Export Plug-In . SVG Version: 6.00 Build 0)  -->
<!DOCTYPE svg PUBLIC "-//W3C//DTD SVG 1.1//EN" "http://www.w3.org/Graphics/SVG/1.1/DTD/svg11.dtd">
<svg version="1.1" id="PCHC_Logo" xmlns="http://www.w3.org/2000/svg" xmlns:xlink="http://www.w3.org/1999/xlink" x="0px" y="0px"
	 width="1023.855px" height="654.553px" viewBox="0 0 1023.855 654.553" enable-background="new 0 0 1023.855 654.553"
	 xml:space="preserve">
<g>
	<g id="Logo">
		
			<linearGradient id="Swoosh_1_" gradientUnits="userSpaceOnUse" x1="-616.0718" y1="510.1963" x2="-616.0718" y2="26.399" gradientTransform="matrix(1 0 0 1 1128 -29.4648)">
			<stop  offset="0" style="stop-color:#6D4C39"/>
			<stop  offset="1" style="stop-color:#8C7167"/>
		</linearGradient>
		<path id="Swoosh" fill="url(#Swoosh_1_)" d="M511.936,1.725C229.644,1.725,0,123.828,0,273.916
			c0,75.143,61.905,148.136,170.012,200.739c0.015-0.029,0.044-0.043,0.072-0.062C78.575,426.579,51.005,348.881,51.005,280.426
			c0-134.715,198.15-236.31,460.931-236.31c262.766,0,460.914,101.595,460.914,236.31c0,68.396-29.033,146.283-120.645,194.287
			c0.189,0.162,0.396,0.307,0.57,0.469c108.766-52.633,171.08-125.875,171.08-201.267C1023.857,123.827,794.213,1.725,511.936,1.725
			z"/>
		<g id="PCHC">
			
				<linearGradient id="SVGID_1_" gradientUnits="userSpaceOnUse" x1="-918.5171" y1="398.8271" x2="-918.5173" y2="205.8501" gradientTransform="matrix(1 0 0 1 1128 -29.4648)">
				<stop  offset="0" style="stop-color:#212058"/>
				<stop  offset="0.0693" style="stop-color:#24235F"/>
				<stop  offset="0.2522" style="stop-color:#2A2B6F"/>
				<stop  offset="0.437" style="stop-color:#2D2F7B"/>
				<stop  offset="0.6229" style="stop-color:#2F3282"/>
				<stop  offset="0.8118" style="stop-color:#2F3384"/>
			</linearGradient>
			<path fill="url(#SVGID_1_)" d="M257.228,187.906c-4.308-3.749-10.21-6.605-17.695-8.568c-7.484-1.971-17.886-2.952-31.172-2.952
				c-6.753,0-13.623,0.234-20.654,0.703c-7.017,0.469-13.812,0.703-20.36,0.703c-4.688,0-8.893-0.146-12.643-0.425
				c-3.75-0.279-7.207-0.602-10.386-0.981c0.747,12.174,1.304,24.295,1.685,36.372c0.366,12.085,0.558,25.898,0.558,41.435V292.4
				c0,15.542-0.19,29.355-0.558,41.426c-0.381,12.067-0.938,23.92-1.685,35.536c3.179-0.381,6.636-0.569,10.386-0.569
				s7.954,0,12.643,0c4.688,0,8.892,0,12.642,0s7.207,0.188,10.4,0.569c-0.952-13.666-1.554-27.479-1.831-41.438
				c-0.278-13.945-0.425-27.936-0.425-41.997h14.325c10.488,0,20.127-1.113,28.932-3.355c8.804-2.249,16.436-5.757,22.896-10.54
				c6.46-4.774,11.47-10.993,15.03-18.677c3.545-7.677,5.332-16.854,5.332-27.524c0-8.431-1.406-15.638-4.219-21.636
				C267.628,198.204,263.22,192.771,257.228,187.906z M226.333,251.942c-2.622,5.435-5.99,9.603-10.106,12.503
				c-4.131,2.899-8.672,4.826-13.623,5.757c-4.966,0.938-9.785,1.406-14.474,1.406c0-13.11,0.045-26.17,0.146-39.186
				c0.088-13.016,0.234-26.266,0.425-39.749c0.732-0.184,1.582-0.277,2.521-0.277c0.938,0,1.875,0,2.812,0h6.46
				c3.926,0,7.72,0.658,11.367,1.97c3.662,1.305,6.841,3.414,9.551,6.313c2.726,2.907,4.878,6.797,6.46,11.66
				c1.598,4.87,2.402,10.854,2.402,17.975C230.275,239.309,228.956,246.515,226.333,251.942z"/>
			
				<linearGradient id="SVGID_2_" gradientUnits="userSpaceOnUse" x1="-746.479" y1="402.4736" x2="-746.479" y2="202.1953" gradientTransform="matrix(1 0 0 1 1128 -29.4648)">
				<stop  offset="0" style="stop-color:#212058"/>
				<stop  offset="0.0693" style="stop-color:#24235F"/>
				<stop  offset="0.2522" style="stop-color:#2A2B6F"/>
				<stop  offset="0.437" style="stop-color:#2D2F7B"/>
				<stop  offset="0.6229" style="stop-color:#2F3282"/>
				<stop  offset="0.8118" style="stop-color:#2F3384"/>
			</linearGradient>
			<path fill="url(#SVGID_2_)" d="M363.972,210.655c6.182-6.928,13.052-12.084,20.64-15.446c7.588-3.376,15.117-5.062,22.617-5.062
				c10.107,0,18.911,1.927,26.396,5.757c7.483,3.846,14.795,10.254,21.914,19.241h3.926c0.381-4.863,1.084-9.684,2.107-14.466
				c1.023-4.775,2.49-9.5,4.353-14.181c-3.18-1.875-7.062-3.654-11.646-5.339c-4.602-1.685-9.419-3.135-14.475-4.358
				c-5.054-1.208-10.298-2.196-15.73-2.942c-5.437-0.748-10.574-1.129-15.438-1.129c-14.795,0-28.945,1.971-42.422,5.902
				c-13.479,3.927-25.328,10.159-35.523,18.678c-10.21,8.525-18.354,19.569-24.448,33.149c-6.078,13.579-9.126,30.104-9.126,49.569
				c0,13.305,2.346,25.668,7.031,37.081c4.673,11.426,11.455,21.299,20.361,29.635c8.892,8.334,19.746,14.795,32.578,19.379
				c12.816,4.6,27.393,6.887,43.683,6.887c23.026,0,42.13-3.838,57.291-11.514c0.382-3.941,1.127-7.91,2.257-11.939
				c1.128-4.024,2.434-8.012,3.926-11.938l-3.646-2.239c-3.003,3.178-6.504,6.078-10.532,8.701
				c-4.028,2.62-8.275,4.815-12.771,6.604c-4.496,1.771-9.081,3.18-13.771,4.202c-4.688,1.039-9.271,1.556-13.771,1.556
				c-8.059,0-16.057-1.494-24.011-4.498c-7.954-3.002-15.071-7.731-21.343-14.183c-6.284-6.475-11.382-14.795-15.322-25.004
				c-3.926-10.21-5.889-22.515-5.889-36.939c0-14.979,1.919-27.854,5.757-38.62C352.78,226.431,357.791,217.583,363.972,210.655z"/>
			
				<linearGradient id="SVGID_3_" gradientUnits="userSpaceOnUse" x1="-537.0845" y1="398.8262" x2="-537.0845" y2="205.8501" gradientTransform="matrix(1 0 0 1 1128 -29.4648)">
				<stop  offset="0" style="stop-color:#212058"/>
				<stop  offset="0.0693" style="stop-color:#24235F"/>
				<stop  offset="0.2522" style="stop-color:#2A2B6F"/>
				<stop  offset="0.437" style="stop-color:#2D2F7B"/>
				<stop  offset="0.6229" style="stop-color:#2F3282"/>
				<stop  offset="0.8118" style="stop-color:#2F3384"/>
			</linearGradient>
			<path fill="url(#SVGID_3_)" d="M675.75,212.757c0.381-12.077,0.938-24.198,1.686-36.372c-3.18,0.382-6.648,0.703-10.387,0.981
				c-3.75,0.278-7.969,0.425-12.643,0.425c-4.688,0-8.893-0.146-12.643-0.425c-3.75-0.279-7.207-0.602-10.387-0.981
				c0.748,12.174,1.305,24.199,1.67,36.095c0.381,11.895,0.568,25.605,0.568,41.154c-5.436,0.185-11.34,0.33-17.693,0.417
				c-6.371,0.097-14.604,0.141-24.729,0.141c-10.104,0-18.569-0.044-25.416-0.141c-6.841-0.087-12.687-0.232-17.548-0.417
				c0-15.549,0.132-29.261,0.408-41.154c0.293-11.896,0.896-23.921,1.832-36.095c-3.18,0.382-6.651,0.703-10.387,0.981
				c-3.75,0.278-7.97,0.425-12.644,0.425c-4.688,0-8.903-0.146-12.642-0.425c-3.75-0.278-7.209-0.602-10.402-0.981
				c0.748,12.174,1.318,24.295,1.699,36.372c0.367,12.085,0.558,25.898,0.558,41.435v38.207c0,15.542-0.188,29.355-0.558,41.426
				c-0.381,12.067-0.951,23.92-1.699,35.536c3.193-0.381,6.65-0.569,10.402-0.569c3.731,0,7.953,0,12.642,0
				c4.674,0,8.894,0,12.644,0c3.733,0,7.207,0.188,10.387,0.569c-0.748-11.614-1.305-23.469-1.686-35.536
				c-0.384-12.07-0.559-25.885-0.559-41.426v-16.016c7.104-0.374,14.227-0.651,21.343-0.843c7.119-0.183,14.226-0.285,21.345-0.285
				s14.235,0.146,21.355,0.425c7.105,0.278,14.227,0.521,21.346,0.703v16.016c0,15.542-0.189,29.355-0.57,41.426
				c-0.365,12.067-0.924,23.92-1.67,35.536c3.178-0.381,6.635-0.569,10.385-0.569s7.953,0,12.644,0c4.675,0,8.896,0,12.646,0
				c3.732,0,7.205,0.188,10.385,0.569c-0.745-11.614-1.303-23.469-1.684-35.536c-0.367-12.07-0.562-25.885-0.562-41.426v-38.207
				C675.194,238.656,675.383,224.842,675.75,212.757z"/>
			
				<linearGradient id="SVGID_4_" gradientUnits="userSpaceOnUse" x1="-326.5464" y1="402.4727" x2="-326.5464" y2="202.1934" gradientTransform="matrix(1 0 0 1 1128 -29.4648)">
				<stop  offset="0" style="stop-color:#212058"/>
				<stop  offset="0.0693" style="stop-color:#24235F"/>
				<stop  offset="0.2522" style="stop-color:#2A2B6F"/>
				<stop  offset="0.437" style="stop-color:#2D2F7B"/>
				<stop  offset="0.6229" style="stop-color:#2F3282"/>
				<stop  offset="0.8118" style="stop-color:#2F3384"/>
			</linearGradient>
			<path fill="url(#SVGID_4_)" d="M869.989,344.077c-4.027,2.621-8.291,4.816-12.771,6.605c-4.498,1.771-9.1,3.18-13.771,4.201
				c-4.688,1.041-9.271,1.557-13.771,1.557c-8.043,0-16.055-1.494-24.008-4.498c-7.973-3.002-15.074-7.732-21.357-14.182
				c-6.271-6.475-11.367-14.795-15.309-25.006c-3.926-10.209-5.891-22.514-5.891-36.938c0-14.979,1.918-27.854,5.758-38.62
				c3.838-10.77,8.848-19.615,15.028-26.544c6.183-6.928,13.052-12.084,20.64-15.446c7.59-3.376,15.119-5.062,22.619-5.062
				c10.105,0,18.909,1.927,26.396,5.757c7.482,3.846,14.796,10.254,21.914,19.241h3.927c0.381-4.863,1.084-9.684,2.108-14.466
				c1.021-4.775,2.476-9.5,4.363-14.181c-3.193-1.875-7.074-3.654-11.658-5.339c-4.604-1.687-9.42-3.135-14.477-4.358
				c-5.055-1.208-10.298-2.196-15.729-2.942c-5.438-0.748-10.576-1.129-15.439-1.129c-14.797,0-28.932,1.971-42.424,5.902
				c-13.477,3.927-25.326,10.159-35.521,18.678c-10.209,8.525-18.369,19.569-24.447,33.149c-6.08,13.579-9.127,30.104-9.127,49.569
				c0,13.305,2.344,25.668,7.019,37.08c4.688,11.427,11.47,21.3,20.36,29.637c8.906,8.334,19.761,14.793,32.593,19.379
				c12.817,4.6,27.396,6.887,43.668,6.887c23.043,0,42.146-3.84,57.317-11.516c0.367-3.941,1.115-7.91,2.242-11.938
				c1.129-4.025,2.432-8.014,3.926-11.938l-3.646-2.24C877.518,338.555,874.016,341.456,869.989,344.077z"/>
		</g>
	</g>
	<g>
		<path fill="#BE1E2D" d="M149.945,524.698c-0.172-4.014-0.3-7.555-0.384-10.623c2.388,0.428,4.308,0.639,5.76,0.639
			c1.45,0,3.37-0.211,5.76-0.639c9.3,10.324,18.496,20.479,27.584,30.463c9.088,9.981,18.41,20.141,27.968,30.465v-11.137V551.45
			c0-4.184-0.021-8.297-0.063-12.354c-0.044-4.051-0.086-7.785-0.128-11.197c-0.044-3.412-0.128-6.355-0.256-8.832
			s-0.278-4.141-0.448-4.99c2.388,0.428,4.308,0.639,5.76,0.639c1.45,0,3.37-0.211,5.76-0.639
			c-0.428,7.766-0.768,14.781-1.023,21.055c-0.256,6.271-0.47,12.184-0.64,17.729c-0.173,5.549-0.278,11.027-0.32,16.445
			c-0.044,5.421-0.064,11.201-0.064,17.348v15.357c-1.708-0.172-3.456-0.256-5.248-0.256c-1.878,0-3.542,0.084-4.991,0.256
			c-17.58-20.479-36.225-41.088-55.937-61.823c-0.086,2.478-0.15,4.948-0.192,7.425c-0.044,2.477-0.063,4.991-0.063,7.553v14.848
			c0,5.121,0.02,9.475,0.063,13.059c0.042,3.584,0.106,6.611,0.192,9.09c0.084,2.475,0.17,4.502,0.256,6.078
			c0.084,1.58,0.17,2.84,0.256,3.773c-1.023-0.172-2.048-0.256-3.071-0.256c-1.024,0-2.007,0-2.944,0
			c-1.964,0-3.926,0.084-5.888,0.256c0.17-0.682,0.384-3.111,0.64-7.295c0.256-4.18,0.532-9.28,0.832-15.297
			c0.298-6.016,0.554-12.543,0.768-19.584c0.213-7.039,0.32-13.801,0.32-20.287C150.201,533.659,150.115,528.709,149.945,524.698z"
			/>
		<path fill="#BE1E2D" d="M244.088,557.977c1.748-4.266,4.074-7.824,6.977-10.688c2.899-2.857,6.25-4.992,10.048-6.4
			c3.796-1.408,7.7-2.107,11.712-2.107c9.983,0,17.706,2.812,23.168,8.443c5.46,5.635,8.192,13.271,8.192,22.912
			c0,5.207-0.769,9.9-2.305,14.08c-1.536,4.186-3.691,7.744-6.464,10.689c-2.773,2.939-6.08,5.141-9.92,6.592
			c-3.84,1.449-8.064,2.176-12.672,2.176c-3.84,0-7.616-0.512-11.328-1.537c-3.712-1.021-7.062-2.752-10.048-5.184
			c-2.988-2.436-5.397-5.609-7.231-9.535c-1.837-3.924-2.753-8.746-2.753-14.465C241.464,567.239,242.338,562.247,244.088,557.977z
			 M282.424,550.747c-1.878-4.139-4.992-6.209-9.344-6.209c-3.926,0-7.02,2.305-9.279,6.912c-2.263,4.605-3.393,11.816-3.393,21.633
			c0,3.584,0.212,6.912,0.64,9.982c0.427,3.07,1.131,5.738,2.112,8c0.98,2.264,2.26,4.029,3.84,5.312
			c1.578,1.279,3.562,1.92,5.952,1.92c8.192,0,12.288-10.027,12.288-30.08C285.241,560.709,284.3,554.885,282.424,550.747z"/>
		<path fill="#BE1E2D" d="M327.417,541.083c4.138-1.537,8.256-2.305,12.353-2.305c3.411,0,6.548,0.385,9.407,1.148
			c2.858,0.771,5.332,1.984,7.424,3.648c2.091,1.664,3.713,3.817,4.864,6.465c1.152,2.646,1.729,5.846,1.729,9.6
			c0,5.461-0.064,10.521-0.192,15.168c-0.128,4.652-0.192,9.279-0.192,13.891c0,2.049,0.148,3.646,0.448,4.801
			c0.298,1.15,0.746,2.027,1.345,2.623c0.596,0.598,1.386,0.979,2.367,1.15c0.98,0.174,2.112,0.258,3.393,0.258v3.068
			c-2.477,1.025-4.566,1.794-6.272,2.309c-1.708,0.512-3.542,0.768-5.504,0.768c-3.158,0-5.718-0.768-7.68-2.305
			c-1.964-1.535-3.456-3.754-4.48-6.656c-1.964,2.732-4.246,4.908-6.848,6.529c-2.604,1.619-5.868,2.432-9.792,2.432
			c-3.244,0-6.016-0.428-8.32-1.28c-2.304-0.853-4.204-2.065-5.695-3.646c-1.494-1.578-2.582-3.369-3.265-5.375
			c-0.684-2.004-1.023-4.033-1.023-6.08c0-2.815,0.447-5.248,1.344-7.297c0.896-2.047,2.176-3.795,3.84-5.248
			c1.664-1.449,3.648-2.666,5.952-3.648c2.304-0.979,4.906-1.811,7.808-2.494c3.584-0.854,6.42-1.602,8.513-2.238
			c2.09-0.642,3.647-1.279,4.672-1.92c1.023-0.643,1.684-1.347,1.983-2.111c0.298-0.77,0.448-1.707,0.448-2.814
			c0-3.07-1.088-5.695-3.264-7.873c-2.176-2.178-5.185-3.266-9.024-3.266c-1.452,0-2.944,0.193-4.479,0.576
			c-1.536,0.385-3.009,0.918-4.416,1.601c-1.408,0.687-2.688,1.433-3.84,2.239c-1.152,0.812-2.028,1.688-2.624,2.625h-0.896
			l-1.664-7.68C319.417,544.838,323.277,542.618,327.417,541.083z M346.233,574.17c0.042-1.92,0.063-3.604,0.063-5.057
			c-1.792,1.021-3.691,1.854-5.696,2.496c-2.006,0.641-3.84,1.449-5.504,2.432c-1.664,0.979-3.029,2.326-4.096,4.033
			c-1.068,1.707-1.6,4.182-1.6,7.424c0,3.158,0.659,5.566,1.983,7.229c1.322,1.664,3.092,2.496,5.312,2.496
			c2.815,0,5.098-1.062,6.848-3.197c1.748-2.135,2.624-5.289,2.624-9.475C346.168,578.885,346.189,576.09,346.233,574.17z"/>
		<path fill="#BE1E2D" d="M379.96,526.747c-0.172-6.996-0.428-14.08-0.768-21.248c1.107,0.172,2.516,0.32,4.224,0.447
			c1.706,0.129,3.498,0.189,5.376,0.189c1.876,0,3.668-0.062,5.376-0.189c1.706-0.127,3.114-0.275,4.224-0.447
			c-0.342,7.168-0.598,14.252-0.768,21.248c-0.172,6.998-0.256,14.678-0.256,23.039l0.256,0.256c2.218-3.584,4.928-6.354,8.128-8.32
			c3.2-1.961,6.848-2.939,10.944-2.939c6.397,0,11.328,1.854,14.784,5.564c3.454,3.711,5.184,9.707,5.184,17.984
			c0,4.352-0.086,8.188-0.256,11.52c-0.172,3.328-0.256,6.656-0.256,9.984c0,2.73,0.062,5.695,0.189,8.896
			c0.128,3.2,0.276,6.295,0.448,9.279c-1.11-0.172-2.519-0.256-4.224-0.256c-1.709,0-3.5,0-5.377,0c-1.879,0-3.671,0-5.377,0
			c-1.707,0-3.114,0.084-4.225,0.256c0.597-4.436,0.98-9.664,1.152-15.68c0.17-6.018,0.256-12.906,0.256-20.672
			c0-5.377-0.918-9.322-2.752-11.84c-1.836-2.52-4.416-3.777-7.744-3.777c-3.84,0-6.656,1.664-8.448,4.992
			s-2.688,7.936-2.688,13.824v5.117c0,1.195,0.02,2.928,0.062,5.188c0.042,2.262,0.106,4.734,0.192,7.424
			c0.084,2.688,0.19,5.42,0.319,8.191s0.274,5.184,0.446,7.229c-1.107-0.172-2.518-0.256-4.224-0.256c-1.708,0-3.5,0-5.376,0
			c-1.878,0-3.67,0-5.376,0c-1.708,0-3.116,0.084-4.224,0.256c0.34-6.912,0.596-13.865,0.768-20.862
			c0.17-6.993,0.256-14.677,0.256-23.038v-8.32C380.216,541.424,380.13,533.745,379.96,526.747z"/>
		<path fill="#BE1E2D" d="M453.561,530.842c1.449-5.633,2.771-9.896,3.97-12.801c1.191-2.9,2.388-4.777,3.584-5.631
			c1.191-0.854,2.644-1.281,4.352-1.281c1.024,0,2.068,0.172,3.136,0.512c1.066,0.346,2.051,0.832,2.944,1.477
			c0.896,0.639,1.62,1.471,2.176,2.496c0.557,1.021,0.832,2.176,0.832,3.455c0,0.512-0.062,1.064-0.189,1.66
			c-0.128,0.602-0.473,1.393-1.024,2.369c-0.556,0.982-1.324,2.283-2.304,3.904c-0.982,1.621-2.349,3.67-4.097,6.143
			c-1.75,2.479-3.886,5.484-6.399,9.025c-2.519,3.541-5.568,7.787-9.152,12.736l-3.197-1.281
			C450.317,544.071,452.109,536.473,453.561,530.842z"/>
		<path fill="#BE1E2D" d="M478.202,590.17c0.81,1.238,1.812,2.348,3.008,3.328c1.195,0.979,2.625,1.77,4.289,2.367
			c1.664,0.597,3.604,0.896,5.824,0.896c2.984,0,5.289-0.768,6.912-2.305c1.618-1.535,2.432-3.199,2.432-4.992
			c0-1.961-0.728-3.539-2.176-4.736c-1.453-1.189-3.266-2.277-5.441-3.264c-2.176-0.979-4.543-1.982-7.104-3.008
			c-2.562-1.024-4.931-2.324-7.104-3.904c-2.176-1.578-3.99-3.561-5.438-5.951c-1.452-2.389-2.179-5.461-2.179-9.217
			c0-3.584,0.66-6.676,1.984-9.277c1.322-2.604,3.05-4.734,5.185-6.398c2.134-1.664,4.545-2.9,7.231-3.713
			c2.688-0.812,5.354-1.215,8-1.215c3.584,0,6.762,0.512,9.537,1.532c2.771,1.024,5.608,2.521,8.512,4.479
			c-0.768,1.709-1.408,3.543-1.92,5.504c-0.512,1.965-0.895,3.885-1.152,5.76h-3.584c-0.256-1.021-0.684-2.15-1.277-3.391
			c-0.602-1.236-1.408-2.41-2.436-3.521c-1.021-1.107-2.262-2.025-3.711-2.754c-1.453-0.725-3.198-1.088-5.248-1.088
			c-2.561,0-4.717,0.688-6.465,2.047c-1.75,1.367-2.623,3.158-2.623,5.379c0,2.049,0.746,3.689,2.24,4.93
			c1.492,1.236,3.348,2.324,5.567,3.264c2.218,0.939,4.647,1.877,7.296,2.814c2.645,0.938,5.074,2.154,7.297,3.646
			c2.217,1.494,4.073,3.438,5.564,5.824c1.492,2.387,2.24,5.461,2.24,9.215c0,3.756-0.684,6.979-2.047,9.664
			c-1.367,2.688-3.201,4.908-5.506,6.656c-2.304,1.75-4.929,3.008-7.871,3.773c-2.945,0.771-6.039,1.152-9.281,1.152
			c-3.84,0-7.295-0.557-10.368-1.664c-3.069-1.105-5.504-2.26-7.296-3.457c1.024-4.096,1.664-8.189,1.92-12.287h3.2
			C476.73,587.631,477.389,588.934,478.202,590.17z"/>
		<path fill="#BE1E2D" d="M565.049,524.698c-0.172-4.014-0.301-7.555-0.385-10.623c2.389,0.428,4.309,0.639,5.76,0.639
			c1.449,0,3.371-0.211,5.76-0.639c9.303,10.324,18.496,20.479,27.584,30.463c9.092,9.981,18.41,20.141,27.971,30.465v-11.137
			V551.45c0-4.184-0.021-8.297-0.064-12.354c-0.043-4.051-0.086-7.785-0.127-11.197c-0.045-3.412-0.129-6.355-0.256-8.832
			c-0.129-2.477-0.279-4.141-0.449-4.99c2.393,0.428,4.312,0.639,5.762,0.639s3.369-0.211,5.762-0.639
			c-0.43,7.766-0.771,14.781-1.023,21.055c-0.256,6.273-0.471,12.184-0.641,17.729c-0.172,5.549-0.277,11.027-0.318,16.445
			c-0.045,5.421-0.062,11.201-0.062,17.348v15.357c-1.707-0.172-3.455-0.256-5.248-0.256c-1.88,0-3.541,0.084-4.992,0.256
			c-17.58-20.479-36.227-41.088-55.938-61.823c-0.086,2.478-0.148,4.948-0.189,7.425c-0.045,2.477-0.064,4.991-0.064,7.553v14.848
			c0,5.121,0.021,9.475,0.064,13.059c0.041,3.584,0.104,6.611,0.189,9.09c0.084,2.475,0.17,4.502,0.256,6.078
			c0.084,1.58,0.172,2.84,0.258,3.773c-1.023-0.172-2.051-0.256-3.072-0.256c-1.023,0-2.006,0-2.943,0
			c-1.965,0-3.926,0.084-5.889,0.256c0.17-0.682,0.385-3.111,0.641-7.295c0.258-4.18,0.531-9.28,0.832-15.297
			c0.299-6.016,0.557-12.543,0.771-19.584c0.211-7.039,0.318-13.801,0.318-20.287C565.305,533.659,565.219,528.709,565.049,524.698z
			"/>
		<path fill="#BE1E2D" d="M659.194,557.977c1.747-4.266,4.07-7.824,6.975-10.688c2.9-2.857,6.25-4.992,10.049-6.4
			c3.795-1.408,7.699-2.107,11.711-2.107c9.984,0,17.707,2.812,23.168,8.443c5.461,5.635,8.193,13.271,8.193,22.912
			c0,5.207-0.771,9.9-2.306,14.08c-1.534,4.186-3.69,7.744-6.466,10.689c-2.771,2.939-6.077,5.141-9.92,6.592
			c-3.84,1.449-8.062,2.176-12.672,2.176c-3.84,0-7.615-0.512-11.328-1.537c-3.711-1.021-7.062-2.752-10.047-5.184
			c-2.987-2.436-5.396-5.609-7.231-9.535c-1.836-3.924-2.752-8.746-2.752-14.465C656.569,567.239,657.444,562.247,659.194,557.977z
			 M697.53,550.747c-1.879-4.139-4.992-6.209-9.347-6.209c-3.927,0-7.021,2.305-9.278,6.912c-2.263,4.605-3.395,11.816-3.395,21.633
			c0,3.584,0.214,6.912,0.643,9.982c0.426,3.07,1.131,5.738,2.109,8c0.98,2.264,2.264,4.029,3.841,5.312
			c1.578,1.279,3.562,1.92,5.953,1.92c8.19,0,12.286-10.027,12.286-30.08C700.344,560.709,699.405,554.885,697.53,550.747z"/>
		<path fill="#BE1E2D" d="M763.577,544.538c0,1.109,0.129,2.176,0.385,3.201l-11.266-0.258c-0.172,1.965-0.318,4.225-0.447,6.781
			c-0.127,2.562-0.213,5.164-0.256,7.812c-0.045,2.645-0.086,5.205-0.129,7.68c-0.043,2.477-0.062,4.566-0.062,6.271
			c0,4.438,0.105,8.021,0.32,10.752c0.211,2.729,0.574,4.818,1.088,6.271c0.512,1.451,1.234,2.434,2.176,2.943
			c0.939,0.512,2.134,0.768,3.584,0.768c1.619,0,2.816-0.104,3.584-0.316c0.771-0.215,1.535-0.531,2.307-0.961v5.246
			c-1.707,0.771-3.843,1.449-6.398,2.051c-2.561,0.596-5.078,0.896-7.553,0.896c-10.838,0-16.256-6.482-16.256-19.457
			c0-2.473,0.041-5.268,0.127-8.383c0.084-3.115,0.189-6.313,0.317-9.6c0.132-3.285,0.233-6.529,0.319-9.73
			c0.084-3.199,0.129-6.164,0.129-8.895l-8.961,0.127c0.256-1.023,0.386-2.092,0.386-3.199c0-1.025-0.13-2.176-0.386-3.457
			l8.961,0.385c0-2.645-0.045-5.121-0.129-7.424c-0.086-2.305-0.213-5.076-0.383-8.32c2.983-1.191,5.93-2.451,8.83-3.773
			c2.899-1.322,5.803-2.707,8.705-4.16l1.278,0.896c-0.173,1.364-0.319,2.966-0.446,4.8c-0.13,1.838-0.257,3.758-0.386,5.762
			c-0.127,2.006-0.213,4.055-0.256,6.146c-0.044,2.092-0.063,4.074-0.063,5.949l11.266-0.256
			C763.706,542.362,763.577,543.514,763.577,544.538z"/>
		<path fill="#BE1E2D" d="M790.329,581.018c0.682,2.988,1.727,5.568,3.135,7.744c1.408,2.178,3.201,3.883,5.377,5.119
			c2.177,1.238,4.713,1.857,7.615,1.857c5.889,0,11.137-1.92,15.744-5.764l1.535,1.152l-2.814,7.168
			c-2.135,1.621-4.692,2.924-7.682,3.904c-2.986,0.979-6.91,1.471-11.775,1.471c-4.182,0-8.147-0.576-11.904-1.727
			c-3.756-1.152-7.061-3.055-9.92-5.697c-2.857-2.646-5.118-5.994-6.782-10.047c-1.663-4.053-2.495-8.896-2.495-14.529
			c0-5.545,0.745-10.367,2.239-14.463c1.491-4.096,3.562-7.508,6.206-10.24c2.646-2.729,5.781-4.775,9.408-6.145
			c3.627-1.363,7.572-2.047,11.84-2.047c8.449,0,14.912,2.475,19.395,7.424c4.479,4.949,6.721,11.947,6.721,20.992v2.688
			c0,0.771-0.043,1.279-0.127,1.535h-36.736C789.303,574.833,789.643,578.032,790.329,581.018z M806.646,550.297
			c-1.407-3.84-3.774-5.76-7.104-5.76c-1.879,0-3.457,0.641-4.736,1.92c-1.277,1.281-2.305,2.924-3.071,4.928
			c-0.769,2.006-1.345,4.271-1.729,6.785c-0.383,2.518-0.619,5.014-0.703,7.488h19.711
			C808.842,559.258,808.055,554.137,806.646,550.297z"/>
		<path fill="#BE1E2D" d="M840.952,590.17c0.811,1.238,1.812,2.348,3.008,3.328c1.193,0.979,2.625,1.77,4.289,2.367
			c1.664,0.597,3.604,0.896,5.822,0.896c2.984,0,5.291-0.768,6.912-2.305c1.62-1.535,2.434-3.199,2.434-4.992
			c0-1.961-0.727-3.539-2.178-4.736c-1.451-1.189-3.265-2.277-5.439-3.264c-2.176-0.979-4.543-1.982-7.104-3.008
			c-2.562-1.024-4.929-2.324-7.104-3.904c-2.176-1.578-3.99-3.561-5.438-5.951c-1.451-2.389-2.18-5.461-2.18-9.217
			c0-3.584,0.66-6.676,1.984-9.277c1.322-2.604,3.051-4.734,5.186-6.398c2.133-1.664,4.543-2.9,7.23-3.713
			c2.689-0.812,5.355-1.215,8-1.215c3.584,0,6.762,0.512,9.537,1.532c2.77,1.024,5.609,2.521,8.512,4.479
			c-0.77,1.709-1.408,3.543-1.92,5.504c-0.512,1.965-0.896,3.885-1.152,5.76h-3.584c-0.256-1.021-0.684-2.15-1.277-3.391
			c-0.602-1.236-1.408-2.41-2.436-3.521c-1.021-1.107-2.262-2.025-3.711-2.754c-1.451-0.725-3.199-1.088-5.248-1.088
			c-2.561,0-4.717,0.688-6.465,2.047c-1.75,1.367-2.623,3.158-2.623,5.379c0,2.049,0.746,3.689,2.24,4.93
			c1.49,1.236,3.348,2.324,5.566,3.264c2.218,0.94,4.648,1.877,7.297,2.814c2.645,0.938,5.076,2.154,7.297,3.646
			c2.217,1.494,4.072,3.438,5.564,5.824c1.492,2.389,2.24,5.461,2.24,9.215c0,3.756-0.684,6.979-2.049,9.664
			c-1.365,2.688-3.199,4.908-5.504,6.656c-2.307,1.75-4.93,3.008-7.871,3.773c-2.943,0.771-6.039,1.152-9.281,1.152
			c-3.84,0-7.295-0.557-10.367-1.664c-3.07-1.105-5.504-2.26-7.297-3.457c1.025-4.096,1.664-8.189,1.922-12.287h3.199
			C839.479,587.631,840.139,588.934,840.952,590.17z"/>
	</g>
</g>
<g>
	<path fill="#8D7167" d="M73.781,643.742h-2.263v-30.015H61.081v-2.109h23.137v2.109H73.781V643.742z"/>
	<path fill="#8D7167" d="M105.092,643.742v-15.489c0-2.403-0.505-4.15-1.516-5.243c-1.011-1.091-2.578-1.636-4.702-1.636
		c-2.856,0-4.947,0.721-6.273,2.163c-1.326,1.444-1.988,3.783-1.988,7.021v13.184h-2.175v-34.189h2.175v10.878l-0.11,3.053h0.154
		c0.894-1.437,2.021-2.475,3.384-3.12s3.054-0.967,5.076-0.967c5.42,0,8.13,2.907,8.13,8.722v15.624H105.092z"/>
	<path fill="#8D7167" d="M134.733,631.769c0,3.895-0.945,6.938-2.834,9.127c-1.89,2.191-4.498,3.286-7.822,3.286
		c-2.094,0-3.94-0.507-5.537-1.515c-1.597-1.014-2.819-2.461-3.669-4.354c-0.85-1.887-1.274-4.07-1.274-6.545
		c0-3.897,0.945-6.933,2.834-9.11c1.89-2.173,4.482-3.262,7.778-3.262c3.281,0,5.855,1.103,7.723,3.306
		C133.799,624.907,134.733,627.929,134.733,631.769z M115.88,631.769c0,3.279,0.722,5.839,2.164,7.677
		c1.443,1.84,3.483,2.759,6.12,2.759s4.677-0.919,6.119-2.759c1.443-1.838,2.165-4.397,2.165-7.677c0-3.299-0.729-5.854-2.187-7.67
		c-1.458-1.815-3.504-2.725-6.141-2.725s-4.669,0.906-6.098,2.715S115.88,628.456,115.88,631.769z"/>
	<path fill="#8D7167" d="M143.236,619.856v15.469c0,2.403,0.505,4.151,1.516,5.243s2.578,1.636,4.702,1.636
		c2.841,0,4.933-0.717,6.273-2.153s2.011-3.772,2.011-7.011v-13.184h2.153v23.886h-1.846l-0.396-3.296h-0.132
		c-1.553,2.491-4.313,3.735-8.284,3.735c-5.434,0-8.152-2.907-8.152-8.722v-15.604H143.236z"/>
	<path fill="#8D7167" d="M186.522,619.856v1.518l-4.944,0.308c1.318,1.64,1.978,3.441,1.978,5.405c0,2.299-0.766,4.165-2.296,5.591
		c-1.53,1.431-3.585,2.144-6.163,2.144c-1.083,0-1.846-0.044-2.285-0.132c-0.864,0.453-1.523,0.987-1.978,1.603
		s-0.681,1.268-0.681,1.957c0,0.761,0.289,1.318,0.868,1.67c0.579,0.352,1.549,0.527,2.912,0.527h4.175
		c2.593,0,4.577,0.524,5.955,1.572s2.065,2.596,2.065,4.645c0,2.521-1.022,4.465-3.065,5.834s-4.955,2.056-8.734,2.056
		c-3.003,0-5.329-0.578-6.977-1.737c-1.648-1.156-2.472-2.766-2.472-4.834c0-1.64,0.509-3.002,1.527-4.084
		c1.019-1.085,2.399-1.825,4.142-2.221c-0.718-0.308-1.293-0.743-1.725-1.309c-0.432-0.563-0.648-1.21-0.648-1.943
		c0-1.596,1.018-3.002,3.054-4.219c-1.391-0.571-2.476-1.467-3.252-2.69s-1.165-2.627-1.165-4.209c0-2.387,0.758-4.303,2.274-5.747
		c1.516-1.442,3.564-2.163,6.142-2.163c1.567,0,2.784,0.155,3.647,0.46H186.522z M167.187,647.785c0,3.282,2.439,4.922,7.317,4.922
		c6.269,0,9.404-2.001,9.404-5.997c0-1.437-0.49-2.478-1.472-3.123c-0.982-0.643-2.571-0.967-4.768-0.967h-3.911
		C169.377,642.62,167.187,644.344,167.187,647.785z M169.01,627.307c0,1.846,0.56,3.279,1.681,4.297s2.619,1.524,4.494,1.524
		c1.993,0,3.519-0.504,4.581-1.515c1.062-1.011,1.593-2.475,1.593-4.395c0-2.035-0.546-3.562-1.637-4.58
		c-1.091-1.018-2.619-1.528-4.581-1.528c-1.905,0-3.402,0.545-4.494,1.636C169.556,623.839,169.01,625.359,169.01,627.307z"/>
	<path fill="#8D7167" d="M208.078,643.742v-15.489c0-2.403-0.505-4.15-1.516-5.243c-1.011-1.091-2.578-1.636-4.702-1.636
		c-2.856,0-4.947,0.721-6.273,2.163c-1.326,1.444-1.988,3.783-1.988,7.021v13.184h-2.175v-34.189h2.175v10.878l-0.11,3.053h0.154
		c0.894-1.437,2.021-2.475,3.384-3.12s3.054-0.967,5.076-0.967c5.42,0,8.13,2.907,8.13,8.722v15.624H208.078z"/>
	<path fill="#8D7167" d="M224.271,642.248c1.377,0,2.578-0.118,3.604-0.352v1.758c-1.055,0.352-2.27,0.527-3.647,0.527
		c-2.109,0-3.666-0.564-4.669-1.69c-1.003-1.129-1.505-2.9-1.505-5.32v-15.422h-3.538v-1.277l3.538-0.987l1.099-5.405h1.121v5.777
		h7.009v1.893h-7.009v15.117c0,1.829,0.323,3.185,0.967,4.063S222.894,642.248,224.271,642.248z"/>
	<path fill="#8D7167" d="M247.848,637.522c0,2.14-0.813,3.786-2.439,4.936s-3.933,1.724-6.921,1.724
		c-3.193,0-5.728-0.49-7.603-1.474v-2.35c2.402,1.2,4.937,1.802,7.603,1.802c2.358,0,4.149-0.392,5.372-1.177
		c1.223-0.783,1.835-1.825,1.835-3.13c0-1.2-0.487-2.211-1.461-3.032c-0.974-0.821-2.575-1.626-4.801-2.417
		c-2.388-0.865-4.065-1.608-5.032-2.231c-0.967-0.621-1.695-1.324-2.187-2.109c-0.491-0.783-0.736-1.737-0.736-2.866
		c0-1.788,0.75-3.201,2.252-4.239c1.502-1.041,3.6-1.562,6.295-1.562c2.578,0,5.025,0.483,7.339,1.45l-0.813,1.978
		c-2.344-0.967-4.52-1.45-6.526-1.45c-1.949,0-3.494,0.321-4.636,0.967s-1.714,1.538-1.714,2.681c0,1.244,0.443,2.241,1.329,2.988
		c0.887,0.747,2.619,1.582,5.197,2.505c2.153,0.777,3.72,1.478,4.702,2.1s1.717,1.328,2.208,2.119
		C247.603,635.524,247.848,636.454,247.848,637.522z"/>
	<path fill="#8D7167" d="M285.443,631.769c0,3.895-0.945,6.938-2.834,9.127c-1.89,2.191-4.498,3.286-7.822,3.286
		c-2.094,0-3.94-0.507-5.537-1.515c-1.597-1.014-2.819-2.461-3.669-4.354c-0.85-1.887-1.274-4.07-1.274-6.545
		c0-3.897,0.945-6.933,2.834-9.11c1.89-2.173,4.482-3.262,7.778-3.262c3.281,0,5.855,1.103,7.723,3.306
		C284.509,624.907,285.443,627.929,285.443,631.769z M266.591,631.769c0,3.279,0.722,5.839,2.164,7.677
		c1.443,1.84,3.483,2.759,6.12,2.759s4.677-0.919,6.119-2.759c1.443-1.838,2.165-4.397,2.165-7.677c0-3.299-0.729-5.854-2.187-7.67
		c-1.458-1.815-3.504-2.725-6.141-2.725s-4.669,0.906-6.098,2.715S266.591,628.456,266.591,631.769z"/>
	<path fill="#8D7167" d="M308.712,643.742v-15.489c0-2.403-0.505-4.15-1.516-5.243c-1.011-1.091-2.578-1.636-4.702-1.636
		c-2.856,0-4.947,0.721-6.273,2.163c-1.326,1.444-1.988,3.783-1.988,7.021v13.184h-2.175v-23.886h1.846l0.417,3.275h0.132
		c1.553-2.491,4.313-3.735,8.284-3.735c5.42,0,8.13,2.907,8.13,8.722v15.624H308.712z"/>
	<path fill="#8D7167" d="M354.108,643.742h-2.263v-15.8H333.08v15.8h-2.241v-32.124h2.241v14.262h18.765v-14.262h2.263V643.742z"/>
	<path fill="#8D7167" d="M372.301,644.182c-3.472,0-6.178-1.068-8.119-3.208c-1.941-2.14-2.911-5.135-2.911-8.988
		c0-3.807,0.938-6.858,2.812-9.151c1.875-2.291,4.401-3.438,7.581-3.438c2.812,0,5.032,0.98,6.658,2.944s2.439,4.628,2.439,7.998
		v1.758h-17.205c0.029,3.282,0.794,5.787,2.296,7.515c1.502,1.728,3.652,2.593,6.449,2.593c1.362,0,2.56-0.095,3.592-0.287
		c1.033-0.189,2.34-0.599,3.922-1.23v1.98c-1.347,0.585-2.593,0.984-3.735,1.197C374.938,644.076,373.679,644.182,372.301,644.182z
		 M371.664,621.33c-2.3,0-4.146,0.757-5.537,2.275c-1.391,1.514-2.204,3.701-2.439,6.558h14.766c0-2.769-0.6-4.932-1.802-6.494
		C375.45,622.111,373.789,621.33,371.664,621.33z"/>
	<path fill="#8D7167" d="M401.854,643.742l-0.549-3.779h-0.176c-1.202,1.538-2.436,2.627-3.703,3.262
		c-1.267,0.64-2.764,0.957-4.493,0.957c-2.344,0-4.168-0.602-5.471-1.802s-1.956-2.863-1.956-4.986c0-2.332,0.97-4.141,2.911-5.429
		c1.941-1.288,4.75-1.971,8.427-2.042l4.548-0.135v-1.582c0-2.269-0.461-3.982-1.384-5.139c-0.923-1.159-2.41-1.737-4.46-1.737
		c-2.212,0-4.504,0.615-6.877,1.846l-0.813-1.89c2.622-1.23,5.214-1.846,7.778-1.846c2.622,0,4.581,0.68,5.877,2.045
		c1.296,1.359,1.945,3.485,1.945,6.369v15.888H401.854z M393.065,642.204c2.549,0,4.559-0.729,6.031-2.188
		c1.472-1.456,2.208-3.481,2.208-6.074v-2.35l-4.175,0.176c-3.355,0.159-5.746,0.684-7.174,1.568
		c-1.428,0.887-2.142,2.269-2.142,4.145c0,1.494,0.458,2.654,1.373,3.482C390.103,641.792,391.396,642.204,393.065,642.204z"/>
	<path fill="#8D7167" d="M413.368,643.742h-2.175v-34.189h2.175V643.742z"/>
	<path fill="#8D7167" d="M427.672,642.248c1.377,0,2.578-0.118,3.604-0.352v1.758c-1.055,0.352-2.27,0.527-3.647,0.527
		c-2.109,0-3.666-0.564-4.669-1.69c-1.003-1.129-1.505-2.9-1.505-5.32v-15.422h-3.538v-1.277l3.538-0.987l1.099-5.405h1.121v5.777
		h7.009v1.893h-7.009v15.117c0,1.829,0.323,3.185,0.967,4.063S426.295,642.248,427.672,642.248z"/>
	<path fill="#8D7167" d="M453.095,643.742v-15.489c0-2.403-0.505-4.15-1.516-5.243c-1.011-1.091-2.578-1.636-4.702-1.636
		c-2.856,0-4.947,0.721-6.273,2.163c-1.326,1.444-1.988,3.783-1.988,7.021v13.184h-2.175v-34.189h2.175v10.878l-0.11,3.053h0.154
		c0.894-1.437,2.021-2.475,3.384-3.12s3.054-0.967,5.076-0.967c5.42,0,8.13,2.907,8.13,8.722v15.624H453.095z"/>
	<path fill="#8D7167" d="M488.932,613.177c-4.028,0-7.2,1.291-9.514,3.867c-2.314,2.579-3.472,6.111-3.472,10.594
		c0,4.584,1.092,8.144,3.274,10.676c2.182,2.535,5.302,3.803,9.36,3.803c2.696,0,5.17-0.345,7.427-1.031v1.975
		c-2.125,0.75-4.775,1.122-7.954,1.122c-4.511,0-8.064-1.457-10.657-4.374c-2.593-2.914-3.889-6.984-3.889-12.217
		c0-3.266,0.619-6.143,1.856-8.634c1.238-2.491,3.018-4.411,5.339-5.767c2.322-1.355,5.021-2.035,8.097-2.035
		c3.135,0,5.939,0.588,8.416,1.758l-0.901,2.021C493.971,613.765,491.51,613.177,488.932,613.177z"/>
	<path fill="#8D7167" d="M517.123,643.742l-0.549-3.779h-0.176c-1.202,1.538-2.436,2.627-3.704,3.262
		c-1.266,0.64-2.763,0.957-4.492,0.957c-2.344,0-4.168-0.602-5.471-1.802s-1.956-2.863-1.956-4.986c0-2.332,0.97-4.141,2.911-5.429
		c1.941-1.288,4.75-1.971,8.427-2.042l4.549-0.135v-1.582c0-2.269-0.462-3.982-1.385-5.139c-0.923-1.159-2.41-1.737-4.46-1.737
		c-2.212,0-4.504,0.615-6.877,1.846l-0.813-1.89c2.622-1.23,5.214-1.846,7.778-1.846c2.622,0,4.583,0.68,5.876,2.045
		c1.299,1.359,1.947,3.485,1.947,6.369v15.888H517.123z M508.334,642.204c2.549,0,4.561-0.729,6.03-2.188
		c1.475-1.456,2.21-3.481,2.21-6.074v-2.35l-4.175,0.176c-3.355,0.159-5.746,0.684-7.174,1.568
		c-1.428,0.887-2.142,2.269-2.142,4.145c0,1.494,0.458,2.654,1.374,3.482C505.371,641.792,506.664,642.204,508.334,642.204z"/>
	<path fill="#8D7167" d="M535.867,619.396c1.01,0,2.093,0.102,3.252,0.308l-0.419,2.086c-0.997-0.247-2.028-0.372-3.097-0.372
		c-2.038,0-3.708,0.865-5.01,2.593c-1.305,1.728-1.957,3.911-1.957,6.548v13.184h-2.174v-23.886h1.846l0.219,4.307h0.153
		c0.98-1.758,2.028-2.991,3.144-3.702C532.937,619.752,534.285,619.396,535.867,619.396z"/>
	<path fill="#8D7167" d="M553.621,644.182c-3.473,0-6.18-1.068-8.119-3.208c-1.941-2.14-2.912-5.135-2.912-8.988
		c0-3.807,0.938-6.858,2.812-9.151c1.874-2.291,4.402-3.438,7.58-3.438c2.812,0,5.033,0.98,6.658,2.944
		c1.627,1.964,2.438,4.628,2.438,7.998v1.758h-17.204c0.028,3.282,0.795,5.787,2.297,7.515c1.5,1.728,3.65,2.593,6.449,2.593
		c1.361,0,2.56-0.095,3.59-0.287c1.035-0.189,2.342-0.599,3.924-1.23v1.98c-1.348,0.585-2.592,0.984-3.734,1.197
		C556.258,644.076,554.997,644.182,553.621,644.182z M552.982,621.33c-2.299,0-4.145,0.757-5.537,2.275
		c-1.393,1.514-2.204,3.701-2.438,6.558h14.766c0-2.769-0.602-4.932-1.803-6.494C556.769,622.111,555.105,621.33,552.982,621.33z"/>
	<path fill="#8D7167" d="M590.447,619.396c3.34,0,5.855,1.052,7.545,3.154c1.694,2.103,2.539,5.175,2.539,9.218
		c0,3.969-0.889,7.031-2.671,9.182c-1.777,2.156-4.279,3.231-7.501,3.231c-1.7,0-3.231-0.352-4.594-1.055s-2.438-1.7-3.229-2.988
		h-0.199l-0.615,3.604h-1.362v-34.189h2.177v8.593c0,1.288-0.03,2.475-0.088,3.557l-0.067,1.869h0.155
		c0.906-1.437,2.002-2.491,3.282-3.164C587.102,619.734,588.645,619.396,590.447,619.396z M590.402,621.374
		c-2.812,0-4.826,0.805-6.043,2.417s-1.822,4.27-1.822,7.978v0.372c0,3.604,0.632,6.189,1.9,7.755
		c1.267,1.568,3.24,2.353,5.922,2.353c2.606,0,4.57-0.913,5.889-2.734c1.318-1.826,1.977-4.422,1.977-7.792
		C598.225,624.825,595.616,621.374,590.402,621.374z"/>
	<path fill="#8D7167" d="M603.146,619.856h2.242l5.053,13.406c1.539,4.114,2.513,6.89,2.922,8.326h0.132
		c0.615-1.89,1.619-4.709,3.011-8.461l5.055-13.271h2.24L613.1,647.609c-0.865,2.255-1.589,3.779-2.174,4.57
		c-0.588,0.791-1.271,1.386-2.056,1.778c-0.784,0.398-1.733,0.595-2.846,0.595c-0.835,0-1.765-0.155-2.79-0.46V652.2
		c0.85,0.236,1.766,0.352,2.746,0.352c0.747,0,1.406-0.176,1.978-0.527s1.088-0.896,1.549-1.637c0.462-0.74,0.996-1.909,1.604-3.516
		c0.608-1.602,1-2.646,1.176-3.13L603.146,619.856z"/>
	<path fill="#8D7167" d="M663.396,643.742h-2.265l-19.028-28.521h-0.176c0.176,3.397,0.264,5.963,0.264,7.69v20.83h-2.153v-32.124
		h2.241l19.008,28.477h0.13c-0.13-2.637-0.197-5.142-0.197-7.515v-20.962h2.177V643.742z"/>
	<path fill="#8D7167" d="M691.697,631.769c0,3.895-0.946,6.938-2.836,9.127c-1.89,2.191-4.496,3.286-7.822,3.286
		c-2.096,0-3.941-0.507-5.537-1.515c-1.596-1.014-2.819-2.461-3.668-4.354c-0.852-1.887-1.276-4.07-1.276-6.545
		c0-3.897,0.945-6.933,2.835-9.11c1.89-2.173,4.482-3.262,7.778-3.262c3.282,0,5.854,1.103,7.725,3.306
		C690.761,624.907,691.697,627.929,691.697,631.769z M672.843,631.769c0,3.279,0.722,5.839,2.166,7.677
		c1.442,1.84,3.481,2.759,6.118,2.759s4.675-0.919,6.118-2.759c1.443-1.838,2.167-4.397,2.167-7.677c0-3.299-0.73-5.854-2.187-7.67
		c-1.458-1.815-3.506-2.725-6.143-2.725s-4.668,0.906-6.099,2.715C673.559,625.897,672.843,628.456,672.843,631.769z"/>
	<path fill="#8D7167" d="M712.812,643.742l-0.548-3.779h-0.176c-1.203,1.538-2.438,2.627-3.705,3.262
		c-1.268,0.64-2.765,0.957-4.492,0.957c-2.343,0-4.168-0.602-5.472-1.802c-1.303-1.2-1.955-2.863-1.955-4.986
		c0-2.332,0.97-4.141,2.91-5.429s4.75-1.971,8.428-2.042l4.55-0.135v-1.582c0-2.269-0.463-3.982-1.386-5.139
		c-0.923-1.159-2.41-1.737-4.461-1.737c-2.212,0-4.504,0.615-6.877,1.846l-0.812-1.89c2.62-1.23,5.213-1.846,7.776-1.846
		c2.622,0,4.583,0.68,5.877,2.045c1.299,1.359,1.945,3.485,1.945,6.369v15.888H712.812z M704.022,642.204
		c2.549,0,4.561-0.729,6.03-2.188c1.475-1.456,2.211-3.481,2.211-6.074v-2.35l-4.177,0.176c-3.354,0.159-5.744,0.684-7.175,1.568
		c-1.426,0.887-2.142,2.269-2.142,4.145c0,1.494,0.458,2.654,1.375,3.482C701.061,641.792,702.353,642.204,704.022,642.204z"/>
	<path fill="#8D7167" d="M738.807,643.742v-15.489c0-2.403-0.507-4.15-1.518-5.243c-1.011-1.091-2.579-1.636-4.702-1.636
		c-2.856,0-4.949,0.721-6.273,2.163c-1.326,1.444-1.988,3.783-1.988,7.021v13.184h-2.176v-34.189h2.176v10.878l-0.108,3.053h0.152
		c0.893-1.437,2.021-2.475,3.384-3.12s3.056-0.967,5.077-0.967c5.419,0,8.128,2.907,8.128,8.722v15.624H738.807z"/>
	<path fill="#8D7167" d="M784.288,643.742h-2.263l-19.028-28.521h-0.176c0.176,3.397,0.264,5.963,0.264,7.69v20.83h-2.153v-32.124
		h2.241l19.006,28.477h0.134c-0.134-2.637-0.199-5.142-0.199-7.515v-20.962h2.175V643.742z"/>
	<path fill="#8D7167" d="M802.481,644.182c-3.47,0-6.178-1.068-8.117-3.208c-1.941-2.14-2.911-5.135-2.911-8.988
		c0-3.807,0.937-6.858,2.812-9.151c1.873-2.291,4.401-3.438,7.579-3.438c2.812,0,5.031,0.98,6.659,2.944
		c1.624,1.964,2.438,4.628,2.438,7.998v1.758h-17.203c0.027,3.282,0.794,5.787,2.296,7.515c1.5,1.728,3.65,2.593,6.447,2.593
		c1.364,0,2.562-0.095,3.592-0.287c1.035-0.189,2.343-0.599,3.925-1.23v1.98c-1.349,0.585-2.595,0.984-3.737,1.197
		C805.118,644.076,803.859,644.182,802.481,644.182z M801.845,621.33c-2.299,0-4.145,0.757-5.537,2.275
		c-1.393,1.514-2.204,3.701-2.439,6.558h14.766c0-2.769-0.6-4.932-1.8-6.494C805.631,622.111,803.968,621.33,801.845,621.33z"/>
	<path fill="#8D7167" d="M832.343,637.522c0,2.14-0.812,3.786-2.439,4.936c-1.624,1.149-3.933,1.724-6.921,1.724
		c-3.194,0-5.727-0.49-7.603-1.474v-2.35c2.403,1.2,4.936,1.802,7.603,1.802c2.359,0,4.147-0.392,5.371-1.177
		c1.224-0.783,1.836-1.825,1.836-3.13c0-1.2-0.487-2.211-1.46-3.032c-0.975-0.821-2.576-1.626-4.803-2.417
		c-2.388-0.865-4.064-1.608-5.031-2.231c-0.967-0.621-1.697-1.324-2.188-2.109c-0.49-0.783-0.733-1.737-0.733-2.866
		c0-1.788,0.75-3.201,2.252-4.239c1.5-1.041,3.6-1.562,6.294-1.562c2.579,0,5.023,0.483,7.339,1.45l-0.813,1.978
		c-2.344-0.967-4.518-1.45-6.525-1.45c-1.947,0-3.494,0.321-4.637,0.967s-1.712,1.538-1.712,2.681c0,1.244,0.442,2.241,1.329,2.988
		c0.885,0.747,2.616,1.582,5.195,2.505c2.153,0.777,3.722,1.478,4.702,2.1s1.717,1.328,2.207,2.119S832.343,636.454,832.343,637.522
		z"/>
	<path fill="#8D7167" d="M838.188,613.224c0-1.406,0.463-2.109,1.384-2.109c0.455,0,0.81,0.183,1.067,0.548
		c0.256,0.365,0.385,0.886,0.385,1.562c0,0.656-0.129,1.177-0.385,1.559c-0.258,0.382-0.612,0.571-1.067,0.571
		C838.65,615.354,838.188,614.644,838.188,613.224z M840.672,643.742h-2.177v-23.886h2.177V643.742z"/>
	<path fill="#8D7167" d="M865.323,643.742v-15.489c0-2.403-0.505-4.15-1.516-5.243c-1.011-1.091-2.579-1.636-4.702-1.636
		c-2.856,0-4.949,0.721-6.273,2.163c-1.326,1.444-1.988,3.783-1.988,7.021v13.184h-2.174v-23.886h1.846l0.416,3.275h0.132
		c1.552-2.491,4.313-3.735,8.283-3.735c5.421,0,8.132,2.907,8.132,8.722v15.624H865.323z"/>
	<path fill="#8D7167" d="M877.694,638.513l0.264,0.463c-1.099,3.881-2.373,7.403-3.823,10.567h-1.429
		c1.128-4.029,1.934-7.704,2.419-11.03H877.694z"/>
	<path fill="#8D7167" d="M911.248,643.742l-11.977-29.663h-0.176c0.118,1.815,0.176,3.678,0.176,5.581v24.082h-2.153v-32.124h3.472
		l11.382,28.257h0.132l11.382-28.257h3.384v32.124h-2.262v-24.346c0-1.7,0.088-3.458,0.264-5.273h-0.176l-12.021,29.619H911.248z"/>
	<path fill="#8D7167" d="M960.333,627.374c0,5.389-1.414,9.466-4.24,12.228s-6.98,4.141-12.459,4.141h-7.688v-32.124h8.678
		c5.128,0,9.025,1.342,11.699,4.02C958.996,618.321,960.333,622.229,960.333,627.374z M957.895,627.462
		c0-4.601-1.17-8.062-3.506-10.385c-2.336-2.321-5.767-3.481-10.293-3.481h-5.911v28.169h5.319
		C953.098,641.765,957.895,636.995,957.895,627.462z"/>
</g>
</svg>
