<?xml version="1.0" encoding="utf-8"?>
<!-- Generator: Adobe Illustrator 16.0.4, SVG Export Plug-In . SVG Version: 6.00 Build 0)  -->
<!DOCTYPE svg PUBLIC "-//W3C//DTD SVG 1.1//EN" "http://www.w3.org/Graphics/SVG/1.1/DTD/svg11.dtd">
<svg version="1.1" id="PCHC_Logo" xmlns="http://www.w3.org/2000/svg" xmlns:xlink="http://www.w3.org/1999/xlink" x="0px" y="0px"
	 width="1023.856px" height="658.474px" viewBox="28.066 27.137 1023.856 658.474"
	 enable-background="new 28.066 27.137 1023.856 658.474" xml:space="preserve">
<g id="Logo">
	
		<linearGradient id="Swoosh_1_" gradientUnits="userSpaceOnUse" x1="539.9941" y1="212.8398" x2="539.9941" y2="696.6367" gradientTransform="matrix(1 0 0 -1 0 718.9824)">
		<stop  offset="0" style="stop-color:#6D4C39"/>
		<stop  offset="1" style="stop-color:#8C7167"/>
	</linearGradient>
	<path id="Swoosh" fill="url(#Swoosh_1_)" d="M540.002,27.137c-282.292,0-511.936,122.103-511.936,272.191
		c0,75.142,61.905,148.136,170.011,200.738c0.015-0.029,0.044-0.043,0.073-0.06C106.641,451.99,79.072,374.294,79.072,305.839
		c0-134.715,198.15-236.31,460.93-236.31c262.764,0,460.915,101.595,460.915,236.31c0,68.396-29.033,146.283-120.645,194.286
		c0.189,0.162,0.396,0.308,0.57,0.469c108.766-52.632,171.08-125.875,171.08-201.266C1051.924,149.239,822.28,27.137,540.002,27.137
		z"/>
	<g id="PCHC">
		
			<linearGradient id="SVGID_1_" gradientUnits="userSpaceOnUse" x1="237.5479" y1="324.21" x2="237.5477" y2="517.1846" gradientTransform="matrix(1 0 0 -1 0 718.9824)">
			<stop  offset="0" style="stop-color:#212058"/>
			<stop  offset="0.0693" style="stop-color:#24235F"/>
			<stop  offset="0.2522" style="stop-color:#2A2B6F"/>
			<stop  offset="0.437" style="stop-color:#2D2F7B"/>
			<stop  offset="0.6229" style="stop-color:#2F3282"/>
			<stop  offset="0.8118" style="stop-color:#2F3384"/>
		</linearGradient>
		<path fill="url(#SVGID_1_)" d="M285.294,213.318c-4.307-3.749-10.21-6.605-17.695-8.568c-7.485-1.971-17.886-2.952-31.172-2.952
			c-6.753,0-13.623,0.234-20.654,0.703c-7.017,0.469-13.813,0.703-20.361,0.703c-4.688,0-8.892-0.146-12.642-0.425
			c-3.75-0.279-7.207-0.601-10.386-0.981c0.747,12.173,1.304,24.295,1.685,36.372c0.366,12.085,0.557,25.898,0.557,41.434v38.207
			c0,15.541-0.19,29.355-0.557,41.426c-0.381,12.069-0.938,23.92-1.685,35.536c3.179-0.381,6.636-0.569,10.386-0.569
			s7.954,0,12.642,0s8.892,0,12.642,0s7.207,0.188,10.4,0.569c-0.952-13.666-1.553-27.479-1.831-41.438
			c-0.278-13.946-0.425-27.936-0.425-41.997h14.326c10.488,0,20.127-1.114,28.931-3.358c8.804-2.249,16.436-5.757,22.896-10.54
			c6.46-4.774,11.47-10.993,15.03-18.677c3.545-7.676,5.332-16.853,5.332-27.524c0-8.431-1.406-15.638-4.219-21.636
			C295.695,223.616,291.286,218.183,285.294,213.318z M254.4,277.354c-2.622,5.435-5.991,9.603-10.107,12.503
			c-4.131,2.9-8.672,4.826-13.623,5.757c-4.966,0.938-9.785,1.406-14.473,1.406c0-13.11,0.044-26.17,0.146-39.185
			c0.088-13.016,0.234-26.266,0.425-39.749c0.732-0.184,1.582-0.278,2.52-0.278s1.875,0,2.812,0h6.46
			c3.926,0,7.72,0.659,11.367,1.97c3.662,1.305,6.841,3.414,9.551,6.314c2.725,2.907,4.878,6.796,6.46,11.66
			c1.597,4.87,2.402,10.854,2.402,17.974C258.341,264.721,257.022,271.928,254.4,277.354z"/>
		
			<linearGradient id="SVGID_2_" gradientUnits="userSpaceOnUse" x1="409.5859" y1="320.562" x2="409.5859" y2="520.8403" gradientTransform="matrix(1 0 0 -1 0 718.9824)">
			<stop  offset="0" style="stop-color:#212058"/>
			<stop  offset="0.0693" style="stop-color:#24235F"/>
			<stop  offset="0.2522" style="stop-color:#2A2B6F"/>
			<stop  offset="0.437" style="stop-color:#2D2F7B"/>
			<stop  offset="0.6229" style="stop-color:#2F3282"/>
			<stop  offset="0.8118" style="stop-color:#2F3384"/>
		</linearGradient>
		<path fill="url(#SVGID_2_)" d="M392.038,236.067c6.182-6.928,13.052-12.084,20.64-15.446c7.588-3.376,15.117-5.062,22.617-5.062
			c10.107,0,18.911,1.927,26.396,5.757c7.484,3.846,14.795,10.254,21.914,19.241h3.926c0.381-4.863,1.084-9.683,2.108-14.465
			c1.025-4.776,2.49-9.5,4.352-14.181c-3.179-1.875-7.062-3.654-11.646-5.339c-4.6-1.685-9.419-3.135-14.473-4.358
			c-5.054-1.208-10.298-2.197-15.732-2.943c-5.435-0.748-10.575-1.129-15.438-1.129c-14.795,0-28.945,1.971-42.422,5.903
			c-13.478,3.926-25.328,10.159-35.523,18.677c-10.21,8.526-18.354,19.57-24.448,33.15c-6.079,13.579-9.126,30.103-9.126,49.569
			c0,13.305,2.345,25.668,7.031,37.079c4.673,11.426,11.455,21.299,20.361,29.635c8.892,8.334,19.746,14.794,32.578,19.379
			c12.817,4.6,27.393,6.887,43.682,6.887c23.027,0,42.129-3.839,57.291-11.515c0.381-3.941,1.128-7.91,2.256-11.938
			c1.128-4.027,2.433-8.013,3.926-11.939l-3.646-2.239c-3.003,3.178-6.504,6.078-10.533,8.7c-4.029,2.621-8.276,4.818-12.773,6.607
			c-4.496,1.771-9.081,3.178-13.77,4.202c-4.688,1.04-9.271,1.554-13.77,1.554c-8.058,0-16.056-1.494-24.01-4.498
			c-7.954-3.002-15.072-7.732-21.343-14.18c-6.284-6.475-11.382-14.795-15.322-25.005c-3.926-10.209-5.889-22.514-5.889-36.939
			c0-14.978,1.919-27.854,5.757-38.62C380.846,251.844,385.856,242.996,392.038,236.067z"/>
		
			<linearGradient id="SVGID_3_" gradientUnits="userSpaceOnUse" x1="618.9868" y1="324.2104" x2="618.9868" y2="517.1851" gradientTransform="matrix(1 0 0 -1 0 718.9824)">
			<stop  offset="0" style="stop-color:#212058"/>
			<stop  offset="0.0693" style="stop-color:#24235F"/>
			<stop  offset="0.2522" style="stop-color:#2A2B6F"/>
			<stop  offset="0.437" style="stop-color:#2D2F7B"/>
			<stop  offset="0.6229" style="stop-color:#2F3282"/>
			<stop  offset="0.8118" style="stop-color:#2F3384"/>
		</linearGradient>
		<path fill="url(#SVGID_3_)" d="M703.817,238.17c0.381-12.077,0.938-24.199,1.686-36.372c-3.18,0.381-6.65,0.703-10.387,0.981
			c-3.75,0.278-7.969,0.425-12.643,0.425c-4.688,0-8.891-0.146-12.641-0.425c-3.75-0.279-7.207-0.601-10.387-0.981
			c0.748,12.173,1.305,24.199,1.67,36.094c0.381,11.895,0.57,25.606,0.57,41.155c-5.434,0.184-11.338,0.33-17.695,0.417
			c-6.371,0.096-14.605,0.14-24.727,0.14c-10.107,0-18.572-0.044-25.416-0.14c-6.84-0.087-12.686-0.233-17.547-0.417
			c0-15.549,0.131-29.261,0.408-41.155c0.293-11.895,0.895-23.921,1.832-36.094c-3.18,0.381-6.652,0.703-10.387,0.981
			c-3.75,0.278-7.969,0.425-12.643,0.425c-4.688,0-8.904-0.146-12.641-0.425c-3.75-0.278-7.208-0.601-10.401-0.981
			c0.747,12.173,1.318,24.295,1.699,36.372c0.366,12.085,0.557,25.898,0.557,41.434v38.207c0,15.541-0.189,29.355-0.557,41.426
			c-0.381,12.069-0.952,23.92-1.699,35.536c3.193-0.381,6.65-0.569,10.401-0.569c3.734,0,7.953,0,12.641,0c4.674,0,8.893,0,12.643,0
			c3.734,0,7.207,0.188,10.387,0.569c-0.748-11.615-1.305-23.467-1.686-35.536c-0.383-12.07-0.557-25.885-0.557-41.426v-16.015
			c7.104-0.374,14.225-0.652,21.342-0.843c7.119-0.183,14.225-0.285,21.344-0.285s14.236,0.146,21.357,0.425
			c7.105,0.278,14.225,0.52,21.344,0.703v16.015c0,15.541-0.189,29.355-0.57,41.426c-0.365,12.069-0.924,23.92-1.67,35.536
			c3.178-0.381,6.635-0.569,10.385-0.569s7.953,0,12.643,0c4.674,0,8.893,0,12.643,0c3.734,0,7.205,0.188,10.385,0.569
			c-0.746-11.615-1.303-23.467-1.684-35.536c-0.367-12.07-0.559-25.885-0.559-41.426v-38.207
			C703.26,264.068,703.45,250.255,703.817,238.17z"/>
		
			<linearGradient id="SVGID_4_" gradientUnits="userSpaceOnUse" x1="829.5229" y1="320.562" x2="829.5229" y2="520.8403" gradientTransform="matrix(1 0 0 -1 0 718.9824)">
			<stop  offset="0" style="stop-color:#212058"/>
			<stop  offset="0.0693" style="stop-color:#24235F"/>
			<stop  offset="0.2522" style="stop-color:#2A2B6F"/>
			<stop  offset="0.437" style="stop-color:#2D2F7B"/>
			<stop  offset="0.6229" style="stop-color:#2F3282"/>
			<stop  offset="0.8118" style="stop-color:#2F3384"/>
		</linearGradient>
		<path fill="url(#SVGID_4_)" d="M898.055,369.489c-4.027,2.621-8.291,4.818-12.771,6.607c-4.498,1.771-9.1,3.178-13.771,4.202
			c-4.688,1.04-9.27,1.554-13.77,1.554c-8.043,0-16.055-1.494-24.008-4.498c-7.973-3.002-15.074-7.732-21.359-14.18
			c-6.27-6.475-11.367-14.795-15.307-25.005c-3.926-10.209-5.891-22.514-5.891-36.939c0-14.978,1.918-27.854,5.758-38.62
			c3.838-10.768,8.848-19.615,15.029-26.544c6.182-6.928,13.051-12.084,20.639-15.446c7.59-3.376,15.119-5.062,22.619-5.062
			c10.107,0,18.91,1.927,26.396,5.757c7.484,3.846,14.795,10.254,21.914,19.241h3.926c0.381-4.863,1.084-9.683,2.109-14.465
			c1.023-4.776,2.475-9.5,4.365-14.181c-3.195-1.875-7.076-3.654-11.66-5.339c-4.602-1.685-9.42-3.135-14.475-4.358
			c-5.053-1.208-10.297-2.197-15.73-2.943c-5.438-0.748-10.576-1.129-15.441-1.129c-14.795,0-28.93,1.971-42.422,5.903
			c-13.477,3.926-25.328,10.159-35.521,18.677c-10.209,8.526-18.369,19.57-24.447,33.15c-6.08,13.579-9.127,30.103-9.127,49.569
			c0,13.305,2.344,25.668,7.018,37.079c4.688,11.426,11.469,21.299,20.361,29.635c8.906,8.334,19.76,14.794,32.592,19.379
			c12.818,4.6,27.395,6.887,43.668,6.887c23.043,0,42.145-3.839,57.318-11.515c0.367-3.941,1.115-7.91,2.242-11.938
			c1.129-4.027,2.432-8.013,3.926-11.938l-3.646-2.24C905.584,363.967,902.083,366.867,898.055,369.489z"/>
	</g>
</g>
<g>
	<path fill="#BE1E2D" d="M181.156,550.11c-0.172-4.011-0.3-7.553-0.384-10.624c2.388,0.428,4.308,0.64,5.76,0.64
		c1.45,0,3.37-0.212,5.76-0.64c9.3,10.326,18.496,20.479,27.584,30.464c9.088,9.983,18.41,20.14,27.968,30.464v-11.136v-12.416
		c0-4.181-0.022-8.298-0.064-12.353c-0.044-4.052-0.086-7.786-0.128-11.2c-0.044-3.411-0.128-6.355-0.256-8.832
		c-0.128-2.474-0.278-4.138-0.448-4.991c2.388,0.428,4.308,0.64,5.76,0.64c1.45,0,3.37-0.212,5.76-0.64
		c-0.428,7.766-0.768,14.783-1.024,21.056c-0.256,6.272-0.47,12.182-0.64,17.728c-0.172,5.549-0.278,11.03-0.32,16.448
		c-0.044,5.42-0.064,11.2-0.064,17.345v15.359c-1.708-0.172-3.456-0.256-5.248-0.256c-1.878,0-3.542,0.084-4.992,0.256
		c-17.58-20.479-36.224-41.088-55.936-61.824c-0.086,2.477-0.15,4.95-0.192,7.425c-0.044,2.476-0.064,4.991-0.064,7.552v14.848
		c0,5.12,0.02,9.472,0.064,13.056c0.042,3.585,0.106,6.614,0.192,9.089c0.084,2.476,0.17,4.502,0.256,6.08
		c0.084,1.579,0.17,2.838,0.256,3.775c-1.024-0.172-2.048-0.256-3.072-0.256s-2.006,0-2.944,0c-1.964,0-3.926,0.084-5.888,0.256
		c0.17-0.682,0.384-3.114,0.64-7.296c0.256-4.18,0.532-9.28,0.832-15.296c0.298-6.016,0.554-12.544,0.768-19.584
		c0.212-7.04,0.32-13.802,0.32-20.288C181.412,559.07,181.326,554.122,181.156,550.11z"/>
	<path fill="#BE1E2D" d="M275.3,583.39c1.748-4.266,4.074-7.827,6.976-10.688c2.9-2.858,6.25-4.992,10.048-6.4
		c3.796-1.408,7.7-2.111,11.712-2.111c9.984,0,17.706,2.815,23.168,8.447c5.46,5.632,8.192,13.271,8.192,22.912
		c0,5.206-0.768,9.9-2.304,14.08c-1.536,4.183-3.692,7.744-6.464,10.688c-2.774,2.943-6.08,5.142-9.92,6.592
		c-3.84,1.45-8.064,2.176-12.672,2.176c-3.84,0-7.616-0.512-11.328-1.536c-3.712-1.023-7.062-2.752-10.048-5.184
		c-2.988-2.433-5.398-5.61-7.232-9.536c-1.836-3.924-2.752-8.746-2.752-14.464C272.676,592.65,273.55,587.658,275.3,583.39z
		 M313.636,576.158c-1.878-4.139-4.992-6.208-9.344-6.208c-3.926,0-7.02,2.304-9.28,6.912c-2.262,4.607-3.392,11.819-3.392,21.632
		c0,3.584,0.212,6.912,0.64,9.983c0.426,3.072,1.13,5.74,2.112,8c0.98,2.263,2.26,4.032,3.84,5.312
		c1.578,1.28,3.562,1.92,5.952,1.92c8.192,0,12.288-10.026,12.288-30.08C316.452,586.122,315.512,580.298,313.636,576.158z"/>
	<path fill="#BE1E2D" d="M358.628,566.494c4.138-1.536,8.256-2.304,12.352-2.304c3.412,0,6.548,0.384,9.408,1.151
		c2.858,0.769,5.332,1.984,7.424,3.648c2.09,1.664,3.712,3.819,4.864,6.464c1.152,2.646,1.728,5.846,1.728,9.6
		c0,5.462-0.064,10.519-0.192,15.168c-0.128,4.652-0.192,9.28-0.192,13.889c0,2.048,0.148,3.647,0.448,4.8
		c0.298,1.152,0.746,2.028,1.344,2.624c0.596,0.598,1.386,0.981,2.368,1.151c0.98,0.173,2.112,0.257,3.392,0.257v3.071
		c-2.476,1.024-4.566,1.792-6.272,2.305c-1.708,0.512-3.542,0.768-5.504,0.768c-3.158,0-5.718-0.768-7.68-2.304
		c-1.964-1.536-3.456-3.754-4.48-6.656c-1.964,2.732-4.246,4.908-6.848,6.528c-2.604,1.62-5.868,2.432-9.792,2.432
		c-3.244,0-6.016-0.428-8.32-1.28c-2.304-0.852-4.204-2.067-5.696-3.647c-1.494-1.578-2.582-3.37-3.264-5.376
		c-0.684-2.004-1.024-4.032-1.024-6.08c0-2.816,0.448-5.248,1.344-7.296s2.176-3.796,3.84-5.248c1.664-1.45,3.648-2.666,5.952-3.648
		c2.304-0.979,4.906-1.812,7.808-2.496c3.584-0.852,6.42-1.6,8.512-2.239c2.09-0.641,3.648-1.28,4.672-1.92
		c1.024-0.641,1.684-1.345,1.984-2.112c0.298-0.769,0.448-1.706,0.448-2.816c0-3.071-1.088-5.695-3.264-7.872
		c-2.176-2.176-5.184-3.264-9.024-3.264c-1.452,0-2.944,0.192-4.48,0.576c-1.536,0.384-3.008,0.918-4.416,1.6
		c-1.408,0.685-2.688,1.431-3.84,2.24c-1.152,0.812-2.028,1.686-2.624,2.624h-0.896l-1.664-7.68
		C350.628,570.25,354.488,568.03,358.628,566.494z M377.444,599.582c0.042-1.92,0.064-3.604,0.064-5.056
		c-1.792,1.023-3.692,1.855-5.696,2.496c-2.006,0.64-3.84,1.451-5.504,2.432c-1.664,0.981-3.03,2.326-4.096,4.032
		c-1.068,1.708-1.6,4.182-1.6,7.424c0,3.158,0.66,5.567,1.984,7.231c1.322,1.664,3.092,2.496,5.312,2.496
		c2.816,0,5.098-1.065,6.848-3.199c1.748-2.133,2.624-5.29,2.624-9.473C377.38,604.298,377.4,601.502,377.444,599.582z"/>
	<path fill="#BE1E2D" d="M411.172,552.158c-0.172-6.996-0.428-14.08-0.768-21.248c1.108,0.172,2.516,0.32,4.224,0.448
		c1.706,0.128,3.498,0.191,5.376,0.191c1.876,0,3.668-0.063,5.376-0.191c1.706-0.128,3.114-0.276,4.224-0.448
		c-0.342,7.168-0.598,14.252-0.768,21.248c-0.172,6.998-0.256,14.678-0.256,23.04l0.256,0.256c2.218-3.584,4.928-6.356,8.128-8.32
		c3.2-1.962,6.848-2.943,10.944-2.943c6.4,0,11.328,1.855,14.784,5.567c3.456,3.712,5.184,9.708,5.184,17.984
		c0,4.352-0.086,8.191-0.256,11.52c-0.172,3.328-0.256,6.656-0.256,9.984c0,2.731,0.064,5.696,0.192,8.896
		c0.128,3.2,0.276,6.294,0.448,9.28c-1.11-0.172-2.518-0.256-4.224-0.256c-1.708,0-3.5,0-5.376,0c-1.878,0-3.67,0-5.376,0
		c-1.708,0-3.116,0.084-4.224,0.256c0.596-4.436,0.98-9.664,1.152-15.68c0.17-6.017,0.256-12.906,0.256-20.672
		c0-5.376-0.918-9.322-2.752-11.84c-1.836-2.517-4.416-3.776-7.744-3.776c-3.84,0-6.656,1.664-8.448,4.992
		s-2.688,7.936-2.688,13.823v5.12c0,1.196,0.02,2.925,0.064,5.185c0.042,2.262,0.106,4.735,0.192,7.424
		c0.084,2.688,0.192,5.42,0.32,8.192c0.128,2.773,0.276,5.184,0.448,7.231c-1.11-0.172-2.518-0.256-4.224-0.256
		c-1.708,0-3.5,0-5.376,0c-1.878,0-3.67,0-5.376,0c-1.708,0-3.116,0.084-4.224,0.256c0.34-6.912,0.596-13.866,0.768-20.864
		c0.17-6.995,0.256-14.676,0.256-23.04v-8.319C411.428,566.836,411.342,559.156,411.172,552.158z"/>
	<path fill="#BE1E2D" d="M484.772,556.254c1.45-5.632,2.772-9.897,3.968-12.8c1.194-2.9,2.388-4.778,3.584-5.632
		c1.194-0.853,2.644-1.28,4.352-1.28c1.024,0,2.068,0.172,3.136,0.512c1.066,0.343,2.048,0.832,2.944,1.473
		c0.896,0.64,1.62,1.472,2.176,2.496c0.554,1.023,0.832,2.176,0.832,3.455c0,0.513-0.064,1.068-0.192,1.664
		c-0.128,0.599-0.47,1.389-1.024,2.368c-0.556,0.982-1.324,2.284-2.304,3.904c-0.982,1.622-2.348,3.67-4.096,6.144
		c-1.75,2.477-3.884,5.484-6.4,9.024c-2.518,3.542-5.568,7.788-9.152,12.736l-3.2-1.28
		C481.528,569.482,483.32,561.886,484.772,556.254z"/>
	<path fill="#BE1E2D" d="M509.413,615.582c0.81,1.238,1.812,2.348,3.008,3.328c1.194,0.981,2.624,1.771,4.288,2.368
		c1.664,0.598,3.604,0.896,5.824,0.896c2.986,0,5.29-0.768,6.912-2.304c1.62-1.536,2.432-3.2,2.432-4.992
		c0-1.962-0.726-3.54-2.176-4.736c-1.452-1.193-3.264-2.281-5.44-3.264c-2.176-0.979-4.544-1.984-7.104-3.008
		c-2.56-1.024-4.928-2.324-7.104-3.904c-2.176-1.578-3.99-3.562-5.44-5.952c-1.452-2.388-2.176-5.46-2.176-9.216
		c0-3.584,0.66-6.676,1.984-9.28c1.322-2.602,3.05-4.735,5.184-6.399c2.132-1.664,4.544-2.9,7.232-3.712
		c2.688-0.811,5.354-1.216,8-1.216c3.584,0,6.762,0.512,9.536,1.535c2.772,1.024,5.61,2.519,8.513,4.48
		c-0.769,1.708-1.408,3.542-1.92,5.504c-0.513,1.964-0.896,3.884-1.153,5.76h-3.584c-0.256-1.023-0.684-2.153-1.28-3.392
		c-0.598-1.236-1.408-2.41-2.432-3.521c-1.024-1.107-2.262-2.025-3.712-2.752c-1.452-0.724-3.2-1.088-5.248-1.088
		c-2.56,0-4.716,0.685-6.464,2.048c-1.75,1.366-2.624,3.158-2.624,5.376c0,2.049,0.746,3.692,2.24,4.929
		c1.492,1.237,3.348,2.326,5.568,3.264c2.218,0.94,4.65,1.878,7.296,2.816c2.644,0.939,5.076,2.155,7.296,3.647
		c2.218,1.494,4.074,3.437,5.567,5.824c1.492,2.39,2.24,5.462,2.24,9.216c0,3.756-0.684,6.977-2.047,9.664
		c-1.367,2.688-3.201,4.908-5.505,6.656c-2.304,1.75-4.928,3.008-7.872,3.775c-2.944,0.769-6.038,1.152-9.28,1.152
		c-3.84,0-7.296-0.556-10.368-1.664c-3.072-1.107-5.504-2.26-7.296-3.456c1.024-4.096,1.664-8.191,1.92-12.288h3.2
		C507.941,613.044,508.601,614.346,509.413,615.582z"/>
	<path fill="#BE1E2D" d="M596.26,550.11c-0.172-4.011-0.301-7.553-0.385-10.624c2.389,0.428,4.309,0.64,5.76,0.64
		c1.45,0,3.371-0.212,5.76-0.64c9.301,10.326,18.496,20.479,27.584,30.464c9.089,9.983,18.41,20.14,27.969,30.464v-11.136v-12.416
		c0-4.181-0.021-8.298-0.064-12.353c-0.043-4.052-0.086-7.786-0.127-11.2c-0.045-3.411-0.129-6.355-0.257-8.832
		c-0.128-2.474-0.278-4.138-0.448-4.991c2.389,0.428,4.309,0.64,5.76,0.64s3.371-0.212,5.761-0.64
		c-0.429,7.766-0.769,14.783-1.024,21.056s-0.47,12.182-0.64,17.728c-0.172,5.549-0.278,11.03-0.319,16.448
		c-0.045,5.42-0.064,11.2-0.064,17.345v15.359c-1.708-0.172-3.456-0.256-5.248-0.256c-1.879,0-3.542,0.084-4.992,0.256
		c-17.58-20.479-36.225-41.088-55.936-61.824c-0.086,2.477-0.15,4.95-0.192,7.425c-0.044,2.476-0.063,4.991-0.063,7.552v14.848
		c0,5.12,0.02,9.472,0.063,13.056c0.042,3.585,0.106,6.614,0.192,9.089c0.084,2.476,0.17,4.502,0.256,6.08
		c0.084,1.579,0.17,2.838,0.256,3.775c-1.024-0.172-2.049-0.256-3.072-0.256s-2.006,0-2.943,0c-1.965,0-3.927,0.084-5.889,0.256
		c0.17-0.682,0.385-3.114,0.641-7.296c0.256-4.18,0.531-9.28,0.832-15.296c0.297-6.016,0.553-12.544,0.768-19.584
		c0.212-7.04,0.32-13.802,0.32-20.288C596.516,559.07,596.43,554.122,596.26,550.11z"/>
	<path fill="#BE1E2D" d="M690.404,583.39c1.748-4.266,4.073-7.827,6.976-10.688c2.9-2.858,6.25-4.992,10.049-6.4
		c3.795-1.408,7.699-2.111,11.711-2.111c9.984,0,17.707,2.815,23.168,8.447s8.192,13.271,8.192,22.912
		c0,5.206-0.769,9.9-2.304,14.08c-1.536,4.183-3.691,7.744-6.465,10.688c-2.773,2.943-6.079,5.142-9.92,6.592
		c-3.84,1.45-8.063,2.176-12.672,2.176c-3.84,0-7.615-0.512-11.328-1.536c-3.711-1.023-7.062-2.752-10.047-5.184
		c-2.988-2.433-5.398-5.61-7.232-9.536c-1.836-3.924-2.752-8.746-2.752-14.464C687.78,592.65,688.654,587.658,690.404,583.39z
		 M728.74,576.158c-1.878-4.139-4.992-6.208-9.345-6.208c-3.926,0-7.02,2.304-9.279,6.912c-2.262,4.607-3.393,11.819-3.393,21.632
		c0,3.584,0.213,6.912,0.641,9.983c0.426,3.072,1.13,5.74,2.111,8c0.98,2.263,2.261,4.032,3.84,5.312
		c1.578,1.28,3.562,1.92,5.953,1.92c8.191,0,12.287-10.026,12.287-30.08C731.555,586.122,730.616,580.298,728.74,576.158z"/>
	<path fill="#BE1E2D" d="M794.788,569.95c0,1.109,0.129,2.176,0.385,3.2l-11.266-0.257c-0.172,1.965-0.318,4.225-0.447,6.784
		c-0.127,2.561-0.213,5.164-0.256,7.809c-0.045,2.646-0.086,5.206-0.129,7.68c-0.043,2.476-0.062,4.566-0.062,6.272
		c0,4.438,0.105,8.021,0.32,10.752c0.211,2.731,0.574,4.821,1.088,6.271c0.512,1.452,1.234,2.432,2.176,2.944
		c0.938,0.512,2.131,0.768,3.584,0.768c1.619,0,2.816-0.105,3.584-0.319c0.768-0.213,1.535-0.532,2.303-0.961v5.248
		c-1.707,0.769-3.84,1.45-6.398,2.049c-2.561,0.596-5.078,0.896-7.553,0.896c-10.838,0-16.256-6.484-16.256-19.456
		c0-2.474,0.042-5.268,0.128-8.384c0.084-3.114,0.192-6.314,0.319-9.6c0.129-3.284,0.234-6.528,0.32-9.729
		c0.084-3.2,0.129-6.164,0.129-8.896l-8.961,0.128c0.256-1.024,0.385-2.091,0.385-3.2c0-1.024-0.129-2.176-0.385-3.456l8.961,0.384
		c0-2.644-0.045-5.12-0.129-7.424c-0.086-2.304-0.214-5.076-0.384-8.32c2.985-1.193,5.931-2.452,8.831-3.775
		c2.9-1.322,5.803-2.708,8.705-4.16l1.279,0.896c-0.172,1.366-0.32,2.966-0.447,4.8c-0.129,1.837-0.256,3.757-0.385,5.761
		c-0.127,2.006-0.213,4.054-0.256,6.144c-0.043,2.092-0.064,4.076-0.064,5.952l11.266-0.256
		C794.917,567.774,794.788,568.926,794.788,569.95z"/>
	<path fill="#BE1E2D" d="M821.539,606.43c0.682,2.988,1.728,5.568,3.136,7.744s3.2,3.884,5.376,5.12
		c2.176,1.238,4.714,1.856,7.616,1.856c5.888,0,11.136-1.92,15.744-5.761l1.535,1.152l-2.815,7.168
		c-2.134,1.622-4.694,2.924-7.681,3.904c-2.987,0.979-6.911,1.472-11.775,1.472c-4.182,0-8.15-0.576-11.904-1.728
		c-3.756-1.152-7.062-3.051-9.92-5.696c-2.86-2.645-5.12-5.994-6.784-10.048c-1.664-4.052-2.496-8.896-2.496-14.528
		c0-5.546,0.746-10.368,2.24-14.464c1.492-4.096,3.562-7.508,6.208-10.24c2.645-2.729,5.78-4.777,9.408-6.144
		c3.626-1.364,7.572-2.048,11.84-2.048c8.448,0,14.912,2.476,19.392,7.424c4.48,4.95,6.721,11.948,6.721,20.992v2.688
		c0,0.769-0.044,1.28-0.128,1.536h-36.736C820.514,600.244,820.854,603.444,821.539,606.43z M837.858,575.71
		c-1.408-3.84-3.775-5.76-7.104-5.76c-1.878,0-3.456,0.64-4.736,1.92s-2.304,2.924-3.072,4.928
		c-0.768,2.006-1.344,4.269-1.728,6.784c-0.384,2.518-0.62,5.014-0.704,7.488h19.712C840.054,584.67,839.266,579.55,837.858,575.71z
		"/>
	<path fill="#BE1E2D" d="M872.163,615.582c0.81,1.238,1.812,2.348,3.008,3.328c1.193,0.981,2.624,1.771,4.288,2.368
		c1.664,0.598,3.604,0.896,5.823,0.896c2.986,0,5.29-0.768,6.912-2.304c1.62-1.536,2.433-3.2,2.433-4.992
		c0-1.962-0.727-3.54-2.177-4.736c-1.451-1.193-3.264-2.281-5.439-3.264c-2.176-0.979-4.544-1.984-7.104-3.008
		c-2.56-1.024-4.928-2.324-7.104-3.904c-2.176-1.578-3.99-3.562-5.44-5.952c-1.451-2.388-2.176-5.46-2.176-9.216
		c0-3.584,0.66-6.676,1.984-9.28c1.322-2.602,3.05-4.735,5.184-6.399c2.132-1.664,4.544-2.9,7.232-3.712
		c2.688-0.811,5.354-1.216,8-1.216c3.584,0,6.762,0.512,9.536,1.535c2.771,1.024,5.609,2.519,8.512,4.48
		c-0.769,1.708-1.408,3.542-1.92,5.504c-0.512,1.964-0.896,3.884-1.152,5.76h-3.584c-0.256-1.023-0.684-2.153-1.28-3.392
		c-0.598-1.236-1.407-2.41-2.432-3.521c-1.023-1.107-2.262-2.025-3.712-2.752c-1.452-0.724-3.2-1.088-5.248-1.088
		c-2.56,0-4.716,0.685-6.464,2.048c-1.75,1.366-2.624,3.158-2.624,5.376c0,2.049,0.746,3.692,2.24,4.929
		c1.491,1.237,3.348,2.326,5.567,3.264c2.219,0.94,4.65,1.878,7.296,2.816c2.645,0.939,5.076,2.155,7.297,3.647
		c2.218,1.494,4.073,3.437,5.567,5.824c1.492,2.39,2.24,5.462,2.24,9.216c0,3.756-0.684,6.977-2.048,9.664
		c-1.366,2.688-3.2,4.908-5.504,6.656c-2.305,1.75-4.929,3.008-7.872,3.775c-2.944,0.769-6.038,1.152-9.28,1.152
		c-3.84,0-7.296-0.556-10.368-1.664c-3.072-1.107-5.504-2.26-7.296-3.456c1.024-4.096,1.664-8.191,1.92-12.288h3.2
		C870.69,613.044,871.35,614.346,872.163,615.582z"/>
</g>
<g>
	<path fill="#8D7167" d="M174.036,650.012h21.32v0.8h-10.28v27.76h-0.8v-27.76h-10.24V650.012z"/>
	<path fill="#8D7167" d="M197.676,650.012v13.079h0.08c0.186-0.8,0.486-1.532,0.9-2.199c0.413-0.667,0.933-1.254,1.56-1.761
		c0.626-0.506,1.353-0.899,2.18-1.18c0.826-0.28,1.746-0.42,2.76-0.42c1.066,0,2.046,0.16,2.94,0.48
		c0.893,0.319,1.667,0.793,2.32,1.42c0.653,0.627,1.16,1.399,1.52,2.319c0.36,0.92,0.54,1.98,0.54,3.181v13.64h-0.8v-13.52
		c0-1.2-0.174-2.221-0.52-3.061c-0.347-0.84-0.82-1.533-1.42-2.08c-0.6-0.546-1.294-0.946-2.08-1.2c-0.787-0.253-1.62-0.38-2.5-0.38
		c-1.227,0-2.307,0.234-3.24,0.7c-0.934,0.467-1.714,1.094-2.34,1.88c-0.627,0.787-1.1,1.7-1.42,2.74s-0.48,2.134-0.48,3.28v11.64
		h-0.8v-28.56H197.676z"/>
	<path fill="#8D7167" d="M216.396,664.231c0.4-1.293,0.993-2.434,1.78-3.42c0.786-0.986,1.753-1.78,2.9-2.38
		c1.146-0.601,2.48-0.9,4-0.9c1.493,0,2.813,0.3,3.96,0.9c1.146,0.6,2.113,1.394,2.9,2.38s1.38,2.127,1.78,3.42
		c0.4,1.294,0.6,2.646,0.6,4.06c0,1.414-0.2,2.768-0.6,4.061c-0.4,1.294-0.994,2.434-1.78,3.42s-1.753,1.773-2.9,2.359
		c-1.147,0.587-2.48,0.881-4,0.881c-1.494,0-2.813-0.294-3.96-0.881c-1.147-0.586-2.114-1.373-2.9-2.359
		c-0.787-0.986-1.38-2.126-1.78-3.42c-0.4-1.293-0.6-2.646-0.6-4.061C215.796,666.878,215.996,665.525,216.396,664.231z
		 M217.136,672.052c0.36,1.199,0.9,2.26,1.62,3.18c0.72,0.92,1.606,1.653,2.66,2.2c1.053,0.547,2.273,0.819,3.66,0.819
		c1.36,0,2.566-0.272,3.62-0.819c1.053-0.547,1.94-1.28,2.66-2.2c0.72-0.92,1.26-1.98,1.62-3.18c0.36-1.2,0.54-2.453,0.54-3.761
		c0-1.279-0.18-2.52-0.54-3.72c-0.36-1.2-0.9-2.26-1.62-3.18c-0.72-0.92-1.607-1.66-2.66-2.221c-1.054-0.56-2.26-0.84-3.62-0.84
		c-1.387,0-2.607,0.28-3.66,0.84c-1.054,0.561-1.94,1.301-2.66,2.221c-0.72,0.92-1.26,1.979-1.62,3.18s-0.54,2.44-0.54,3.72
		C216.596,669.599,216.776,670.852,217.136,672.052z"/>
	<path fill="#8D7167" d="M252.436,678.571v-5.08h-0.08c-0.374,1.6-1.194,2.92-2.46,3.96c-1.267,1.04-2.914,1.561-4.94,1.561
		c-1.067,0-2.047-0.154-2.94-0.46c-0.894-0.307-1.667-0.773-2.32-1.4c-0.653-0.626-1.16-1.4-1.52-2.32
		c-0.36-0.92-0.54-1.979-0.54-3.18v-13.64h0.8v13.52c0,1.2,0.173,2.22,0.52,3.06c0.346,0.841,0.82,1.534,1.42,2.08
		c0.6,0.547,1.293,0.947,2.08,1.2c0.786,0.254,1.62,0.38,2.5,0.38c1.226,0,2.306-0.232,3.24-0.699s1.713-1.094,2.34-1.881
		c0.626-0.786,1.1-1.699,1.42-2.739s0.48-2.134,0.48-3.28v-11.64h0.8v20.56H252.436z"/>
	<path fill="#8D7167" d="M273.195,671.691c-0.213,0.907-0.594,1.72-1.14,2.439c-0.547,0.721-1.187,1.327-1.92,1.82
		c-0.734,0.494-1.534,0.867-2.4,1.12c-0.867,0.254-1.74,0.38-2.62,0.38c-1.44,0-2.694-0.267-3.76-0.8
		c-1.067-0.533-1.954-1.246-2.66-2.14s-1.24-1.94-1.6-3.141c-0.36-1.2-0.54-2.453-0.54-3.76c0-1.387,0.186-2.687,0.56-3.9
		c0.373-1.213,0.933-2.279,1.68-3.199c0.747-0.921,1.673-1.646,2.78-2.181c1.106-0.533,2.38-0.8,3.82-0.8
		c0.986,0,1.906,0.153,2.76,0.46c0.853,0.307,1.62,0.727,2.3,1.26c0.68,0.534,1.253,1.16,1.72,1.88
		c0.466,0.721,0.806,1.507,1.02,2.36h0.08v-5.479h0.8v19.88c0,2.826-0.747,4.899-2.24,6.22c-1.494,1.32-3.6,1.979-6.32,1.979
		c-1.04,0-2.027-0.119-2.96-0.359c-0.934-0.24-1.76-0.62-2.48-1.141c-0.72-0.52-1.294-1.187-1.72-2
		c-0.427-0.813-0.654-1.807-0.68-2.979h0.8c0.026,1.013,0.233,1.88,0.62,2.6c0.386,0.721,0.9,1.307,1.54,1.761
		c0.64,0.453,1.38,0.786,2.22,1c0.84,0.213,1.713,0.319,2.62,0.319c2.506,0,4.433-0.594,5.78-1.779
		c1.346-1.188,2.02-3.061,2.02-5.62v-6.2H273.195z M272.735,664.171c-0.333-1.119-0.827-2.112-1.48-2.979
		c-0.654-0.866-1.474-1.561-2.46-2.08c-0.987-0.521-2.12-0.78-3.4-0.78c-1.333,0-2.5,0.247-3.5,0.74c-1,0.494-1.84,1.167-2.52,2.02
		c-0.68,0.854-1.187,1.841-1.52,2.961c-0.333,1.119-0.5,2.307-0.5,3.56c0,1.28,0.167,2.467,0.5,3.56
		c0.333,1.094,0.826,2.047,1.48,2.86c0.653,0.813,1.46,1.454,2.42,1.92c0.96,0.467,2.066,0.7,3.32,0.7c1.333,0,2.506-0.24,3.52-0.72
		c1.013-0.48,1.86-1.127,2.54-1.94c0.68-0.813,1.2-1.773,1.56-2.88c0.36-1.106,0.54-2.273,0.54-3.5
		C273.235,666.438,273.069,665.291,272.735,664.171z"/>
	<path fill="#8D7167" d="M279.196,650.012v13.079h0.08c0.186-0.8,0.486-1.532,0.9-2.199c0.413-0.667,0.933-1.254,1.56-1.761
		c0.626-0.506,1.353-0.899,2.18-1.18c0.826-0.28,1.746-0.42,2.76-0.42c1.066,0,2.046,0.16,2.94,0.48
		c0.893,0.319,1.667,0.793,2.32,1.42c0.653,0.627,1.16,1.399,1.52,2.319c0.36,0.92,0.54,1.98,0.54,3.181v13.64h-0.8v-13.52
		c0-1.2-0.174-2.221-0.52-3.061c-0.347-0.84-0.82-1.533-1.42-2.08c-0.6-0.546-1.294-0.946-2.08-1.2c-0.787-0.253-1.62-0.38-2.5-0.38
		c-1.227,0-2.307,0.234-3.24,0.7c-0.934,0.467-1.714,1.094-2.34,1.88c-0.627,0.787-1.1,1.7-1.42,2.74s-0.48,2.134-0.48,3.28v11.64
		h-0.8v-28.56H279.196z"/>
	<path fill="#8D7167" d="M300.596,674.571c0,0.773,0.086,1.374,0.26,1.8c0.173,0.427,0.393,0.747,0.66,0.96
		c0.267,0.214,0.56,0.34,0.88,0.38c0.32,0.04,0.64,0.061,0.96,0.061c0.4,0,0.76-0.007,1.08-0.021c0.32-0.013,0.546-0.046,0.68-0.1
		v0.8c-0.24,0.027-0.474,0.054-0.7,0.08c-0.227,0.027-0.647,0.04-1.26,0.04c-0.934,0-1.727-0.273-2.38-0.82
		c-0.654-0.546-0.98-1.553-0.98-3.02v-15.92h-3.76v-0.8h3.76v-6.48h0.8v6.48h4.64v0.8h-4.64V674.571z"/>
	<path fill="#8D7167" d="M320.956,661.451c-0.32-0.72-0.774-1.313-1.36-1.78c-0.586-0.466-1.287-0.806-2.1-1.02
		c-0.814-0.213-1.714-0.32-2.7-0.32c-1.44,0-2.574,0.194-3.4,0.58c-0.827,0.387-1.44,0.827-1.84,1.32
		c-0.4,0.493-0.654,0.979-0.76,1.46c-0.107,0.479-0.16,0.813-0.16,1c0,1.014,0.207,1.794,0.62,2.34
		c0.413,0.547,0.966,0.967,1.66,1.26c0.72,0.294,1.5,0.547,2.34,0.761c0.84,0.213,1.82,0.467,2.94,0.76
		c0.8,0.214,1.593,0.434,2.38,0.66c0.786,0.227,1.493,0.54,2.12,0.939c0.626,0.4,1.133,0.907,1.52,1.521
		c0.386,0.613,0.58,1.413,0.58,2.399c0,1.04-0.22,1.92-0.66,2.641c-0.44,0.72-1.014,1.307-1.72,1.76
		c-0.707,0.453-1.507,0.78-2.4,0.979c-0.894,0.2-1.78,0.301-2.66,0.301c-2.747,0-4.82-0.601-6.22-1.801
		c-1.4-1.199-2.1-3.093-2.1-5.68h0.8c0,2.32,0.646,4.021,1.94,5.1c1.293,1.08,3.153,1.62,5.58,1.62c0.746,0,1.513-0.086,2.3-0.26
		c0.787-0.173,1.5-0.453,2.14-0.84s1.167-0.887,1.58-1.5c0.413-0.613,0.62-1.36,0.62-2.24c0-0.906-0.207-1.64-0.62-2.2
		c-0.414-0.56-0.947-1.02-1.6-1.38c-0.654-0.359-1.407-0.646-2.26-0.859c-0.854-0.214-1.72-0.427-2.6-0.641
		c-0.987-0.24-1.854-0.466-2.6-0.68c-0.747-0.213-1.414-0.453-2-0.72c-0.854-0.373-1.48-0.894-1.88-1.561
		c-0.4-0.666-0.6-1.56-0.6-2.68c0-0.561,0.12-1.146,0.36-1.76c0.24-0.613,0.64-1.174,1.2-1.681c0.56-0.506,1.28-0.92,2.16-1.239
		c0.88-0.32,1.96-0.48,3.24-0.48c2.293,0,4.106,0.521,5.44,1.56c1.333,1.04,2,2.707,2,5h-0.8
		C321.436,663.052,321.275,662.171,320.956,661.451z"/>
	<path fill="#8D7167" d="M337.195,664.231c0.4-1.293,0.993-2.434,1.78-3.42c0.786-0.986,1.753-1.78,2.9-2.38
		c1.146-0.601,2.48-0.9,4-0.9c1.493,0,2.813,0.3,3.96,0.9c1.146,0.6,2.113,1.394,2.9,2.38s1.38,2.127,1.78,3.42
		c0.4,1.294,0.6,2.646,0.6,4.06c0,1.414-0.2,2.768-0.6,4.061c-0.4,1.294-0.994,2.434-1.78,3.42s-1.753,1.773-2.9,2.359
		c-1.147,0.587-2.48,0.881-4,0.881c-1.494,0-2.813-0.294-3.96-0.881c-1.147-0.586-2.114-1.373-2.9-2.359
		c-0.787-0.986-1.38-2.126-1.78-3.42c-0.4-1.293-0.6-2.646-0.6-4.061C336.595,666.878,336.795,665.525,337.195,664.231z
		 M337.935,672.052c0.36,1.199,0.9,2.26,1.62,3.18c0.72,0.92,1.606,1.653,2.66,2.2c1.053,0.547,2.273,0.819,3.66,0.819
		c1.36,0,2.566-0.272,3.62-0.819c1.053-0.547,1.94-1.28,2.66-2.2c0.72-0.92,1.26-1.98,1.62-3.18c0.36-1.2,0.54-2.453,0.54-3.761
		c0-1.279-0.18-2.52-0.54-3.72c-0.36-1.2-0.9-2.26-1.62-3.18c-0.72-0.92-1.607-1.66-2.66-2.221c-1.054-0.56-2.26-0.84-3.62-0.84
		c-1.387,0-2.607,0.28-3.66,0.84c-1.054,0.561-1.94,1.301-2.66,2.221c-0.72,0.92-1.26,1.979-1.62,3.18s-0.54,2.44-0.54,3.72
		C337.395,669.599,337.575,670.852,337.935,672.052z"/>
	<path fill="#8D7167" d="M359.235,658.012v5.079h0.08c0.186-0.8,0.486-1.532,0.9-2.199c0.413-0.667,0.933-1.254,1.56-1.761
		c0.626-0.506,1.353-0.899,2.18-1.18c0.826-0.28,1.746-0.42,2.76-0.42c1.066,0,2.046,0.16,2.94,0.48
		c0.893,0.319,1.667,0.793,2.32,1.42c0.653,0.627,1.16,1.399,1.52,2.319c0.36,0.92,0.54,1.98,0.54,3.181v13.64h-0.8v-13.52
		c0-1.2-0.174-2.221-0.52-3.061c-0.347-0.84-0.82-1.533-1.42-2.08c-0.6-0.546-1.294-0.946-2.08-1.2c-0.787-0.253-1.62-0.38-2.5-0.38
		c-1.227,0-2.307,0.234-3.24,0.7c-0.934,0.467-1.714,1.094-2.34,1.88c-0.627,0.787-1.1,1.7-1.42,2.74s-0.48,2.134-0.48,3.28v11.64
		h-0.8v-20.56H359.235z"/>
	<path fill="#8D7167" d="M390.315,678.571h-0.8v-28.56h0.8v13.279h20v-13.279h0.8v28.56h-0.8v-14.48h-20V678.571z"/>
	<path fill="#8D7167" d="M415.575,672.312c0.307,1.187,0.78,2.22,1.42,3.1c0.64,0.88,1.466,1.574,2.48,2.08
		c1.013,0.507,2.253,0.76,3.72,0.76c2.16,0,3.953-0.566,5.38-1.699c1.426-1.134,2.313-2.834,2.66-5.101h0.8
		c-0.293,2.4-1.24,4.26-2.84,5.58s-3.574,1.98-5.92,1.98c-1.6,0.025-2.967-0.228-4.1-0.761c-1.134-0.533-2.06-1.286-2.78-2.26
		c-0.72-0.973-1.254-2.12-1.6-3.439c-0.347-1.32-0.52-2.74-0.52-4.261c0-1.706,0.253-3.226,0.76-4.56c0.506-1.333,1.173-2.46,2-3.38
		s1.787-1.62,2.88-2.101c1.093-0.479,2.213-0.72,3.36-0.72c1.6,0,2.98,0.307,4.14,0.92c1.16,0.614,2.106,1.427,2.84,2.44
		c0.733,1.014,1.266,2.174,1.6,3.479c0.333,1.307,0.473,2.667,0.42,4.08h-17.2C415.101,669.838,415.268,671.125,415.575,672.312z
		 M430.955,664.071c-0.347-1.133-0.86-2.126-1.54-2.98c-0.68-0.853-1.527-1.525-2.54-2.02c-1.014-0.493-2.187-0.74-3.52-0.74
		c-1.12,0-2.167,0.214-3.14,0.641c-0.974,0.427-1.827,1.047-2.56,1.859c-0.733,0.814-1.327,1.794-1.78,2.94
		c-0.454,1.146-0.72,2.439-0.8,3.88h16.4C431.475,666.398,431.301,665.205,430.955,664.071z"/>
	<path fill="#8D7167" d="M436.035,661.671c0.347-0.84,0.847-1.565,1.5-2.18c0.653-0.613,1.453-1.093,2.4-1.439
		c0.946-0.347,2.06-0.521,3.34-0.521c0.906,0,1.766,0.094,2.58,0.28c0.813,0.187,1.526,0.514,2.14,0.979
		c0.613,0.467,1.106,1.074,1.48,1.82c0.373,0.747,0.573,1.68,0.6,2.8v13.08c0,0.4,0.08,0.693,0.24,0.88
		c0.16,0.188,0.373,0.313,0.64,0.38c0.266,0.067,0.553,0.094,0.86,0.08c0.306-0.013,0.593-0.033,0.86-0.06v0.8h-1.2
		c-0.587,0-1.1-0.14-1.54-0.42s-0.66-0.807-0.66-1.58v-2.68h-0.08c-0.214,0.667-0.554,1.307-1.02,1.92
		c-0.467,0.613-1.054,1.16-1.76,1.64c-0.707,0.48-1.514,0.86-2.42,1.14c-0.907,0.28-1.894,0.421-2.96,0.421
		c-2.08,0-3.747-0.46-5-1.381c-1.253-0.92-1.88-2.3-1.88-4.14c0-1.28,0.207-2.307,0.62-3.08c0.413-0.773,0.953-1.38,1.62-1.82
		c0.666-0.439,1.426-0.746,2.28-0.92c0.853-0.173,1.707-0.286,2.56-0.34c1.413-0.08,2.626-0.153,3.64-0.22
		c1.013-0.066,1.846-0.2,2.5-0.4c0.653-0.199,1.133-0.506,1.44-0.92c0.306-0.413,0.46-1.006,0.46-1.779
		c0-0.613-0.054-1.254-0.16-1.921c-0.107-0.666-0.367-1.279-0.78-1.84c-0.414-0.56-1.02-1.02-1.82-1.38
		c-0.8-0.359-1.88-0.54-3.24-0.54c-2.16,0-3.84,0.527-5.04,1.58c-1.2,1.054-1.867,2.54-2,4.46h-0.8
		C435.488,663.411,435.688,662.512,436.035,661.671z M449.195,666.491c-0.267,0.374-0.68,0.66-1.24,0.86s-1.2,0.354-1.92,0.46
		c-0.72,0.106-1.5,0.174-2.34,0.2s-1.66,0.066-2.46,0.119c-0.8,0.054-1.58,0.154-2.34,0.301c-0.76,0.146-1.434,0.413-2.02,0.8
		c-0.587,0.387-1.054,0.92-1.4,1.6c-0.347,0.681-0.52,1.567-0.52,2.66c0,0.587,0.1,1.167,0.3,1.74s0.54,1.08,1.02,1.52
		c0.48,0.44,1.1,0.801,1.86,1.08c0.76,0.28,1.7,0.42,2.82,0.42c1.333,0,2.52-0.226,3.56-0.68c1.04-0.453,1.913-1.046,2.62-1.78
		c0.707-0.732,1.24-1.58,1.6-2.54s0.54-1.946,0.54-2.96v-3.8H449.195z"/>
	<path fill="#8D7167" d="M455.515,650.012v28.56h-0.8v-28.56H455.515z"/>
	<path fill="#8D7167" d="M462.114,674.571c0,0.773,0.086,1.374,0.26,1.8c0.173,0.427,0.393,0.747,0.66,0.96
		c0.267,0.214,0.56,0.34,0.88,0.38c0.32,0.04,0.64,0.061,0.96,0.061c0.4,0,0.76-0.007,1.08-0.021c0.32-0.013,0.546-0.046,0.68-0.1
		v0.8c-0.24,0.027-0.474,0.054-0.7,0.08c-0.227,0.027-0.647,0.04-1.26,0.04c-0.934,0-1.727-0.273-2.38-0.82
		c-0.654-0.546-0.98-1.553-0.98-3.02v-15.92h-3.76v-0.8h3.76v-6.48h0.8v6.48h4.64v0.8h-4.64V674.571z"/>
	<path fill="#8D7167" d="M470.354,650.012v13.079h0.08c0.186-0.8,0.486-1.532,0.9-2.199c0.413-0.667,0.933-1.254,1.56-1.761
		c0.626-0.506,1.353-0.899,2.18-1.18c0.826-0.28,1.746-0.42,2.76-0.42c1.066,0,2.046,0.16,2.94,0.48
		c0.893,0.319,1.667,0.793,2.32,1.42c0.653,0.627,1.16,1.399,1.52,2.319c0.36,0.92,0.54,1.98,0.54,3.181v13.64h-0.8v-13.52
		c0-1.2-0.174-2.221-0.52-3.061c-0.347-0.84-0.82-1.533-1.42-2.08c-0.6-0.546-1.294-0.946-2.08-1.2c-0.787-0.253-1.62-0.38-2.5-0.38
		c-1.227,0-2.307,0.234-3.24,0.7c-0.934,0.467-1.714,1.094-2.34,1.88c-0.627,0.787-1.1,1.7-1.42,2.74s-0.48,2.134-0.48,3.28v11.64
		h-0.8v-28.56H470.354z"/>
	<path fill="#8D7167" d="M523.594,672.151c-0.667,1.454-1.527,2.7-2.58,3.74c-1.054,1.04-2.3,1.854-3.74,2.439
		c-1.44,0.587-3.067,0.88-4.88,0.88c-1.894,0-3.634-0.366-5.22-1.1c-1.587-0.733-2.947-1.746-4.08-3.04
		c-1.134-1.293-2.02-2.84-2.66-4.64c-0.64-1.801-0.96-3.767-0.96-5.9c0-1.733,0.246-3.5,0.74-5.3c0.493-1.8,1.273-3.434,2.34-4.9
		c1.066-1.466,2.453-2.666,4.16-3.6c1.706-0.934,3.773-1.4,6.2-1.4c1.893,0,3.546,0.314,4.96,0.94
		c1.413,0.627,2.593,1.413,3.54,2.359c0.946,0.947,1.66,1.954,2.14,3.021s0.733,2.04,0.76,2.92h-0.8
		c-0.08-1.04-0.387-2.06-0.92-3.06c-0.534-1-1.26-1.9-2.18-2.7s-2.014-1.446-3.28-1.94c-1.267-0.493-2.674-0.74-4.22-0.74
		c-2.347,0-4.327,0.475-5.94,1.421c-1.614,0.946-2.914,2.133-3.9,3.56c-0.987,1.427-1.7,2.979-2.14,4.66
		c-0.44,1.68-0.66,3.267-0.66,4.76c0,1.813,0.267,3.56,0.8,5.24c0.533,1.68,1.32,3.16,2.36,4.439c1.04,1.28,2.313,2.308,3.82,3.08
		c1.506,0.774,3.22,1.16,5.14,1.16c1.707,0,3.24-0.28,4.6-0.84s2.533-1.333,3.52-2.32c0.986-0.986,1.786-2.16,2.4-3.52
		c0.613-1.36,1.026-2.826,1.24-4.4h0.8C524.714,669.105,524.26,670.698,523.594,672.151z"/>
	<path fill="#8D7167" d="M528.634,661.671c0.347-0.84,0.847-1.565,1.5-2.18c0.653-0.613,1.453-1.093,2.4-1.439
		c0.946-0.347,2.06-0.521,3.34-0.521c0.906,0,1.766,0.094,2.58,0.28c0.813,0.187,1.526,0.514,2.14,0.979
		c0.613,0.467,1.105,1.074,1.48,1.82c0.373,0.747,0.572,1.68,0.6,2.8v13.08c0,0.4,0.08,0.693,0.24,0.88
		c0.16,0.188,0.373,0.313,0.639,0.38c0.268,0.067,0.555,0.094,0.861,0.08c0.307-0.013,0.592-0.033,0.859-0.06v0.8h-1.199
		c-0.588,0-1.102-0.14-1.541-0.42s-0.66-0.807-0.66-1.58v-2.68h-0.08c-0.213,0.667-0.553,1.307-1.02,1.92s-1.054,1.16-1.76,1.64
		c-0.707,0.48-1.514,0.86-2.42,1.14c-0.907,0.28-1.894,0.421-2.96,0.421c-2.08,0-3.747-0.46-5-1.381c-1.253-0.92-1.88-2.3-1.88-4.14
		c0-1.28,0.207-2.307,0.62-3.08c0.413-0.773,0.953-1.38,1.62-1.82c0.666-0.439,1.426-0.746,2.28-0.92
		c0.853-0.173,1.707-0.286,2.56-0.34c1.413-0.08,2.626-0.153,3.64-0.22c1.013-0.066,1.846-0.2,2.5-0.4
		c0.653-0.199,1.134-0.506,1.44-0.92c0.307-0.413,0.459-1.006,0.459-1.779c0-0.613-0.053-1.254-0.16-1.921
		c-0.105-0.666-0.367-1.279-0.779-1.84c-0.414-0.56-1.02-1.02-1.82-1.38c-0.8-0.359-1.88-0.54-3.24-0.54
		c-2.16,0-3.84,0.527-5.04,1.58c-1.2,1.054-1.867,2.54-2,4.46h-0.8C528.087,663.411,528.287,662.512,528.634,661.671z
		 M541.793,666.491c-0.266,0.374-0.68,0.66-1.239,0.86c-0.56,0.2-1.2,0.354-1.92,0.46c-0.72,0.106-1.5,0.174-2.34,0.2
		s-1.66,0.066-2.46,0.119c-0.8,0.054-1.58,0.154-2.34,0.301c-0.76,0.146-1.434,0.413-2.02,0.8c-0.587,0.387-1.054,0.92-1.4,1.6
		c-0.347,0.681-0.52,1.567-0.52,2.66c0,0.587,0.1,1.167,0.3,1.74s0.54,1.08,1.02,1.52c0.48,0.44,1.1,0.801,1.86,1.08
		c0.76,0.28,1.7,0.42,2.82,0.42c1.333,0,2.52-0.226,3.56-0.68c1.04-0.453,1.913-1.046,2.62-1.78c0.707-0.732,1.239-1.58,1.601-2.54
		c0.359-0.96,0.539-1.946,0.539-2.96v-3.8H541.793z"/>
	<path fill="#8D7167" d="M547.314,678.571v-20.56h0.8v5.079h0.08c0.187-0.772,0.479-1.5,0.88-2.18s0.934-1.273,1.6-1.78
		c0.667-0.506,1.46-0.906,2.381-1.199c0.92-0.294,1.993-0.427,3.22-0.4v0.8c-1.414-0.08-2.634,0.114-3.66,0.58
		c-1.027,0.467-1.874,1.107-2.54,1.92c-0.667,0.814-1.16,1.754-1.479,2.82c-0.32,1.066-0.48,2.16-0.48,3.28v11.64H547.314z"/>
	<path fill="#8D7167" d="M557.773,672.312c0.307,1.187,0.78,2.22,1.42,3.1c0.641,0.88,1.467,1.574,2.48,2.08
		c1.013,0.507,2.253,0.76,3.72,0.76c2.16,0,3.953-0.566,5.38-1.699c1.427-1.134,2.313-2.834,2.66-5.101h0.8
		c-0.294,2.4-1.24,4.26-2.84,5.58s-3.573,1.98-5.92,1.98c-1.6,0.025-2.967-0.228-4.1-0.761c-1.134-0.533-2.061-1.286-2.78-2.26
		c-0.72-0.973-1.254-2.12-1.601-3.439c-0.347-1.32-0.52-2.74-0.52-4.261c0-1.706,0.253-3.226,0.76-4.56
		c0.507-1.333,1.174-2.46,2-3.38s1.786-1.62,2.88-2.101c1.094-0.479,2.214-0.72,3.36-0.72c1.6,0,2.98,0.307,4.14,0.92
		c1.16,0.614,2.106,1.427,2.841,2.44c0.732,1.014,1.266,2.174,1.6,3.479c0.333,1.307,0.473,2.667,0.42,4.08h-17.2
		C557.299,669.838,557.466,671.125,557.773,672.312z M573.153,664.071c-0.347-1.133-0.859-2.126-1.54-2.98
		c-0.68-0.853-1.526-1.525-2.54-2.02c-1.014-0.493-2.187-0.74-3.52-0.74c-1.12,0-2.167,0.214-3.14,0.641
		c-0.975,0.427-1.827,1.047-2.561,1.859c-0.733,0.814-1.327,1.794-1.78,2.94s-0.72,2.439-0.8,3.88h16.4
		C573.673,666.398,573.5,665.205,573.153,664.071z"/>
	<path fill="#8D7167" d="M589.673,663.771c0.479-1.866,1.426-3.373,2.84-4.521c1.413-1.146,3.213-1.72,5.4-1.72
		c1.413,0,2.666,0.294,3.76,0.88c1.093,0.587,2.006,1.374,2.74,2.36c0.732,0.986,1.293,2.134,1.68,3.439
		c0.387,1.308,0.58,2.681,0.58,4.12c0,1.547-0.2,2.974-0.6,4.28c-0.4,1.307-0.98,2.434-1.74,3.38c-0.76,0.947-1.681,1.687-2.76,2.22
		c-1.08,0.533-2.301,0.801-3.66,0.801c-2.107,0-3.874-0.573-5.301-1.721c-1.427-1.146-2.406-2.64-2.939-4.479h-0.08v5.76h-0.8
		v-28.56h0.8v13.76H589.673z M590.153,672.131c0.374,1.2,0.913,2.254,1.62,3.16c0.707,0.907,1.58,1.627,2.62,2.16
		c1.04,0.534,2.213,0.8,3.521,0.8c1.333,0,2.5-0.266,3.5-0.8c1-0.533,1.826-1.26,2.479-2.18s1.146-1.98,1.48-3.181
		c0.333-1.199,0.5-2.453,0.5-3.76c0-1.2-0.154-2.393-0.46-3.58c-0.308-1.186-0.78-2.253-1.42-3.199
		c-0.641-0.946-1.46-1.721-2.46-2.32c-1-0.601-2.207-0.9-3.62-0.9c-2.507,0-4.521,0.86-6.04,2.58c-1.521,1.72-2.28,4.194-2.28,7.42
		C589.593,669.665,589.78,670.932,590.153,672.131z"/>
	<path fill="#8D7167" d="M624.833,658.012l-9.479,24.72c-0.268,0.693-0.587,1.233-0.96,1.62c-0.374,0.386-0.787,0.673-1.24,0.859
		c-0.454,0.187-0.954,0.301-1.5,0.341c-0.547,0.039-1.127,0.06-1.74,0.06v-0.8c0.693,0,1.286-0.021,1.78-0.061
		c0.493-0.04,0.92-0.146,1.28-0.319c0.359-0.174,0.68-0.44,0.96-0.801c0.279-0.359,0.54-0.847,0.779-1.46l1.48-3.8l-8.561-20.359
		h0.841l8.159,19.479l7.36-19.479H624.833z"/>
	<path fill="#8D7167" d="M638.833,650.012l19.52,27.56h0.08v-27.56h0.8v28.56h-1.2l-19.52-27.56h-0.08v27.56h-0.8v-28.56H638.833z"
		/>
	<path fill="#8D7167" d="M663.112,664.231c0.4-1.293,0.993-2.434,1.78-3.42c0.786-0.986,1.753-1.78,2.9-2.38
		c1.146-0.601,2.479-0.9,4-0.9c1.493,0,2.812,0.3,3.96,0.9c1.146,0.6,2.112,1.394,2.899,2.38c0.786,0.986,1.38,2.127,1.78,3.42
		c0.4,1.294,0.6,2.646,0.6,4.06c0,1.414-0.199,2.768-0.6,4.061c-0.4,1.294-0.994,2.434-1.78,3.42
		c-0.787,0.986-1.754,1.773-2.899,2.359c-1.147,0.587-2.48,0.881-4,0.881c-1.494,0-2.814-0.294-3.96-0.881
		c-1.147-0.586-2.114-1.373-2.9-2.359c-0.787-0.986-1.38-2.126-1.78-3.42c-0.399-1.293-0.6-2.646-0.6-4.061
		C662.512,666.878,662.712,665.525,663.112,664.231z M663.852,672.052c0.36,1.199,0.9,2.26,1.62,3.18s1.606,1.653,2.66,2.2
		c1.053,0.547,2.272,0.819,3.66,0.819c1.359,0,2.565-0.272,3.619-0.819s1.94-1.28,2.66-2.2c0.721-0.92,1.261-1.98,1.62-3.18
		c0.36-1.2,0.54-2.453,0.54-3.761c0-1.279-0.18-2.52-0.54-3.72c-0.359-1.2-0.899-2.26-1.62-3.18c-0.72-0.92-1.606-1.66-2.66-2.221
		c-1.054-0.56-2.26-0.84-3.619-0.84c-1.388,0-2.607,0.28-3.66,0.84c-1.054,0.561-1.94,1.301-2.66,2.221s-1.26,1.979-1.62,3.18
		s-0.54,2.44-0.54,3.72C663.312,669.599,663.492,670.852,663.852,672.052z"/>
	<path fill="#8D7167" d="M684.912,661.671c0.347-0.84,0.847-1.565,1.5-2.18c0.653-0.613,1.453-1.093,2.4-1.439
		c0.946-0.347,2.06-0.521,3.34-0.521c0.906,0,1.767,0.094,2.58,0.28s1.526,0.514,2.14,0.979c0.613,0.467,1.106,1.074,1.48,1.82
		c0.373,0.747,0.573,1.68,0.6,2.8v13.08c0,0.4,0.08,0.693,0.24,0.88c0.16,0.188,0.373,0.313,0.64,0.38
		c0.267,0.067,0.554,0.094,0.86,0.08c0.307-0.013,0.593-0.033,0.86-0.06v0.8h-1.2c-0.587,0-1.101-0.14-1.54-0.42
		c-0.44-0.28-0.66-0.807-0.66-1.58v-2.68h-0.08c-0.214,0.667-0.554,1.307-1.02,1.92c-0.467,0.613-1.054,1.16-1.761,1.64
		c-0.706,0.48-1.514,0.86-2.42,1.14c-0.906,0.28-1.894,0.421-2.96,0.421c-2.08,0-3.747-0.46-5-1.381c-1.254-0.92-1.88-2.3-1.88-4.14
		c0-1.28,0.206-2.307,0.62-3.08c0.413-0.773,0.953-1.38,1.62-1.82c0.666-0.439,1.426-0.746,2.28-0.92
		c0.853-0.173,1.706-0.286,2.56-0.34c1.413-0.08,2.626-0.153,3.64-0.22s1.847-0.2,2.5-0.4c0.653-0.199,1.134-0.506,1.44-0.92
		c0.307-0.413,0.46-1.006,0.46-1.779c0-0.613-0.054-1.254-0.16-1.921c-0.106-0.666-0.367-1.279-0.78-1.84
		c-0.413-0.56-1.02-1.02-1.819-1.38c-0.8-0.359-1.88-0.54-3.24-0.54c-2.16,0-3.84,0.527-5.04,1.58c-1.2,1.054-1.867,2.54-2,4.46
		h-0.8C684.365,663.411,684.565,662.512,684.912,661.671z M698.072,666.491c-0.267,0.374-0.68,0.66-1.24,0.86
		c-0.56,0.2-1.199,0.354-1.92,0.46c-0.72,0.106-1.5,0.174-2.34,0.2s-1.66,0.066-2.46,0.119c-0.8,0.054-1.58,0.154-2.34,0.301
		s-1.434,0.413-2.021,0.8s-1.054,0.92-1.399,1.6c-0.347,0.681-0.521,1.567-0.521,2.66c0,0.587,0.101,1.167,0.301,1.74
		c0.199,0.573,0.539,1.08,1.02,1.52c0.48,0.44,1.1,0.801,1.86,1.08c0.76,0.28,1.699,0.42,2.819,0.42c1.333,0,2.521-0.226,3.561-0.68
		c1.04-0.453,1.913-1.046,2.62-1.78c0.706-0.732,1.239-1.58,1.6-2.54s0.54-1.946,0.54-2.96v-3.8H698.072z"/>
	<path fill="#8D7167" d="M704.391,650.012v13.079h0.08c0.187-0.8,0.486-1.532,0.9-2.199c0.413-0.667,0.933-1.254,1.56-1.761
		c0.626-0.506,1.354-0.899,2.18-1.18s1.746-0.42,2.761-0.42c1.065,0,2.046,0.16,2.939,0.48c0.894,0.319,1.666,0.793,2.32,1.42
		c0.653,0.627,1.16,1.399,1.52,2.319c0.36,0.92,0.54,1.98,0.54,3.181v13.64h-0.8v-13.52c0-1.2-0.174-2.221-0.52-3.061
		c-0.348-0.84-0.82-1.533-1.421-2.08c-0.6-0.546-1.293-0.946-2.079-1.2c-0.787-0.253-1.62-0.38-2.5-0.38
		c-1.228,0-2.308,0.234-3.24,0.7c-0.934,0.467-1.714,1.094-2.34,1.88c-0.627,0.787-1.101,1.7-1.42,2.74
		c-0.32,1.04-0.48,2.134-0.48,3.28v11.64h-0.8v-28.56H704.391z"/>
	<path fill="#8D7167" d="M735.872,650.012l19.52,27.56h0.08v-27.56h0.8v28.56h-1.2l-19.52-27.56h-0.08v27.56h-0.8v-28.56H735.872z"
		/>
	<path fill="#8D7167" d="M760.731,672.312c0.307,1.187,0.78,2.22,1.42,3.1c0.641,0.88,1.467,1.574,2.48,2.08
		c1.013,0.507,2.253,0.76,3.72,0.76c2.16,0,3.953-0.566,5.38-1.699c1.427-1.134,2.313-2.834,2.66-5.101h0.8
		c-0.294,2.4-1.24,4.26-2.84,5.58s-3.573,1.98-5.92,1.98c-1.6,0.025-2.967-0.228-4.1-0.761c-1.134-0.533-2.061-1.286-2.78-2.26
		c-0.72-0.973-1.254-2.12-1.601-3.439c-0.347-1.32-0.52-2.74-0.52-4.261c0-1.706,0.253-3.226,0.76-4.56
		c0.507-1.333,1.174-2.46,2-3.38s1.786-1.62,2.88-2.101c1.094-0.479,2.214-0.72,3.36-0.72c1.6,0,2.98,0.307,4.14,0.92
		c1.16,0.614,2.106,1.427,2.841,2.44c0.732,1.014,1.266,2.174,1.6,3.479c0.333,1.307,0.473,2.667,0.42,4.08h-17.2
		C760.257,669.838,760.424,671.125,760.731,672.312z M776.111,664.071c-0.347-1.133-0.859-2.126-1.54-2.98
		c-0.68-0.853-1.526-1.525-2.54-2.02c-1.014-0.493-2.187-0.74-3.52-0.74c-1.12,0-2.167,0.214-3.14,0.641
		c-0.975,0.427-1.827,1.047-2.561,1.859c-0.733,0.814-1.327,1.794-1.78,2.94s-0.72,2.439-0.8,3.88h16.4
		C776.631,666.398,776.458,665.205,776.111,664.071z"/>
	<path fill="#8D7167" d="M793.551,661.451c-0.32-0.72-0.773-1.313-1.36-1.78c-0.587-0.466-1.287-0.806-2.1-1.02
		c-0.813-0.213-1.714-0.32-2.7-0.32c-1.44,0-2.573,0.194-3.4,0.58c-0.826,0.387-1.439,0.827-1.84,1.32
		c-0.399,0.493-0.653,0.979-0.76,1.46c-0.106,0.479-0.16,0.813-0.16,1c0,1.014,0.206,1.794,0.62,2.34
		c0.413,0.547,0.967,0.967,1.66,1.26c0.72,0.294,1.5,0.547,2.34,0.761c0.84,0.213,1.82,0.467,2.94,0.76
		c0.8,0.214,1.593,0.434,2.38,0.66c0.786,0.227,1.493,0.54,2.12,0.939c0.626,0.4,1.133,0.907,1.52,1.521s0.58,1.413,0.58,2.399
		c0,1.04-0.22,1.92-0.66,2.641c-0.439,0.72-1.014,1.307-1.72,1.76c-0.707,0.453-1.507,0.78-2.4,0.979
		c-0.894,0.2-1.779,0.301-2.66,0.301c-2.746,0-4.819-0.601-6.22-1.801c-1.399-1.199-2.1-3.093-2.1-5.68h0.8
		c0,2.32,0.646,4.021,1.94,5.1c1.293,1.08,3.152,1.62,5.579,1.62c0.747,0,1.514-0.086,2.301-0.26c0.786-0.173,1.5-0.453,2.14-0.84
		s1.166-0.887,1.58-1.5c0.413-0.613,0.62-1.36,0.62-2.24c0-0.906-0.207-1.64-0.62-2.2c-0.414-0.56-0.947-1.02-1.6-1.38
		c-0.654-0.359-1.407-0.646-2.261-0.859c-0.854-0.214-1.72-0.427-2.6-0.641c-0.987-0.24-1.854-0.466-2.6-0.68
		c-0.747-0.213-1.414-0.453-2-0.72c-0.854-0.373-1.48-0.894-1.881-1.561c-0.399-0.666-0.6-1.56-0.6-2.68
		c0-0.561,0.12-1.146,0.36-1.76c0.239-0.613,0.64-1.174,1.199-1.681c0.561-0.506,1.28-0.92,2.16-1.239
		c0.88-0.32,1.96-0.48,3.24-0.48c2.293,0,4.106,0.521,5.44,1.56c1.333,1.04,2,2.707,2,5h-0.801
		C794.031,663.052,793.872,662.171,793.551,661.451z"/>
	<path fill="#8D7167" d="M799.152,654.052v-4.04h0.8v4.04H799.152z M799.152,678.571v-20.56h0.8v20.56H799.152z"/>
	<path fill="#8D7167" d="M805.151,658.012v5.079h0.08c0.187-0.8,0.486-1.532,0.9-2.199c0.413-0.667,0.933-1.254,1.56-1.761
		c0.626-0.506,1.354-0.899,2.18-1.18s1.746-0.42,2.761-0.42c1.065,0,2.046,0.16,2.939,0.48c0.894,0.319,1.666,0.793,2.32,1.42
		c0.653,0.627,1.16,1.399,1.52,2.319c0.36,0.92,0.54,1.98,0.54,3.181v13.64h-0.8v-13.52c0-1.2-0.174-2.221-0.52-3.061
		c-0.348-0.84-0.82-1.533-1.421-2.08c-0.6-0.546-1.293-0.946-2.079-1.2c-0.787-0.253-1.62-0.38-2.5-0.38
		c-1.228,0-2.308,0.234-3.24,0.7c-0.934,0.467-1.714,1.094-2.34,1.88c-0.627,0.787-1.101,1.7-1.42,2.74
		c-0.32,1.04-0.48,2.134-0.48,3.28v11.64h-0.8v-20.56H805.151z"/>
	<path fill="#8D7167" d="M828.111,678.571c0,1.2-0.127,2.173-0.38,2.92c-0.254,0.746-0.714,1.347-1.38,1.8v-0.8
		c0.346-0.347,0.593-0.82,0.74-1.42c0.146-0.6,0.22-1.434,0.22-2.5v-3.92h0.8V678.571z"/>
	<path fill="#8D7167" d="M873.431,650.012v28.56h-0.8v-27.56h-0.08l-12.12,27.56h-0.88l-12.12-27.56h-0.08v27.56h-0.8v-28.56h1.32
		l12.079,27.52h0.08l12.08-27.52H873.431z"/>
	<path fill="#8D7167" d="M887.75,650.012c1.413,0,2.846,0.22,4.3,0.659c1.453,0.44,2.76,1.2,3.92,2.28s2.106,2.54,2.84,4.38
		s1.101,4.16,1.101,6.96c0,2.561-0.374,4.747-1.12,6.561c-0.747,1.813-1.747,3.286-3,4.42c-1.254,1.134-2.681,1.967-4.28,2.5
		s-3.267,0.8-5,0.8h-8.76v-28.56H887.75z M886.71,677.771c1.68,0,3.273-0.273,4.78-0.82c1.506-0.546,2.826-1.373,3.96-2.479
		c1.133-1.106,2.026-2.507,2.68-4.2s0.979-3.687,0.979-5.98c0-2.666-0.333-4.866-1-6.6c-0.666-1.733-1.547-3.113-2.64-4.14
		c-1.094-1.026-2.327-1.74-3.7-2.141c-1.373-0.399-2.779-0.6-4.22-0.6h-9v26.96H886.71z"/>
</g>
</svg>
