<?xml version="1.0" encoding="utf-8"?>
<!-- Generator: Adobe Illustrator 16.0.4, SVG Export Plug-In . SVG Version: 6.00 Build 0)  -->
<!DOCTYPE svg PUBLIC "-//W3C//DTD SVG 1.1//EN" "http://www.w3.org/Graphics/SVG/1.1/DTD/svg11.dtd">
<svg version="1.1" id="Layer_1" xmlns="http://www.w3.org/2000/svg" xmlns:xlink="http://www.w3.org/1999/xlink" x="0px" y="0px"
	 width="1023.856px" height="473.457px" viewBox="0 0 1023.856 473.457" enable-background="new 0 0 1023.856 473.457"
	 xml:space="preserve">
<g id="Logo">
	<path id="Swoosh" fill="#FFFFFF" d="M511.937,0C229.645,0,0,122.103,0,272.19c0,75.143,61.905,148.136,170.012,200.739
		c0.015-0.029,0.044-0.043,0.072-0.061C78.575,424.854,51.006,347.156,51.006,278.701c0-134.715,198.15-236.31,460.931-236.31
		c262.764,0,460.914,101.595,460.914,236.31c0,68.396-29.033,146.283-120.645,194.287c0.189,0.162,0.396,0.307,0.57,0.469
		c108.766-52.633,171.08-125.875,171.08-201.267C1023.858,122.102,794.214,0,511.937,0z"/>
	<g id="PCHC">
		<path fill="#FFFFFF" d="M257.229,186.181c-4.308-3.749-10.21-6.605-17.695-8.568c-7.484-1.971-17.886-2.952-31.172-2.952
			c-6.753,0-13.623,0.234-20.654,0.703c-7.017,0.469-13.812,0.703-20.36,0.703c-4.688,0-8.893-0.146-12.643-0.425
			s-7.207-0.602-10.386-0.981c0.747,12.174,1.304,24.295,1.685,36.372c0.366,12.085,0.558,25.898,0.558,41.435v38.207
			c0,15.541-0.19,29.355-0.558,41.426c-0.381,12.069-0.938,23.92-1.685,35.536c3.179-0.381,6.636-0.569,10.386-0.569
			s7.954,0,12.643,0c4.688,0,8.892,0,12.642,0s7.207,0.188,10.4,0.569c-0.952-13.666-1.554-27.479-1.831-41.438
			c-0.278-13.945-0.425-27.936-0.425-41.997h14.325c10.488,0,20.127-1.113,28.932-3.357c8.804-2.249,16.436-5.757,22.896-10.54
			c6.46-4.774,11.47-10.993,15.03-18.677c3.545-7.677,5.332-16.854,5.332-27.524c0-8.431-1.406-15.638-4.219-21.636
			C267.629,196.479,263.221,191.046,257.229,186.181z M226.334,250.217c-2.622,5.435-5.99,9.603-10.106,12.503
			c-4.131,2.899-8.672,4.826-13.623,5.757c-4.966,0.938-9.785,1.406-14.474,1.406c0-13.11,0.045-26.17,0.146-39.186
			c0.088-13.016,0.234-26.266,0.425-39.749c0.732-0.184,1.582-0.277,2.521-0.277c0.938,0,1.875,0,2.812,0h6.46
			c3.926,0,7.72,0.658,11.367,1.97c3.662,1.305,6.841,3.414,9.551,6.313c2.726,2.907,4.878,6.797,6.46,11.66
			c1.598,4.87,2.402,10.854,2.402,17.975C230.275,237.584,228.956,244.79,226.334,250.217z"/>
		<path fill="#FFFFFF" d="M363.973,208.93c6.182-6.928,13.052-12.084,20.64-15.446c7.588-3.376,15.117-5.062,22.617-5.062
			c10.107,0,18.911,1.927,26.396,5.757c7.483,3.846,14.795,10.254,21.914,19.241h3.926c0.381-4.863,1.084-9.684,2.107-14.466
			c1.025-4.775,2.49-9.5,4.353-14.181c-3.18-1.875-7.062-3.654-11.646-5.339c-4.6-1.685-9.419-3.135-14.473-4.358
			c-5.054-1.208-10.298-2.196-15.732-2.942c-5.435-0.748-10.574-1.129-15.438-1.129c-14.795,0-28.945,1.971-42.422,5.902
			c-13.479,3.927-25.328,10.159-35.523,18.678c-10.21,8.525-18.354,19.569-24.448,33.149c-6.078,13.579-9.126,30.104-9.126,49.569
			c0,13.305,2.346,25.668,7.031,37.079c4.673,11.426,11.455,21.299,20.361,29.635c8.892,8.334,19.746,14.795,32.578,19.379
			c12.816,4.6,27.393,6.887,43.682,6.887c23.027,0,42.129-3.838,57.291-11.514c0.381-3.941,1.128-7.91,2.256-11.939
			c1.128-4.026,2.434-8.012,3.926-11.938l-3.646-2.239c-3.003,3.178-6.504,6.078-10.533,8.701c-4.029,2.62-8.276,4.817-12.772,6.606
			c-4.496,1.771-9.081,3.178-13.771,4.202c-4.688,1.039-9.271,1.554-13.77,1.554c-8.059,0-16.057-1.494-24.011-4.498
			c-7.954-3.002-15.071-7.731-21.343-14.181c-6.284-6.475-11.382-14.795-15.322-25.004c-3.926-10.21-5.889-22.515-5.889-36.939
			c0-14.979,1.919-27.854,5.757-38.62C352.78,224.706,357.791,215.858,363.973,208.93z"/>
		<path fill="#FFFFFF" d="M675.751,211.032c0.381-12.077,0.938-24.198,1.686-36.372c-3.18,0.382-6.65,0.703-10.387,0.981
			c-3.75,0.278-7.969,0.425-12.643,0.425c-4.688,0-8.891-0.146-12.641-0.425s-7.207-0.602-10.387-0.981
			c0.748,12.174,1.305,24.199,1.67,36.095c0.381,11.895,0.568,25.605,0.568,41.154c-5.434,0.185-11.338,0.33-17.693,0.417
			c-6.371,0.097-14.605,0.141-24.729,0.141c-10.105,0-18.57-0.044-25.416-0.141c-6.84-0.087-12.686-0.232-17.547-0.417
			c0-15.549,0.131-29.261,0.408-41.154c0.293-11.896,0.895-23.921,1.832-36.095c-3.18,0.382-6.652,0.703-10.387,0.981
			c-3.75,0.278-7.969,0.425-12.643,0.425c-4.688,0-8.904-0.146-12.641-0.425c-3.75-0.278-7.209-0.602-10.402-0.981
			c0.748,12.174,1.318,24.295,1.699,36.372c0.367,12.085,0.557,25.898,0.557,41.435v38.207c0,15.541-0.188,29.355-0.557,41.426
			c-0.381,12.069-0.951,23.92-1.699,35.536c3.193-0.381,6.65-0.569,10.402-0.569c3.732,0,7.953,0,12.641,0c4.674,0,8.893,0,12.643,0
			c3.734,0,7.207,0.188,10.387,0.569c-0.748-11.614-1.305-23.467-1.686-35.536c-0.383-12.07-0.557-25.885-0.557-41.426v-16.016
			c7.104-0.374,14.225-0.651,21.342-0.843c7.119-0.183,14.225-0.285,21.344-0.285s14.236,0.146,21.357,0.425
			c7.105,0.278,14.225,0.521,21.344,0.703v16.016c0,15.541-0.189,29.355-0.57,41.426c-0.365,12.069-0.924,23.92-1.67,35.536
			c3.178-0.381,6.635-0.569,10.385-0.569s7.953,0,12.643,0c4.674,0,8.895,0,12.645,0c3.732,0,7.205,0.188,10.385,0.569
			c-0.746-11.614-1.303-23.467-1.684-35.536c-0.367-12.07-0.561-25.885-0.561-41.426v-38.207
			C675.194,236.931,675.384,223.117,675.751,211.032z"/>
		<path fill="#FFFFFF" d="M869.989,342.352c-4.027,2.621-8.291,4.818-12.771,6.607c-4.498,1.771-9.1,3.178-13.771,4.201
			c-4.688,1.041-9.27,1.555-13.77,1.555c-8.043,0-16.055-1.494-24.008-4.498c-7.973-3.002-15.074-7.732-21.359-14.18
			c-6.27-6.475-11.367-14.795-15.307-25.006c-3.926-10.209-5.891-22.514-5.891-36.938c0-14.979,1.918-27.854,5.758-38.62
			c3.838-10.769,8.848-19.615,15.029-26.544c6.182-6.928,13.051-12.084,20.639-15.446c7.59-3.376,15.119-5.062,22.619-5.062
			c10.107,0,18.91,1.927,26.396,5.757c7.482,3.846,14.795,10.254,21.914,19.241h3.926c0.381-4.863,1.084-9.684,2.109-14.466
			c1.021-4.775,2.475-9.5,4.363-14.181c-3.193-1.875-7.074-3.654-11.658-5.339c-4.604-1.686-9.42-3.135-14.477-4.358
			c-5.053-1.208-10.297-2.196-15.729-2.942c-5.439-0.748-10.576-1.129-15.441-1.129c-14.795,0-28.93,1.971-42.422,5.902
			c-13.477,3.927-25.328,10.159-35.521,18.678c-10.209,8.525-18.369,19.569-24.447,33.149c-6.08,13.579-9.127,30.104-9.127,49.569
			c0,13.305,2.344,25.668,7.018,37.079c4.689,11.426,11.469,21.299,20.361,29.636c8.906,8.334,19.76,14.793,32.592,19.379
			c12.818,4.6,27.396,6.887,43.668,6.887c23.043,0,42.146-3.84,57.318-11.516c0.367-3.941,1.115-7.91,2.242-11.938
			c1.129-4.027,2.432-8.014,3.926-11.938l-3.646-2.24C877.519,336.83,874.017,339.73,869.989,342.352z"/>
	</g>
</g>
</svg>
