<?xml version="1.0" encoding="utf-8"?>
<!-- Generator: Adobe Illustrator 16.0.4, SVG Export Plug-In . SVG Version: 6.00 Build 0)  -->
<!DOCTYPE svg PUBLIC "-//W3C//DTD SVG 1.1//EN" "http://www.w3.org/Graphics/SVG/1.1/DTD/svg11.dtd">
<svg version="1.1" id="PCHC_Logo" xmlns="http://www.w3.org/2000/svg" xmlns:xlink="http://www.w3.org/1999/xlink" x="0px" y="0px"
	 width="1023.856px" height="654.553px" viewBox="0 1.725 1023.856 654.553" enable-background="new 0 1.725 1023.856 654.553"
	 xml:space="preserve">
<g>
	<g id="Logo">
		
			<linearGradient id="Swoosh_1_" gradientUnits="userSpaceOnUse" x1="511.9277" y1="553.7485" x2="511.9277" y2="69.9511" gradientTransform="matrix(1 0 0 1 0 -73.0176)">
			<stop  offset="0" style="stop-color:#6D4C39"/>
			<stop  offset="1" style="stop-color:#8C7167"/>
		</linearGradient>
		<path id="Swoosh" fill="url(#Swoosh_1_)" d="M511.936,1.725C229.644,1.725,0,123.828,0,273.916
			c0,75.143,61.905,148.136,170.012,200.739c0.015-0.029,0.044-0.043,0.072-0.061C78.575,426.579,51.005,348.881,51.005,280.426
			c0-134.715,198.15-236.31,460.931-236.31c262.764,0,460.914,101.595,460.914,236.31c0,68.396-29.033,146.283-120.645,194.287
			c0.189,0.162,0.396,0.307,0.57,0.469c108.766-52.633,171.08-125.875,171.08-201.267C1023.858,123.827,794.213,1.725,511.936,1.725
			z"/>
		<g id="PCHC">
			
				<linearGradient id="SVGID_1_" gradientUnits="userSpaceOnUse" x1="209.4824" y1="442.3784" x2="209.4822" y2="249.4028" gradientTransform="matrix(1 0 0 1 0 -73.0176)">
				<stop  offset="0" style="stop-color:#212058"/>
				<stop  offset="0.0693" style="stop-color:#24235F"/>
				<stop  offset="0.2522" style="stop-color:#2A2B6F"/>
				<stop  offset="0.437" style="stop-color:#2D2F7B"/>
				<stop  offset="0.6229" style="stop-color:#2F3282"/>
				<stop  offset="0.8118" style="stop-color:#2F3384"/>
			</linearGradient>
			<path fill="url(#SVGID_1_)" d="M257.228,187.906c-4.308-3.749-10.21-6.605-17.695-8.568c-7.484-1.971-17.886-2.952-31.172-2.952
				c-6.753,0-13.623,0.234-20.654,0.703c-7.017,0.469-13.812,0.703-20.36,0.703c-4.688,0-8.893-0.146-12.643-0.425
				s-7.207-0.602-10.386-0.981c0.747,12.174,1.304,24.295,1.685,36.372c0.366,12.085,0.558,25.898,0.558,41.435v38.207
				c0,15.541-0.19,29.355-0.558,41.426c-0.381,12.069-0.938,23.92-1.685,35.536c3.179-0.381,6.636-0.569,10.386-0.569
				s7.954,0,12.643,0c4.688,0,8.892,0,12.642,0s7.207,0.188,10.4,0.569c-0.952-13.666-1.554-27.479-1.831-41.438
				c-0.278-13.945-0.425-27.936-0.425-41.997h14.325c10.488,0,20.127-1.113,28.932-3.357c8.804-2.249,16.436-5.757,22.896-10.54
				c6.46-4.774,11.47-10.993,15.03-18.677c3.545-7.677,5.332-16.854,5.332-27.524c0-8.431-1.406-15.638-4.219-21.636
				C267.628,198.204,263.22,192.771,257.228,187.906z M226.333,251.942c-2.622,5.435-5.99,9.603-10.106,12.503
				c-4.131,2.899-8.672,4.826-13.623,5.757c-4.966,0.938-9.785,1.406-14.474,1.406c0-13.11,0.045-26.17,0.146-39.186
				c0.088-13.016,0.234-26.266,0.425-39.749c0.732-0.184,1.582-0.277,2.521-0.277c0.938,0,1.875,0,2.812,0h6.46
				c3.926,0,7.72,0.658,11.367,1.97c3.662,1.305,6.841,3.414,9.551,6.313c2.726,2.907,4.878,6.797,6.46,11.66
				c1.598,4.87,2.402,10.854,2.402,17.975C230.275,239.309,228.956,246.515,226.333,251.942z"/>
			
				<linearGradient id="SVGID_2_" gradientUnits="userSpaceOnUse" x1="381.521" y1="446.0259" x2="381.521" y2="245.748" gradientTransform="matrix(1 0 0 1 0 -73.0176)">
				<stop  offset="0" style="stop-color:#212058"/>
				<stop  offset="0.0693" style="stop-color:#24235F"/>
				<stop  offset="0.2522" style="stop-color:#2A2B6F"/>
				<stop  offset="0.437" style="stop-color:#2D2F7B"/>
				<stop  offset="0.6229" style="stop-color:#2F3282"/>
				<stop  offset="0.8118" style="stop-color:#2F3384"/>
			</linearGradient>
			<path fill="url(#SVGID_2_)" d="M363.972,210.655c6.182-6.928,13.052-12.084,20.64-15.446c7.588-3.376,15.117-5.062,22.617-5.062
				c10.107,0,18.911,1.927,26.396,5.757c7.483,3.846,14.795,10.254,21.914,19.241h3.926c0.381-4.863,1.084-9.684,2.107-14.466
				c1.025-4.775,2.49-9.5,4.353-14.181c-3.18-1.875-7.062-3.654-11.646-5.339c-4.6-1.685-9.419-3.135-14.473-4.358
				c-5.054-1.208-10.298-2.196-15.732-2.942c-5.435-0.748-10.574-1.129-15.438-1.129c-14.795,0-28.945,1.971-42.422,5.902
				c-13.479,3.927-25.328,10.159-35.523,18.678c-10.21,8.525-18.354,19.569-24.448,33.149c-6.078,13.579-9.126,30.104-9.126,49.569
				c0,13.305,2.346,25.668,7.031,37.079c4.673,11.426,11.455,21.299,20.361,29.635c8.892,8.334,19.746,14.795,32.578,19.379
				c12.816,4.6,27.393,6.887,43.682,6.887c23.027,0,42.129-3.838,57.291-11.514c0.381-3.941,1.128-7.91,2.256-11.939
				c1.128-4.026,2.434-8.012,3.926-11.938l-3.646-2.239c-3.003,3.178-6.504,6.078-10.533,8.701
				c-4.029,2.62-8.276,4.817-12.772,6.606c-4.496,1.771-9.081,3.178-13.771,4.202c-4.688,1.039-9.271,1.554-13.77,1.554
				c-8.059,0-16.057-1.494-24.011-4.498c-7.954-3.002-15.071-7.731-21.343-14.181c-6.284-6.475-11.382-14.795-15.322-25.004
				c-3.926-10.21-5.889-22.515-5.889-36.939c0-14.979,1.919-27.854,5.757-38.62C352.78,226.431,357.791,217.583,363.972,210.655z"/>
			
				<linearGradient id="SVGID_3_" gradientUnits="userSpaceOnUse" x1="590.9185" y1="442.3784" x2="590.9185" y2="249.4033" gradientTransform="matrix(1 0 0 1 0 -73.0176)">
				<stop  offset="0" style="stop-color:#212058"/>
				<stop  offset="0.0693" style="stop-color:#24235F"/>
				<stop  offset="0.2522" style="stop-color:#2A2B6F"/>
				<stop  offset="0.437" style="stop-color:#2D2F7B"/>
				<stop  offset="0.6229" style="stop-color:#2F3282"/>
				<stop  offset="0.8118" style="stop-color:#2F3384"/>
			</linearGradient>
			<path fill="url(#SVGID_3_)" d="M675.75,212.757c0.381-12.077,0.938-24.198,1.686-36.372c-3.18,0.382-6.65,0.703-10.387,0.981
				c-3.75,0.278-7.969,0.425-12.643,0.425c-4.688,0-8.891-0.146-12.641-0.425s-7.207-0.602-10.387-0.981
				c0.748,12.174,1.305,24.199,1.67,36.095c0.381,11.895,0.568,25.605,0.568,41.154c-5.434,0.185-11.338,0.33-17.693,0.417
				c-6.371,0.097-14.605,0.141-24.729,0.141c-10.105,0-18.57-0.044-25.416-0.141c-6.84-0.087-12.686-0.232-17.547-0.417
				c0-15.549,0.131-29.261,0.408-41.154c0.293-11.896,0.895-23.921,1.832-36.095c-3.18,0.382-6.652,0.703-10.387,0.981
				c-3.75,0.278-7.969,0.425-12.643,0.425c-4.688,0-8.904-0.146-12.641-0.425c-3.75-0.278-7.209-0.602-10.402-0.981
				c0.748,12.174,1.318,24.295,1.699,36.372c0.367,12.085,0.557,25.898,0.557,41.435v38.207c0,15.541-0.188,29.355-0.557,41.426
				c-0.381,12.069-0.951,23.92-1.699,35.536c3.193-0.381,6.65-0.569,10.402-0.569c3.732,0,7.953,0,12.641,0
				c4.674,0,8.893,0,12.643,0c3.734,0,7.207,0.188,10.387,0.569c-0.748-11.614-1.305-23.467-1.686-35.536
				c-0.383-12.07-0.557-25.885-0.557-41.426v-16.016c7.104-0.374,14.225-0.651,21.342-0.843c7.119-0.183,14.225-0.285,21.344-0.285
				s14.236,0.146,21.357,0.425c7.105,0.278,14.225,0.521,21.344,0.703v16.016c0,15.541-0.189,29.355-0.57,41.426
				c-0.365,12.069-0.924,23.92-1.67,35.536c3.178-0.381,6.635-0.569,10.385-0.569s7.953,0,12.643,0c4.674,0,8.895,0,12.645,0
				c3.732,0,7.205,0.188,10.385,0.569c-0.746-11.614-1.303-23.467-1.684-35.536c-0.367-12.07-0.561-25.885-0.561-41.426v-38.207
				C675.194,238.656,675.383,224.842,675.75,212.757z"/>
			
				<linearGradient id="SVGID_4_" gradientUnits="userSpaceOnUse" x1="801.4546" y1="446.0259" x2="801.4546" y2="245.7471" gradientTransform="matrix(1 0 0 1 0 -73.0176)">
				<stop  offset="0" style="stop-color:#212058"/>
				<stop  offset="0.0693" style="stop-color:#24235F"/>
				<stop  offset="0.2522" style="stop-color:#2A2B6F"/>
				<stop  offset="0.437" style="stop-color:#2D2F7B"/>
				<stop  offset="0.6229" style="stop-color:#2F3282"/>
				<stop  offset="0.8118" style="stop-color:#2F3384"/>
			</linearGradient>
			<path fill="url(#SVGID_4_)" d="M869.989,344.077c-4.027,2.621-8.291,4.818-12.771,6.607c-4.498,1.771-9.1,3.178-13.771,4.201
				c-4.688,1.041-9.27,1.555-13.77,1.555c-8.043,0-16.055-1.494-24.008-4.498c-7.973-3.002-15.074-7.732-21.359-14.18
				c-6.27-6.475-11.367-14.795-15.307-25.006c-3.926-10.209-5.891-22.514-5.891-36.938c0-14.979,1.918-27.854,5.758-38.62
				c3.838-10.769,8.848-19.615,15.029-26.544c6.182-6.928,13.051-12.084,20.639-15.446c7.59-3.376,15.119-5.062,22.619-5.062
				c10.107,0,18.91,1.927,26.396,5.757c7.482,3.846,14.795,10.254,21.914,19.241h3.926c0.381-4.863,1.084-9.684,2.109-14.466
				c1.021-4.775,2.475-9.5,4.363-14.181c-3.193-1.875-7.074-3.654-11.658-5.339c-4.604-1.686-9.42-3.135-14.477-4.358
				c-5.053-1.208-10.297-2.196-15.729-2.942c-5.439-0.748-10.576-1.129-15.441-1.129c-14.795,0-28.93,1.971-42.422,5.902
				c-13.477,3.927-25.328,10.159-35.521,18.678c-10.209,8.525-18.369,19.569-24.447,33.149c-6.08,13.579-9.127,30.104-9.127,49.569
				c0,13.305,2.344,25.668,7.018,37.079c4.689,11.426,11.469,21.299,20.361,29.636c8.906,8.334,19.76,14.793,32.592,19.379
				c12.818,4.6,27.396,6.887,43.668,6.887c23.043,0,42.146-3.84,57.318-11.516c0.367-3.941,1.115-7.91,2.242-11.938
				c1.129-4.027,2.432-8.014,3.926-11.938l-3.646-2.24C877.518,338.555,874.016,341.456,869.989,344.077z"/>
		</g>
	</g>
	<g>
		<path fill="#BE1E2D" d="M149.945,524.698c-0.172-4.012-0.3-7.553-0.384-10.623c2.388,0.428,4.308,0.639,5.76,0.639
			c1.45,0,3.37-0.211,5.76-0.639c9.3,10.324,18.496,20.479,27.584,30.463c9.088,9.982,18.41,20.141,27.968,30.465v-11.137V551.45
			c0-4.182-0.021-8.297-0.063-12.354c-0.044-4.051-0.086-7.785-0.128-11.199c-0.044-3.412-0.128-6.355-0.256-8.832
			c-0.128-2.475-0.278-4.139-0.448-4.99c2.388,0.428,4.308,0.639,5.76,0.639c1.45,0,3.37-0.211,5.76-0.639
			c-0.428,7.766-0.768,14.781-1.023,21.055c-0.256,6.271-0.47,12.182-0.64,17.729c-0.173,5.549-0.278,11.029-0.32,16.447
			c-0.044,5.42-0.064,11.201-0.064,17.346v15.359c-1.708-0.172-3.456-0.256-5.248-0.256c-1.878,0-3.542,0.084-4.991,0.256
			c-17.58-20.479-36.225-41.088-55.937-61.824c-0.086,2.477-0.15,4.949-0.192,7.424c-0.044,2.477-0.063,4.992-0.063,7.553v14.848
			c0,5.121,0.02,9.473,0.063,13.057c0.042,3.584,0.106,6.613,0.192,9.09c0.084,2.475,0.17,4.502,0.256,6.078
			c0.084,1.58,0.17,2.84,0.256,3.775c-1.023-0.172-2.048-0.256-3.071-0.256c-1.024,0-2.007,0-2.944,0
			c-1.964,0-3.926,0.084-5.888,0.256c0.17-0.682,0.384-3.113,0.64-7.295c0.256-4.18,0.532-9.281,0.832-15.297
			c0.298-6.016,0.554-12.543,0.768-19.584c0.213-7.039,0.32-13.801,0.32-20.287C150.201,533.659,150.115,528.709,149.945,524.698z"
			/>
		<path fill="#BE1E2D" d="M244.088,557.977c1.748-4.266,4.074-7.826,6.977-10.688c2.899-2.857,6.25-4.992,10.048-6.4
			c3.796-1.408,7.7-2.109,11.712-2.109c9.983,0,17.706,2.814,23.168,8.445c5.46,5.633,8.192,13.271,8.192,22.912
			c0,5.207-0.769,9.9-2.305,14.08c-1.536,4.184-3.691,7.744-6.464,10.689c-2.773,2.941-6.08,5.141-9.92,6.592
			c-3.84,1.449-8.064,2.176-12.672,2.176c-3.84,0-7.616-0.512-11.328-1.537c-3.712-1.021-7.062-2.752-10.048-5.184
			c-2.988-2.434-5.397-5.609-7.231-9.535c-1.837-3.924-2.753-8.746-2.753-14.465C241.464,567.239,242.338,562.247,244.088,557.977z
			 M282.424,550.747c-1.878-4.139-4.992-6.209-9.344-6.209c-3.926,0-7.02,2.305-9.279,6.912c-2.263,4.607-3.393,11.818-3.393,21.633
			c0,3.584,0.212,6.912,0.64,9.982c0.427,3.072,1.131,5.74,2.112,8c0.98,2.264,2.26,4.031,3.84,5.312
			c1.578,1.279,3.562,1.92,5.952,1.92c8.192,0,12.288-10.027,12.288-30.08C285.241,560.709,284.3,554.885,282.424,550.747z"/>
		<path fill="#BE1E2D" d="M327.417,541.083c4.138-1.537,8.256-2.305,12.353-2.305c3.411,0,6.548,0.385,9.407,1.15
			c2.858,0.77,5.332,1.984,7.424,3.648c2.091,1.664,3.713,3.818,4.864,6.465c1.152,2.645,1.729,5.846,1.729,9.6
			c0,5.461-0.064,10.52-0.192,15.168c-0.128,4.652-0.192,9.279-0.192,13.889c0,2.049,0.148,3.646,0.448,4.801
			c0.298,1.15,0.746,2.027,1.345,2.623c0.596,0.598,1.386,0.98,2.367,1.15c0.98,0.174,2.112,0.258,3.393,0.258v3.07
			c-2.477,1.025-4.566,1.793-6.272,2.307c-1.708,0.512-3.542,0.768-5.504,0.768c-3.158,0-5.718-0.768-7.68-2.305
			c-1.964-1.535-3.456-3.754-4.48-6.656c-1.964,2.732-4.246,4.908-6.848,6.529c-2.604,1.619-5.868,2.432-9.792,2.432
			c-3.244,0-6.016-0.428-8.32-1.281c-2.304-0.852-4.204-2.066-5.695-3.646c-1.494-1.578-2.582-3.369-3.265-5.375
			c-0.684-2.004-1.023-4.033-1.023-6.08c0-2.816,0.447-5.248,1.344-7.297c0.896-2.047,2.176-3.795,3.84-5.248
			c1.664-1.449,3.648-2.666,5.952-3.648c2.304-0.979,4.906-1.811,7.808-2.496c3.584-0.852,6.42-1.6,8.513-2.238
			c2.09-0.641,3.647-1.279,4.672-1.92c1.023-0.641,1.684-1.346,1.983-2.111c0.298-0.77,0.448-1.707,0.448-2.816
			c0-3.07-1.088-5.695-3.264-7.873c-2.176-2.176-5.185-3.264-9.024-3.264c-1.452,0-2.944,0.193-4.479,0.576
			c-1.536,0.385-3.009,0.918-4.416,1.6c-1.408,0.686-2.688,1.432-3.84,2.24c-1.152,0.812-2.028,1.686-2.624,2.625h-0.896
			l-1.664-7.68C319.417,544.838,323.277,542.618,327.417,541.083z M346.233,574.17c0.042-1.92,0.063-3.605,0.063-5.057
			c-1.792,1.023-3.691,1.855-5.696,2.496c-2.006,0.641-3.84,1.451-5.504,2.432s-3.029,2.326-4.096,4.033
			c-1.068,1.707-1.6,4.182-1.6,7.424c0,3.158,0.659,5.566,1.983,7.23c1.322,1.664,3.092,2.496,5.312,2.496
			c2.815,0,5.098-1.064,6.848-3.199c1.748-2.133,2.624-5.289,2.624-9.473C346.168,578.885,346.189,576.09,346.233,574.17z"/>
		<path fill="#BE1E2D" d="M379.96,526.747c-0.172-6.996-0.428-14.08-0.768-21.248c1.107,0.172,2.516,0.32,4.224,0.447
			c1.706,0.129,3.498,0.191,5.376,0.191c1.876,0,3.668-0.062,5.376-0.191c1.706-0.127,3.114-0.275,4.224-0.447
			c-0.342,7.168-0.598,14.252-0.768,21.248c-0.172,6.998-0.256,14.678-0.256,23.039l0.256,0.256c2.218-3.584,4.928-6.355,8.128-8.32
			c3.2-1.961,6.848-2.941,10.944-2.941c6.399,0,11.328,1.854,14.784,5.566c3.456,3.711,5.184,9.707,5.184,17.984
			c0,4.352-0.086,8.189-0.256,11.52c-0.172,3.328-0.256,6.656-0.256,9.984c0,2.73,0.063,5.695,0.191,8.895
			c0.128,3.201,0.276,6.295,0.448,9.281c-1.11-0.172-2.518-0.256-4.224-0.256c-1.708,0-3.5,0-5.376,0c-1.878,0-3.67,0-5.376,0
			c-1.708,0-3.116,0.084-4.225,0.256c0.597-4.436,0.98-9.664,1.152-15.68c0.17-6.018,0.256-12.906,0.256-20.672
			c0-5.377-0.918-9.322-2.752-11.84c-1.836-2.518-4.416-3.777-7.744-3.777c-3.84,0-6.656,1.664-8.448,4.992
			s-2.688,7.936-2.688,13.824v5.119c0,1.195,0.02,2.926,0.063,5.186c0.042,2.262,0.106,4.734,0.192,7.424
			c0.084,2.688,0.192,5.42,0.32,8.191c0.128,2.773,0.275,5.184,0.447,7.23c-1.109-0.172-2.518-0.256-4.224-0.256
			c-1.708,0-3.5,0-5.376,0c-1.878,0-3.67,0-5.376,0c-1.708,0-3.116,0.084-4.224,0.256c0.34-6.912,0.596-13.865,0.768-20.863
			c0.17-6.994,0.256-14.676,0.256-23.039v-8.32C380.216,541.424,380.13,533.745,379.96,526.747z"/>
		<path fill="#BE1E2D" d="M453.561,530.842c1.449-5.633,2.771-9.896,3.968-12.801c1.193-2.9,2.388-4.777,3.584-5.631
			c1.193-0.854,2.644-1.281,4.352-1.281c1.024,0,2.068,0.172,3.136,0.512c1.066,0.344,2.049,0.832,2.944,1.475
			c0.896,0.639,1.62,1.471,2.176,2.496c0.555,1.021,0.832,2.176,0.832,3.455c0,0.512-0.063,1.066-0.191,1.662
			c-0.128,0.6-0.471,1.391-1.024,2.369c-0.556,0.982-1.324,2.283-2.304,3.904c-0.982,1.621-2.348,3.67-4.096,6.143
			c-1.75,2.479-3.885,5.484-6.4,9.025c-2.518,3.541-5.568,7.787-9.152,12.736l-3.199-1.281
			C450.317,544.071,452.109,536.473,453.561,530.842z"/>
		<path fill="#BE1E2D" d="M478.202,590.17c0.81,1.238,1.812,2.348,3.008,3.328c1.195,0.98,2.625,1.77,4.289,2.367
			s3.604,0.896,5.824,0.896c2.986,0,5.289-0.768,6.912-2.305c1.619-1.535,2.432-3.199,2.432-4.992c0-1.961-0.727-3.539-2.176-4.736
			c-1.453-1.191-3.264-2.279-5.441-3.264c-2.176-0.979-4.543-1.984-7.104-3.008s-4.929-2.324-7.104-3.904
			c-2.176-1.578-3.99-3.561-5.439-5.951c-1.452-2.389-2.177-5.461-2.177-9.217c0-3.584,0.66-6.676,1.984-9.279
			c1.322-2.602,3.05-4.734,5.185-6.398c2.132-1.664,4.544-2.9,7.231-3.713c2.689-0.811,5.355-1.215,8-1.215
			c3.584,0,6.762,0.512,9.537,1.533c2.771,1.025,5.609,2.52,8.512,4.48c-0.768,1.709-1.408,3.543-1.92,5.504
			c-0.512,1.965-0.895,3.885-1.152,5.76h-3.584c-0.256-1.021-0.684-2.152-1.279-3.391c-0.6-1.236-1.408-2.41-2.434-3.521
			c-1.023-1.107-2.262-2.025-3.711-2.752c-1.453-0.725-3.199-1.088-5.248-1.088c-2.561,0-4.717,0.686-6.465,2.047
			c-1.75,1.367-2.623,3.158-2.623,5.377c0,2.049,0.746,3.691,2.24,4.93c1.492,1.236,3.348,2.324,5.568,3.264
			c2.217,0.939,4.648,1.877,7.295,2.814c2.645,0.939,5.076,2.156,7.297,3.648c2.217,1.494,4.074,3.436,5.566,5.824
			s2.24,5.461,2.24,9.215c0,3.756-0.684,6.977-2.047,9.664c-1.367,2.688-3.201,4.908-5.506,6.656
			c-2.303,1.75-4.928,3.008-7.871,3.775c-2.945,0.77-6.039,1.152-9.281,1.152c-3.84,0-7.295-0.557-10.368-1.664
			c-3.071-1.107-5.504-2.26-7.296-3.457c1.024-4.096,1.664-8.191,1.92-12.287h3.2C476.73,587.631,477.389,588.934,478.202,590.17z"
			/>
		<path fill="#BE1E2D" d="M565.049,524.698c-0.172-4.012-0.301-7.553-0.385-10.623c2.389,0.428,4.309,0.639,5.76,0.639
			c1.449,0,3.371-0.211,5.76-0.639c9.301,10.324,18.496,20.479,27.584,30.463c9.09,9.982,18.41,20.141,27.969,30.465v-11.137V551.45
			c0-4.182-0.021-8.297-0.064-12.354c-0.043-4.051-0.086-7.785-0.127-11.199c-0.045-3.412-0.129-6.355-0.256-8.832
			c-0.129-2.475-0.279-4.139-0.449-4.99c2.391,0.428,4.311,0.639,5.76,0.639c1.451,0,3.371-0.211,5.762-0.639
			c-0.43,7.766-0.77,14.781-1.023,21.055c-0.256,6.273-0.471,12.182-0.641,17.729c-0.172,5.549-0.277,11.029-0.318,16.447
			c-0.045,5.42-0.064,11.201-0.064,17.346v15.359c-1.707-0.172-3.455-0.256-5.248-0.256c-1.879,0-3.541,0.084-4.992,0.256
			c-17.58-20.479-36.225-41.088-55.936-61.824c-0.086,2.477-0.15,4.949-0.191,7.424c-0.045,2.477-0.064,4.992-0.064,7.553v14.848
			c0,5.121,0.021,9.473,0.064,13.057c0.041,3.584,0.105,6.613,0.191,9.09c0.084,2.475,0.17,4.502,0.256,6.078
			c0.084,1.58,0.17,2.84,0.256,3.775c-1.023-0.172-2.049-0.256-3.072-0.256s-2.006,0-2.943,0c-1.965,0-3.926,0.084-5.889,0.256
			c0.17-0.682,0.385-3.113,0.641-7.295c0.256-4.18,0.531-9.281,0.832-15.297c0.297-6.016,0.555-12.543,0.77-19.584
			c0.211-7.039,0.318-13.801,0.318-20.287C565.305,533.659,565.219,528.709,565.049,524.698z"/>
		<path fill="#BE1E2D" d="M659.194,557.977c1.748-4.266,4.072-7.826,6.975-10.688c2.9-2.857,6.25-4.992,10.049-6.4
			c3.795-1.408,7.699-2.109,11.711-2.109c9.984,0,17.707,2.814,23.168,8.445c5.461,5.633,8.193,13.271,8.193,22.912
			c0,5.207-0.77,9.9-2.305,14.08c-1.535,4.184-3.691,7.744-6.465,10.689c-2.773,2.941-6.078,5.141-9.92,6.592
			c-3.84,1.449-8.062,2.176-12.672,2.176c-3.84,0-7.615-0.512-11.328-1.537c-3.711-1.021-7.062-2.752-10.047-5.184
			c-2.988-2.434-5.398-5.609-7.232-9.535c-1.836-3.924-2.752-8.746-2.752-14.465C656.569,567.239,657.444,562.247,659.194,557.977z
			 M697.53,550.747c-1.879-4.139-4.992-6.209-9.346-6.209c-3.926,0-7.02,2.305-9.279,6.912c-2.262,4.607-3.393,11.818-3.393,21.633
			c0,3.584,0.213,6.912,0.641,9.982c0.426,3.072,1.131,5.74,2.111,8c0.98,2.264,2.262,4.031,3.84,5.312
			c1.578,1.279,3.562,1.92,5.953,1.92c8.191,0,12.287-10.027,12.287-30.08C700.344,560.709,699.405,554.885,697.53,550.747z"/>
		<path fill="#BE1E2D" d="M763.577,544.538c0,1.109,0.129,2.176,0.385,3.201l-11.266-0.258c-0.172,1.965-0.318,4.225-0.447,6.783
			c-0.127,2.562-0.213,5.164-0.256,7.811c-0.045,2.645-0.086,5.205-0.129,7.68s-0.062,4.566-0.062,6.271
			c0,4.438,0.105,8.021,0.32,10.752c0.211,2.73,0.574,4.82,1.088,6.271c0.512,1.451,1.234,2.432,2.176,2.943
			c0.939,0.512,2.133,0.768,3.584,0.768c1.619,0,2.816-0.104,3.584-0.318c0.77-0.213,1.535-0.531,2.305-0.961v5.248
			c-1.707,0.77-3.842,1.449-6.398,2.049c-2.561,0.596-5.078,0.896-7.553,0.896c-10.838,0-16.256-6.484-16.256-19.457
			c0-2.473,0.041-5.268,0.127-8.383c0.084-3.115,0.191-6.314,0.318-9.6c0.131-3.285,0.234-6.529,0.32-9.73
			c0.084-3.199,0.129-6.164,0.129-8.895l-8.961,0.127c0.256-1.023,0.385-2.092,0.385-3.199c0-1.025-0.129-2.176-0.385-3.457
			l8.961,0.385c0-2.645-0.045-5.121-0.129-7.424c-0.086-2.305-0.213-5.076-0.383-8.32c2.984-1.193,5.93-2.453,8.83-3.775
			s5.803-2.707,8.705-4.16l1.279,0.896c-0.172,1.365-0.32,2.965-0.447,4.799c-0.129,1.838-0.256,3.758-0.385,5.762
			c-0.127,2.006-0.213,4.055-0.256,6.145c-0.043,2.092-0.064,4.076-0.064,5.951l11.266-0.256
			C763.706,542.362,763.577,543.514,763.577,544.538z"/>
		<path fill="#BE1E2D" d="M790.329,581.018c0.682,2.988,1.727,5.568,3.135,7.744s3.201,3.883,5.377,5.119
			c2.176,1.238,4.713,1.857,7.615,1.857c5.889,0,11.137-1.92,15.744-5.762l1.535,1.152l-2.814,7.168
			c-2.135,1.621-4.693,2.924-7.682,3.904c-2.986,0.979-6.91,1.471-11.775,1.471c-4.182,0-8.148-0.576-11.904-1.727
			c-3.756-1.152-7.061-3.053-9.92-5.697s-5.119-5.994-6.783-10.047s-2.496-8.896-2.496-14.529c0-5.545,0.746-10.367,2.24-14.463
			c1.492-4.096,3.562-7.508,6.207-10.24c2.646-2.729,5.781-4.777,9.408-6.145c3.627-1.363,7.572-2.047,11.84-2.047
			c8.449,0,14.912,2.475,19.393,7.424s6.721,11.947,6.721,20.992v2.688c0,0.77-0.043,1.279-0.127,1.535h-36.736
			C789.303,574.833,789.643,578.032,790.329,581.018z M806.647,550.297c-1.408-3.84-3.775-5.76-7.104-5.76
			c-1.879,0-3.457,0.641-4.736,1.92c-1.279,1.281-2.305,2.924-3.072,4.928c-0.768,2.006-1.344,4.27-1.729,6.785
			c-0.383,2.518-0.619,5.014-0.703,7.488h19.711C808.842,559.258,808.055,554.137,806.647,550.297z"/>
		<path fill="#BE1E2D" d="M840.952,590.17c0.811,1.238,1.812,2.348,3.008,3.328c1.193,0.98,2.625,1.77,4.289,2.367
			s3.604,0.896,5.822,0.896c2.986,0,5.291-0.768,6.912-2.305c1.621-1.535,2.434-3.199,2.434-4.992c0-1.961-0.727-3.539-2.178-4.736
			c-1.451-1.191-3.264-2.279-5.439-3.264c-2.176-0.979-4.543-1.984-7.104-3.008s-4.928-2.324-7.104-3.904
			c-2.176-1.578-3.99-3.561-5.439-5.951c-1.451-2.389-2.178-5.461-2.178-9.217c0-3.584,0.66-6.676,1.984-9.279
			c1.322-2.602,3.051-4.734,5.186-6.398c2.131-1.664,4.543-2.9,7.23-3.713c2.689-0.811,5.355-1.215,8-1.215
			c3.584,0,6.762,0.512,9.537,1.533c2.77,1.025,5.609,2.52,8.512,4.48c-0.77,1.709-1.408,3.543-1.92,5.504
			c-0.512,1.965-0.896,3.885-1.152,5.76h-3.584c-0.256-1.021-0.684-2.152-1.279-3.391c-0.6-1.236-1.408-2.41-2.434-3.521
			c-1.021-1.107-2.262-2.025-3.711-2.752c-1.451-0.725-3.199-1.088-5.248-1.088c-2.561,0-4.717,0.686-6.465,2.047
			c-1.75,1.367-2.623,3.158-2.623,5.377c0,2.049,0.746,3.691,2.24,4.93c1.49,1.236,3.348,2.324,5.566,3.264s4.65,1.877,7.297,2.814
			c2.645,0.939,5.076,2.156,7.297,3.648c2.217,1.494,4.072,3.436,5.566,5.824c1.492,2.389,2.24,5.461,2.24,9.215
			c0,3.756-0.684,6.977-2.049,9.664s-3.199,4.908-5.504,6.656c-2.305,1.75-4.928,3.008-7.871,3.775
			c-2.943,0.77-6.039,1.152-9.281,1.152c-3.84,0-7.295-0.557-10.367-1.664s-5.504-2.26-7.297-3.457
			c1.025-4.096,1.664-8.191,1.922-12.287h3.199C839.479,587.631,840.139,588.934,840.952,590.17z"/>
	</g>
	<g>
		<path fill="#8D7167" d="M143.041,622.656v-1.486h21.386v1.486h-9.853v26.429h-1.72v-26.429H143.041z"/>
		<path fill="#8D7167" d="M167.554,621.169v12.12h0.079c0.26-0.756,0.631-1.427,1.114-2.014c0.482-0.586,1.042-1.088,1.681-1.505
			s1.335-0.729,2.092-0.938c0.756-0.208,1.525-0.312,2.307-0.312c1.173,0,2.17,0.144,2.991,0.43
			c0.821,0.287,1.492,0.665,2.014,1.134c0.521,0.47,0.932,0.997,1.231,1.584c0.299,0.586,0.515,1.18,0.645,1.778
			c0.13,0.601,0.208,1.18,0.235,1.74c0.025,0.561,0.039,1.049,0.039,1.466v12.433h-1.486v-12.706c0-0.495-0.039-1.12-0.117-1.877
			c-0.078-0.756-0.307-1.479-0.684-2.17c-0.378-0.69-0.952-1.283-1.72-1.778c-0.769-0.495-1.832-0.743-3.187-0.743
			c-1.147,0-2.164,0.209-3.049,0.626c-0.887,0.417-1.642,0.997-2.268,1.739c-0.625,0.743-1.102,1.629-1.427,2.658
			c-0.326,1.03-0.489,2.157-0.489,3.382v10.869h-1.485v-27.915H167.554z"/>
		<path fill="#8D7167" d="M185.421,639.037c0-1.433,0.202-2.782,0.606-4.046c0.404-1.265,0.997-2.379,1.779-3.343
			c0.782-0.964,1.746-1.727,2.893-2.287s2.463-0.841,3.949-0.841c1.486,0,2.802,0.28,3.949,0.841s2.111,1.323,2.893,2.287
			c0.782,0.964,1.375,2.078,1.779,3.343c0.403,1.264,0.606,2.613,0.606,4.046c0,1.434-0.203,2.789-0.606,4.066
			c-0.405,1.277-0.997,2.392-1.779,3.343c-0.782,0.951-1.746,1.707-2.893,2.268c-1.147,0.56-2.463,0.84-3.949,0.84
			c-1.485,0-2.802-0.28-3.949-0.84c-1.147-0.561-2.111-1.316-2.893-2.268c-0.782-0.951-1.375-2.065-1.779-3.343
			C185.623,641.826,185.421,640.47,185.421,639.037z M186.907,639.037c0,1.199,0.169,2.353,0.508,3.46
			c0.338,1.108,0.833,2.092,1.485,2.952c0.651,0.86,1.459,1.544,2.424,2.053c0.964,0.508,2.072,0.762,3.323,0.762
			c1.251,0,2.359-0.254,3.323-0.762c0.964-0.509,1.772-1.192,2.424-2.053s1.147-1.844,1.486-2.952
			c0.338-1.107,0.508-2.261,0.508-3.46c0-1.198-0.17-2.352-0.508-3.46c-0.339-1.107-0.834-2.092-1.486-2.951
			c-0.651-0.86-1.46-1.545-2.424-2.053c-0.964-0.509-2.072-0.763-3.323-0.763c-1.251,0-2.359,0.254-3.323,0.763
			c-0.965,0.508-1.773,1.192-2.424,2.053c-0.652,0.859-1.147,1.844-1.485,2.951C187.076,636.685,186.907,637.838,186.907,639.037z"
			/>
		<path fill="#8D7167" d="M223.266,649.084h-1.486v-4.301h-0.078c-0.261,0.757-0.632,1.427-1.114,2.014
			c-0.482,0.587-1.043,1.089-1.681,1.505c-0.639,0.418-1.336,0.73-2.092,0.938s-1.524,0.312-2.307,0.312
			c-1.173,0-2.169-0.144-2.991-0.43c-0.821-0.286-1.492-0.665-2.013-1.134c-0.522-0.469-0.933-0.997-1.232-1.583
			c-0.3-0.587-0.515-1.18-0.645-1.779s-0.209-1.179-0.234-1.739c-0.026-0.561-0.039-1.049-0.039-1.467v-12.433h1.485v12.707
			c0,0.521,0.04,1.153,0.118,1.896c0.078,0.743,0.306,1.46,0.684,2.15c0.377,0.691,0.944,1.284,1.701,1.779
			c0.755,0.495,1.824,0.742,3.206,0.742c1.121,0,2.131-0.208,3.03-0.625c0.899-0.417,1.662-0.997,2.287-1.74
			c0.625-0.742,1.101-1.628,1.427-2.658c0.326-1.029,0.489-2.156,0.489-3.382v-10.869h1.486V649.084z"/>
		<path fill="#8D7167" d="M244.221,628.989v19.04c0,1.12-0.13,2.209-0.39,3.265c-0.26,1.056-0.709,1.987-1.346,2.795
			c-0.637,0.808-1.515,1.453-2.633,1.936c-1.118,0.482-2.535,0.724-4.251,0.724c-1.066,0-2.067-0.111-3.003-0.333
			c-0.936-0.222-1.755-0.573-2.457-1.055c-0.703-0.483-1.268-1.121-1.697-1.916c-0.429-0.796-0.669-1.779-0.721-2.952h1.486
			c0.078,0.886,0.299,1.643,0.665,2.268c0.365,0.626,0.84,1.14,1.427,1.545c0.586,0.403,1.245,0.696,1.975,0.879
			c0.729,0.183,1.511,0.274,2.346,0.274c1.381,0,2.535-0.209,3.46-0.626c0.925-0.417,1.662-0.958,2.209-1.622
			c0.547-0.665,0.932-1.421,1.153-2.268c0.221-0.848,0.332-1.701,0.332-2.562v-4.613h-0.113c-0.703,1.486-1.658,2.62-2.868,3.401
			c-1.209,0.782-2.672,1.173-4.389,1.173c-1.482,0-2.763-0.254-3.842-0.762c-1.079-0.509-1.977-1.212-2.691-2.111
			c-0.715-0.899-1.249-1.948-1.599-3.147c-0.352-1.198-0.527-2.502-0.527-3.909c0-1.33,0.189-2.594,0.567-3.793
			c0.377-1.198,0.932-2.248,1.662-3.146c0.729-0.899,1.635-1.616,2.717-2.15c1.081-0.534,2.326-0.802,3.734-0.802
			c1.589,0,3.055,0.404,4.398,1.212c1.342,0.809,2.3,1.955,2.874,3.44h0.078v-4.184H244.221z M235.424,629.81
			c-1.226,0-2.288,0.248-3.187,0.743c-0.899,0.495-1.642,1.146-2.229,1.954c-0.586,0.809-1.03,1.728-1.329,2.757
			c-0.3,1.03-0.45,2.079-0.45,3.147c0,1.173,0.149,2.287,0.45,3.343c0.299,1.055,0.755,1.974,1.368,2.756
			c0.612,0.782,1.368,1.401,2.268,1.857s1.935,0.684,3.108,0.684c1.225,0,2.293-0.234,3.206-0.703
			c0.912-0.47,1.674-1.107,2.287-1.916c0.612-0.808,1.068-1.727,1.369-2.757c0.299-1.029,0.449-2.117,0.449-3.264
			c0-1.121-0.15-2.202-0.449-3.245c-0.3-1.042-0.756-1.961-1.369-2.757c-0.613-0.794-1.375-1.427-2.287-1.896
			C237.717,630.044,236.649,629.81,235.424,629.81z"/>
		<path fill="#8D7167" d="M250.124,621.169v12.12h0.079c0.26-0.756,0.631-1.427,1.114-2.014c0.482-0.586,1.042-1.088,1.681-1.505
			s1.335-0.729,2.092-0.938c0.756-0.208,1.525-0.312,2.307-0.312c1.173,0,2.17,0.144,2.991,0.43
			c0.821,0.287,1.492,0.665,2.014,1.134c0.521,0.47,0.932,0.997,1.231,1.584c0.299,0.586,0.515,1.18,0.645,1.778
			c0.13,0.601,0.208,1.18,0.235,1.74c0.025,0.561,0.039,1.049,0.039,1.466v12.433h-1.486v-12.706c0-0.495-0.039-1.12-0.117-1.877
			c-0.078-0.756-0.307-1.479-0.684-2.17c-0.378-0.69-0.952-1.283-1.72-1.778c-0.769-0.495-1.832-0.743-3.187-0.743
			c-1.147,0-2.164,0.209-3.049,0.626c-0.887,0.417-1.642,0.997-2.268,1.739c-0.625,0.743-1.102,1.629-1.427,2.658
			c-0.326,1.03-0.489,2.157-0.489,3.382v10.869h-1.485v-27.915H250.124z"/>
		<path fill="#8D7167" d="M276.318,630.279h-4.379v14.036c0,0.808,0.091,1.446,0.274,1.915c0.182,0.47,0.462,0.828,0.84,1.075
			c0.377,0.248,0.834,0.398,1.368,0.45c0.534,0.053,1.154,0.065,1.857,0.039v1.29c-0.756,0.052-1.493,0.045-2.209-0.02
			c-0.717-0.064-1.349-0.26-1.896-0.587c-0.547-0.325-0.984-0.813-1.31-1.466c-0.326-0.651-0.463-1.55-0.41-2.697v-14.036h-3.714
			v-1.29h3.714v-6.255h1.485v6.255h4.379V630.279z"/>
		<path fill="#8D7167" d="M279.758,642.399c0.052,0.938,0.26,1.767,0.625,2.482c0.365,0.718,0.841,1.329,1.427,1.838
			c0.586,0.508,1.271,0.893,2.052,1.153c0.782,0.261,1.629,0.391,2.542,0.391c0.651,0,1.349-0.059,2.091-0.176
			c0.743-0.117,1.433-0.332,2.072-0.645c0.638-0.313,1.166-0.749,1.583-1.311c0.417-0.56,0.625-1.271,0.625-2.13
			c0-1.121-0.339-1.968-1.017-2.542c-0.678-0.572-1.531-1.017-2.561-1.329c-1.03-0.312-2.138-0.566-3.323-0.763
			c-1.187-0.195-2.294-0.488-3.323-0.879c-1.03-0.392-1.883-0.944-2.561-1.662c-0.678-0.717-1.016-1.766-1.016-3.147
			c0-0.99,0.221-1.817,0.665-2.482c0.443-0.664,1.01-1.192,1.701-1.583c0.69-0.391,1.466-0.671,2.326-0.841
			c0.86-0.169,1.72-0.254,2.58-0.254c1.042,0,2.02,0.117,2.933,0.352c0.912,0.234,1.701,0.613,2.365,1.134
			c0.665,0.521,1.186,1.187,1.564,1.994c0.377,0.809,0.567,1.785,0.567,2.933h-1.486c0-0.912-0.15-1.694-0.45-2.346
			c-0.3-0.651-0.717-1.18-1.251-1.584c-0.535-0.403-1.167-0.703-1.896-0.899c-0.73-0.195-1.512-0.293-2.346-0.293
			c-0.678,0-1.362,0.065-2.052,0.195c-0.691,0.131-1.31,0.353-1.857,0.665s-0.997,0.717-1.349,1.212
			c-0.352,0.495-0.528,1.095-0.528,1.798c0,0.809,0.196,1.461,0.586,1.955c0.391,0.496,0.905,0.894,1.544,1.192
			c0.638,0.3,1.355,0.541,2.15,0.724c0.794,0.183,1.596,0.365,2.404,0.547c0.99,0.183,1.922,0.398,2.795,0.646
			c0.873,0.248,1.628,0.586,2.268,1.017c0.638,0.43,1.14,0.984,1.505,1.661c0.364,0.679,0.547,1.538,0.547,2.581
			c0,1.094-0.248,1.993-0.743,2.697s-1.121,1.271-1.876,1.7c-0.756,0.431-1.597,0.729-2.521,0.899
			c-0.926,0.169-1.832,0.254-2.717,0.254c-1.147,0-2.209-0.149-3.187-0.449c-0.978-0.299-1.832-0.756-2.561-1.368
			c-0.73-0.612-1.304-1.362-1.72-2.248c-0.417-0.886-0.639-1.916-0.665-3.089H279.758z"/>
		<path fill="#8D7167" d="M307.789,639.037c0-1.433,0.202-2.782,0.606-4.046c0.404-1.265,0.997-2.379,1.779-3.343
			c0.782-0.964,1.746-1.727,2.893-2.287s2.463-0.841,3.949-0.841c1.486,0,2.802,0.28,3.949,0.841s2.111,1.323,2.893,2.287
			c0.782,0.964,1.375,2.078,1.779,3.343c0.403,1.264,0.606,2.613,0.606,4.046c0,1.434-0.203,2.789-0.606,4.066
			c-0.405,1.277-0.997,2.392-1.779,3.343c-0.782,0.951-1.746,1.707-2.893,2.268c-1.147,0.56-2.463,0.84-3.949,0.84
			c-1.485,0-2.802-0.28-3.949-0.84c-1.147-0.561-2.111-1.316-2.893-2.268c-0.782-0.951-1.375-2.065-1.779-3.343
			C307.991,641.826,307.789,640.47,307.789,639.037z M309.275,639.037c0,1.199,0.169,2.353,0.508,3.46
			c0.338,1.108,0.833,2.092,1.485,2.952c0.651,0.86,1.459,1.544,2.424,2.053c0.964,0.508,2.072,0.762,3.323,0.762
			c1.251,0,2.359-0.254,3.323-0.762c0.964-0.509,1.772-1.192,2.424-2.053s1.147-1.844,1.486-2.952
			c0.338-1.107,0.508-2.261,0.508-3.46c0-1.198-0.17-2.352-0.508-3.46c-0.339-1.107-0.834-2.092-1.486-2.951
			c-0.651-0.86-1.46-1.545-2.424-2.053c-0.964-0.509-2.072-0.763-3.323-0.763c-1.251,0-2.359,0.254-3.323,0.763
			c-0.965,0.508-1.773,1.192-2.424,2.053c-0.652,0.859-1.147,1.844-1.485,2.951C309.444,636.685,309.275,637.838,309.275,639.037z"
			/>
		<path fill="#8D7167" d="M329.722,628.989h1.485v4.301h0.079c0.26-0.756,0.631-1.427,1.114-2.014
			c0.482-0.586,1.042-1.088,1.681-1.505s1.335-0.729,2.092-0.938c0.756-0.208,1.525-0.312,2.307-0.312
			c1.173,0,2.17,0.144,2.991,0.43c0.821,0.287,1.492,0.665,2.014,1.134c0.521,0.47,0.932,0.997,1.231,1.584
			c0.299,0.586,0.515,1.18,0.645,1.778c0.13,0.601,0.208,1.18,0.235,1.74c0.025,0.561,0.039,1.049,0.039,1.466v12.433h-1.486
			v-12.706c0-0.495-0.039-1.12-0.117-1.877c-0.078-0.756-0.307-1.479-0.684-2.17c-0.378-0.69-0.952-1.283-1.72-1.778
			c-0.769-0.495-1.832-0.743-3.187-0.743c-1.147,0-2.164,0.209-3.049,0.626c-0.887,0.417-1.642,0.997-2.268,1.739
			c-0.625,0.743-1.102,1.629-1.427,2.658c-0.326,1.03-0.489,2.157-0.489,3.382v10.869h-1.485V628.989z"/>
		<path fill="#8D7167" d="M361.154,621.169h1.72v12.668h17.828v-12.668h1.72v27.915h-1.72v-13.762h-17.828v13.762h-1.72V621.169z"/>
		<path fill="#8D7167" d="M387.623,639.232v0.235c0,1.173,0.156,2.293,0.47,3.362c0.313,1.068,0.777,2.007,1.392,2.814
			c0.614,0.809,1.385,1.446,2.313,1.916c0.927,0.469,2.005,0.703,3.234,0.703c2.012,0,3.606-0.527,4.782-1.583
			c1.176-1.056,1.986-2.521,2.431-4.398h1.486c-0.443,2.346-1.401,4.145-2.874,5.396c-1.473,1.251-3.421,1.876-5.845,1.876
			c-1.486,0-2.783-0.268-3.89-0.801c-1.108-0.534-2.033-1.265-2.776-2.189s-1.297-2.02-1.662-3.284
			c-0.365-1.264-0.547-2.626-0.547-4.086c0-1.407,0.189-2.756,0.567-4.046c0.377-1.29,0.944-2.424,1.701-3.401
			c0.756-0.978,1.701-1.76,2.834-2.346c1.134-0.587,2.469-0.88,4.007-0.88c1.408,0,2.652,0.261,3.734,0.782
			c1.081,0.521,1.987,1.231,2.717,2.131c0.729,0.898,1.283,1.941,1.661,3.127c0.378,1.187,0.567,2.457,0.567,3.812
			c0,0.13-0.006,0.28-0.02,0.449c-0.013,0.17-0.02,0.307-0.02,0.41H387.623z M402.401,637.942c-0.053-1.095-0.235-2.131-0.549-3.108
			c-0.314-0.977-0.777-1.837-1.392-2.58c-0.614-0.742-1.359-1.335-2.234-1.778c-0.876-0.443-1.875-0.665-2.999-0.665
			c-1.202,0-2.261,0.229-3.175,0.685c-0.915,0.456-1.686,1.056-2.312,1.798c-0.627,0.743-1.111,1.61-1.45,2.601
			c-0.34,0.99-0.549,2.007-0.627,3.049H402.401z"/>
		<path fill="#8D7167" d="M420.698,645.096h-0.078c-0.234,0.601-0.574,1.167-1.017,1.701c-0.443,0.534-0.984,1.011-1.623,1.427
			c-0.639,0.417-1.362,0.743-2.169,0.978c-0.808,0.234-1.695,0.352-2.659,0.352c-2.138,0-3.792-0.463-4.965-1.388
			s-1.759-2.352-1.759-4.281c0-1.173,0.235-2.13,0.704-2.873c0.469-0.743,1.062-1.329,1.779-1.76
			c0.716-0.43,1.511-0.735,2.385-0.918c0.873-0.183,1.713-0.313,2.521-0.392l2.307-0.195c1.068-0.078,1.909-0.201,2.522-0.371
			c0.612-0.17,1.075-0.404,1.388-0.704c0.313-0.299,0.508-0.684,0.586-1.153c0.078-0.469,0.117-1.056,0.117-1.759
			c0-0.548-0.104-1.056-0.312-1.525c-0.209-0.469-0.535-0.886-0.978-1.251c-0.443-0.364-1.017-0.651-1.72-0.86
			c-0.704-0.208-1.564-0.312-2.58-0.312c-1.799,0-3.252,0.443-4.359,1.329c-1.108,0.887-1.714,2.229-1.818,4.027h-1.486
			c0.104-2.215,0.814-3.877,2.131-4.985c1.316-1.107,3.186-1.661,5.61-1.661c2.424,0,4.189,0.476,5.297,1.427
			c1.107,0.952,1.662,2.196,1.662,3.733v11.69c0,0.287,0.006,0.573,0.02,0.859c0.013,0.287,0.059,0.548,0.137,0.782
			s0.208,0.424,0.391,0.567c0.182,0.144,0.443,0.215,0.782,0.215c0.26,0,0.625-0.039,1.095-0.117v1.251
			c-0.391,0.104-0.795,0.156-1.212,0.156c-0.6,0-1.075-0.078-1.427-0.234c-0.352-0.156-0.619-0.365-0.801-0.626
			c-0.183-0.26-0.307-0.566-0.372-0.919c-0.065-0.352-0.098-0.735-0.098-1.153V645.096z M420.698,637.668
			c-0.365,0.443-0.918,0.743-1.662,0.899c-0.743,0.156-1.57,0.273-2.482,0.352l-2.502,0.234c-0.73,0.078-1.46,0.189-2.189,0.333
			c-0.73,0.144-1.388,0.385-1.975,0.723c-0.586,0.339-1.062,0.802-1.427,1.388c-0.365,0.587-0.547,1.35-0.547,2.287
			c0,1.486,0.469,2.588,1.407,3.304c0.938,0.718,2.229,1.075,3.871,1.075c1.694,0,3.036-0.306,4.027-0.919
			c0.99-0.611,1.746-1.315,2.268-2.11c0.521-0.795,0.854-1.564,0.997-2.307c0.143-0.743,0.215-1.245,0.215-1.506V637.668z"/>
		<path fill="#8D7167" d="M428.751,621.169v27.915h-1.486v-27.915H428.751z"/>
		<path fill="#8D7167" d="M440.871,630.279h-4.379v14.036c0,0.808,0.091,1.446,0.274,1.915c0.182,0.47,0.462,0.828,0.84,1.075
			c0.377,0.248,0.834,0.398,1.368,0.45c0.534,0.053,1.154,0.065,1.857,0.039v1.29c-0.756,0.052-1.493,0.045-2.209-0.02
			c-0.717-0.064-1.349-0.26-1.896-0.587c-0.547-0.325-0.984-0.813-1.31-1.466c-0.326-0.651-0.463-1.55-0.41-2.697v-14.036h-3.714
			v-1.29h3.714v-6.255h1.485v6.255h4.379V630.279z"/>
		<path fill="#8D7167" d="M445.093,621.169v12.12h0.079c0.26-0.756,0.631-1.427,1.114-2.014c0.482-0.586,1.042-1.088,1.681-1.505
			s1.335-0.729,2.092-0.938c0.756-0.208,1.525-0.312,2.307-0.312c1.173,0,2.17,0.144,2.991,0.43
			c0.821,0.287,1.492,0.665,2.014,1.134c0.521,0.47,0.932,0.997,1.231,1.584c0.299,0.586,0.515,1.18,0.645,1.778
			c0.13,0.601,0.208,1.18,0.235,1.74c0.025,0.561,0.039,1.049,0.039,1.466v12.433h-1.486v-12.706c0-0.495-0.039-1.12-0.117-1.877
			c-0.078-0.756-0.307-1.479-0.684-2.17c-0.378-0.69-0.952-1.283-1.72-1.778c-0.769-0.495-1.832-0.743-3.187-0.743
			c-1.147,0-2.164,0.209-3.049,0.626c-0.887,0.417-1.642,0.997-2.268,1.739c-0.625,0.743-1.102,1.629-1.427,2.658
			c-0.326,1.03-0.489,2.157-0.489,3.382v10.869h-1.485v-27.915H445.093z"/>
		<path fill="#8D7167" d="M473.985,635.127c0-2.033,0.299-3.942,0.899-5.728c0.599-1.785,1.466-3.336,2.6-4.652
			s2.528-2.353,4.183-3.108c1.655-0.756,3.524-1.134,5.61-1.134c1.642,0,3.062,0.215,4.262,0.645
			c1.198,0.431,2.209,0.965,3.029,1.604c0.821,0.639,1.492,1.336,2.014,2.092s0.919,1.466,1.192,2.131
			c0.273,0.664,0.463,1.238,0.567,1.72c0.104,0.482,0.156,0.75,0.156,0.802h-1.721c-0.183-1.173-0.561-2.222-1.134-3.147
			c-0.573-0.925-1.29-1.714-2.15-2.365c-0.859-0.651-1.817-1.146-2.873-1.485s-2.17-0.509-3.343-0.509
			c-1.825,0-3.454,0.353-4.887,1.056c-1.434,0.704-2.646,1.648-3.636,2.835c-0.991,1.186-1.747,2.574-2.268,4.163
			c-0.522,1.591-0.782,3.284-0.782,5.083c0,1.798,0.26,3.493,0.782,5.082c0.521,1.59,1.277,2.979,2.268,4.164
			c0.99,1.187,2.202,2.131,3.636,2.834c1.433,0.704,3.062,1.056,4.887,1.056c1.354,0,2.625-0.279,3.812-0.84
			c1.186-0.561,2.222-1.304,3.108-2.229c0.886-0.925,1.597-1.994,2.131-3.206s0.841-2.47,0.919-3.773h1.72
			c-0.156,1.669-0.566,3.206-1.231,4.614c-0.664,1.407-1.512,2.626-2.541,3.655c-1.03,1.029-2.223,1.831-3.577,2.404
			c-1.355,0.573-2.803,0.86-4.34,0.86c-2.086,0-3.956-0.379-5.61-1.134c-1.655-0.756-3.049-1.792-4.183-3.108
			s-2.001-2.867-2.6-4.652C474.284,639.07,473.985,637.161,473.985,635.127z"/>
		<path fill="#8D7167" d="M515.154,645.096h-0.078c-0.235,0.601-0.574,1.167-1.017,1.701c-0.443,0.534-0.984,1.011-1.623,1.427
			c-0.639,0.417-1.362,0.743-2.17,0.978s-1.694,0.352-2.658,0.352c-2.138,0-3.792-0.463-4.965-1.388s-1.76-2.352-1.76-4.281
			c0-1.173,0.234-2.13,0.704-2.873c0.469-0.743,1.062-1.329,1.778-1.76c0.717-0.43,1.512-0.735,2.385-0.918s1.714-0.313,2.522-0.392
			l2.307-0.195c1.068-0.078,1.908-0.201,2.521-0.371c0.612-0.17,1.075-0.404,1.388-0.704c0.312-0.299,0.508-0.684,0.587-1.153
			c0.078-0.469,0.117-1.056,0.117-1.759c0-0.548-0.104-1.056-0.313-1.525c-0.209-0.469-0.534-0.886-0.977-1.251
			c-0.444-0.364-1.017-0.651-1.721-0.86c-0.704-0.208-1.563-0.312-2.58-0.312c-1.799,0-3.252,0.443-4.359,1.329
			c-1.108,0.887-1.714,2.229-1.818,4.027h-1.485c0.104-2.215,0.814-3.877,2.131-4.985c1.315-1.107,3.187-1.661,5.61-1.661
			s4.189,0.476,5.297,1.427c1.108,0.952,1.662,2.196,1.662,3.733v11.69c0,0.287,0.006,0.573,0.02,0.859
			c0.013,0.287,0.059,0.548,0.137,0.782s0.208,0.424,0.391,0.567s0.443,0.215,0.782,0.215c0.261,0,0.626-0.039,1.095-0.117v1.251
			c-0.391,0.104-0.795,0.156-1.212,0.156c-0.6,0-1.075-0.078-1.427-0.234c-0.353-0.156-0.62-0.365-0.802-0.626
			c-0.183-0.26-0.307-0.566-0.371-0.919c-0.065-0.352-0.098-0.735-0.098-1.153V645.096z M515.154,637.668
			c-0.365,0.443-0.919,0.743-1.662,0.899c-0.742,0.156-1.57,0.273-2.482,0.352l-2.502,0.234c-0.73,0.078-1.46,0.189-2.189,0.333
			c-0.73,0.144-1.388,0.385-1.975,0.723c-0.586,0.339-1.062,0.802-1.427,1.388c-0.365,0.587-0.548,1.35-0.548,2.287
			c0,1.486,0.47,2.588,1.408,3.304c0.938,0.718,2.229,1.075,3.87,1.075c1.694,0,3.036-0.306,4.027-0.919
			c0.99-0.611,1.745-1.315,2.268-2.11c0.521-0.795,0.853-1.564,0.996-2.307c0.144-0.743,0.216-1.245,0.216-1.506V637.668z"/>
		<path fill="#8D7167" d="M522.855,633.446h0.117c0.183-0.651,0.515-1.264,0.997-1.837s1.068-1.068,1.76-1.486
			c0.69-0.416,1.459-0.735,2.307-0.957c0.847-0.222,1.727-0.319,2.639-0.294v1.486c-0.782-0.104-1.675-0.026-2.678,0.234
			c-1.004,0.261-1.962,0.834-2.874,1.72c-0.365,0.392-0.684,0.77-0.958,1.134c-0.273,0.365-0.502,0.77-0.684,1.212
			c-0.183,0.443-0.326,0.938-0.431,1.486c-0.104,0.547-0.17,1.199-0.195,1.954v10.986h-1.485v-20.096h1.485V633.446z"/>
		<path fill="#8D7167" d="M532.316,639.232v0.235c0,1.173,0.157,2.293,0.471,3.362c0.313,1.068,0.777,2.007,1.392,2.814
			c0.614,0.809,1.385,1.446,2.312,1.916c0.928,0.469,2.006,0.703,3.234,0.703c2.012,0,3.606-0.527,4.782-1.583
			s1.986-2.521,2.431-4.398h1.486c-0.444,2.346-1.401,4.145-2.874,5.396s-3.421,1.876-5.845,1.876c-1.485,0-2.782-0.268-3.891-0.801
			c-1.107-0.534-2.032-1.265-2.775-2.189s-1.297-2.02-1.661-3.284c-0.365-1.264-0.548-2.626-0.548-4.086
			c0-1.407,0.188-2.756,0.567-4.046c0.377-1.29,0.944-2.424,1.7-3.401s1.701-1.76,2.835-2.346c1.134-0.587,2.469-0.88,4.007-0.88
			c1.407,0,2.652,0.261,3.733,0.782c1.082,0.521,1.987,1.231,2.718,2.131c0.729,0.898,1.283,1.941,1.661,3.127
			c0.378,1.187,0.567,2.457,0.567,3.812c0,0.13-0.007,0.28-0.02,0.449c-0.014,0.17-0.02,0.307-0.02,0.41H532.316z M547.094,637.942
			c-0.052-1.095-0.234-2.131-0.548-3.108c-0.314-0.977-0.778-1.837-1.392-2.58c-0.615-0.742-1.359-1.335-2.235-1.778
			s-1.875-0.665-2.998-0.665c-1.202,0-2.261,0.229-3.176,0.685s-1.686,1.056-2.312,1.798c-0.628,0.743-1.11,1.61-1.45,2.601
			s-0.549,2.007-0.628,3.049H547.094z"/>
		<path fill="#8D7167" d="M563.28,621.169h1.447v12.081h0.078c0.287-0.782,0.691-1.466,1.215-2.053
			c0.522-0.586,1.123-1.081,1.803-1.485c0.679-0.403,1.41-0.704,2.194-0.899c0.783-0.195,1.594-0.293,2.43-0.293
			c1.489,0,2.775,0.261,3.86,0.782c1.083,0.521,1.991,1.238,2.723,2.15c0.732,0.912,1.274,1.974,1.627,3.186s0.529,2.522,0.529,3.93
			c0,2.398-0.327,4.32-0.979,5.767c-0.654,1.446-1.438,2.555-2.352,3.323c-0.915,0.769-1.868,1.277-2.86,1.524
			c-0.994,0.247-1.843,0.371-2.548,0.371c-1.333,0-2.463-0.209-3.391-0.625c-0.927-0.417-1.691-0.905-2.292-1.466
			c-0.602-0.561-1.059-1.114-1.372-1.662c-0.313-0.547-0.509-0.951-0.587-1.212h-0.077v4.496h-1.448V621.169z M572.449,648.263
			c1.332,0,2.456-0.286,3.371-0.859c0.914-0.573,1.659-1.323,2.234-2.248c0.574-0.926,0.992-1.968,1.254-3.128
			c0.262-1.159,0.393-2.312,0.393-3.46c0-1.12-0.15-2.202-0.451-3.245c-0.301-1.042-0.758-1.975-1.372-2.796
			c-0.614-0.82-1.372-1.479-2.273-1.974s-1.953-0.743-3.155-0.743c-1.307,0-2.443,0.222-3.41,0.665
			c-0.968,0.443-1.765,1.056-2.392,1.837c-0.627,0.782-1.098,1.708-1.411,2.776s-0.47,2.229-0.47,3.479
			c0,1.226,0.144,2.424,0.431,3.597s0.738,2.209,1.353,3.108c0.614,0.898,1.404,1.622,2.371,2.17
			C569.887,647.99,571.063,648.263,572.449,648.263z"/>
		<path fill="#8D7167" d="M582.242,628.989H584l7.468,18.336l6.881-18.336h1.681l-8.601,22.246c-0.417,0.99-0.802,1.844-1.153,2.561
			s-0.75,1.244-1.192,1.584c-0.521,0.416-1.141,0.67-1.857,0.762c-0.717,0.091-1.661,0.137-2.834,0.137v-1.29
			c1.068,0,1.902-0.085,2.502-0.254c0.6-0.17,1.159-0.515,1.681-1.036c0.287-0.287,0.587-0.814,0.899-1.583
			c0.312-0.77,0.704-1.818,1.173-3.147L582.242,628.989z"/>
		<path fill="#8D7167" d="M613.167,621.169h2.15l17.633,25.608h0.078v-25.608h1.72v27.915h-2.033l-17.749-25.804h-0.078v25.804
			h-1.721V621.169z"/>
		<path fill="#8D7167" d="M638.461,639.037c0-1.433,0.202-2.782,0.606-4.046c0.403-1.265,0.997-2.379,1.778-3.343
			c0.782-0.964,1.746-1.727,2.894-2.287c1.146-0.561,2.463-0.841,3.948-0.841c1.486,0,2.802,0.28,3.949,0.841
			c1.146,0.561,2.111,1.323,2.893,2.287c0.782,0.964,1.375,2.078,1.779,3.343c0.403,1.264,0.605,2.613,0.605,4.046
			c0,1.434-0.202,2.789-0.605,4.066c-0.404,1.277-0.997,2.392-1.779,3.343c-0.781,0.951-1.746,1.707-2.893,2.268
			c-1.147,0.56-2.463,0.84-3.949,0.84c-1.485,0-2.802-0.28-3.948-0.84c-1.147-0.561-2.111-1.316-2.894-2.268
			c-0.781-0.951-1.375-2.065-1.778-3.343C638.664,641.826,638.461,640.47,638.461,639.037z M639.947,639.037
			c0,1.199,0.17,2.353,0.509,3.46c0.338,1.108,0.834,2.092,1.485,2.952s1.46,1.544,2.424,2.053c0.964,0.508,2.072,0.762,3.323,0.762
			s2.358-0.254,3.323-0.762c0.964-0.509,1.772-1.192,2.424-2.053s1.146-1.844,1.486-2.952c0.338-1.107,0.508-2.261,0.508-3.46
			c0-1.198-0.17-2.352-0.508-3.46c-0.34-1.107-0.835-2.092-1.486-2.951c-0.651-0.86-1.46-1.545-2.424-2.053
			c-0.965-0.509-2.072-0.763-3.323-0.763s-2.359,0.254-3.323,0.763c-0.964,0.508-1.772,1.192-2.424,2.053
			c-0.651,0.859-1.147,1.844-1.485,2.951C640.117,636.685,639.947,637.838,639.947,639.037z"/>
		<path fill="#8D7167" d="M673.726,645.096h-0.078c-0.235,0.601-0.574,1.167-1.017,1.701c-0.443,0.534-0.984,1.011-1.623,1.427
			c-0.639,0.417-1.362,0.743-2.17,0.978s-1.694,0.352-2.658,0.352c-2.138,0-3.792-0.463-4.965-1.388s-1.76-2.352-1.76-4.281
			c0-1.173,0.234-2.13,0.704-2.873c0.469-0.743,1.062-1.329,1.778-1.76c0.717-0.43,1.512-0.735,2.385-0.918s1.714-0.313,2.522-0.392
			l2.307-0.195c1.068-0.078,1.908-0.201,2.521-0.371c0.612-0.17,1.075-0.404,1.388-0.704c0.312-0.299,0.508-0.684,0.587-1.153
			c0.078-0.469,0.117-1.056,0.117-1.759c0-0.548-0.104-1.056-0.313-1.525c-0.209-0.469-0.534-0.886-0.977-1.251
			c-0.444-0.364-1.017-0.651-1.721-0.86c-0.704-0.208-1.563-0.312-2.58-0.312c-1.799,0-3.252,0.443-4.359,1.329
			c-1.108,0.887-1.714,2.229-1.818,4.027h-1.485c0.104-2.215,0.814-3.877,2.131-4.985c1.315-1.107,3.187-1.661,5.61-1.661
			s4.189,0.476,5.297,1.427c1.108,0.952,1.662,2.196,1.662,3.733v11.69c0,0.287,0.006,0.573,0.02,0.859
			c0.013,0.287,0.059,0.548,0.137,0.782s0.208,0.424,0.391,0.567s0.443,0.215,0.782,0.215c0.261,0,0.626-0.039,1.095-0.117v1.251
			c-0.391,0.104-0.795,0.156-1.212,0.156c-0.6,0-1.075-0.078-1.427-0.234c-0.353-0.156-0.62-0.365-0.802-0.626
			c-0.183-0.26-0.307-0.566-0.371-0.919c-0.065-0.352-0.098-0.735-0.098-1.153V645.096z M673.726,637.668
			c-0.365,0.443-0.919,0.743-1.662,0.899c-0.742,0.156-1.57,0.273-2.482,0.352l-2.502,0.234c-0.73,0.078-1.46,0.189-2.189,0.333
			c-0.73,0.144-1.388,0.385-1.975,0.723c-0.586,0.339-1.062,0.802-1.427,1.388c-0.365,0.587-0.548,1.35-0.548,2.287
			c0,1.486,0.47,2.588,1.408,3.304c0.938,0.718,2.229,1.075,3.87,1.075c1.694,0,3.036-0.306,4.027-0.919
			c0.99-0.611,1.745-1.315,2.268-2.11c0.521-0.795,0.853-1.564,0.996-2.307c0.144-0.743,0.216-1.245,0.216-1.506V637.668z"/>
		<path fill="#8D7167" d="M681.427,621.169v12.12h0.078c0.261-0.756,0.632-1.427,1.114-2.014c0.482-0.586,1.042-1.088,1.682-1.505
			c0.638-0.417,1.335-0.729,2.092-0.938c0.755-0.208,1.524-0.312,2.307-0.312c1.173,0,2.17,0.144,2.99,0.43
			c0.821,0.287,1.492,0.665,2.014,1.134c0.521,0.47,0.932,0.997,1.231,1.584c0.3,0.586,0.515,1.18,0.646,1.778
			c0.13,0.601,0.208,1.18,0.234,1.74c0.025,0.561,0.039,1.049,0.039,1.466v12.433h-1.485v-12.706c0-0.495-0.039-1.12-0.118-1.877
			c-0.078-0.756-0.307-1.479-0.684-2.17c-0.378-0.69-0.952-1.283-1.721-1.778s-1.831-0.743-3.186-0.743
			c-1.147,0-2.164,0.209-3.05,0.626c-0.887,0.417-1.643,0.997-2.268,1.739c-0.626,0.743-1.102,1.629-1.427,2.658
			c-0.326,1.03-0.489,2.157-0.489,3.382v10.869h-1.485v-27.915H681.427z"/>
		<path fill="#8D7167" d="M711.375,621.169h2.15l17.633,25.608h0.078v-25.608h1.72v27.915h-2.033l-17.749-25.804h-0.078v25.804
			h-1.721V621.169z"/>
		<path fill="#8D7167" d="M738.155,639.232v0.235c0,1.173,0.157,2.293,0.471,3.362c0.313,1.068,0.777,2.007,1.392,2.814
			c0.614,0.809,1.385,1.446,2.312,1.916c0.928,0.469,2.006,0.703,3.234,0.703c2.012,0,3.606-0.527,4.782-1.583
			s1.986-2.521,2.431-4.398h1.486c-0.444,2.346-1.401,4.145-2.874,5.396s-3.421,1.876-5.845,1.876c-1.485,0-2.782-0.268-3.891-0.801
			c-1.107-0.534-2.032-1.265-2.775-2.189s-1.297-2.02-1.661-3.284c-0.365-1.264-0.548-2.626-0.548-4.086
			c0-1.407,0.188-2.756,0.567-4.046c0.377-1.29,0.944-2.424,1.7-3.401s1.701-1.76,2.835-2.346c1.134-0.587,2.469-0.88,4.007-0.88
			c1.407,0,2.652,0.261,3.733,0.782c1.082,0.521,1.987,1.231,2.718,2.131c0.729,0.898,1.283,1.941,1.661,3.127
			c0.378,1.187,0.567,2.457,0.567,3.812c0,0.13-0.007,0.28-0.02,0.449c-0.014,0.17-0.02,0.307-0.02,0.41H738.155z M752.933,637.942
			c-0.052-1.095-0.234-2.131-0.548-3.108c-0.314-0.977-0.778-1.837-1.392-2.58c-0.615-0.742-1.359-1.335-2.235-1.778
			s-1.875-0.665-2.998-0.665c-1.202,0-2.261,0.229-3.176,0.685s-1.686,1.056-2.312,1.798c-0.628,0.743-1.11,1.61-1.45,2.601
			s-0.549,2.007-0.628,3.049H752.933z"/>
		<path fill="#8D7167" d="M758.603,642.399c0.052,0.938,0.26,1.767,0.625,2.482c0.365,0.718,0.841,1.329,1.427,1.838
			c0.587,0.508,1.271,0.893,2.053,1.153s1.629,0.391,2.541,0.391c0.651,0,1.35-0.059,2.092-0.176
			c0.743-0.117,1.434-0.332,2.072-0.645c0.639-0.313,1.166-0.749,1.583-1.311c0.417-0.56,0.626-1.271,0.626-2.13
			c0-1.121-0.339-1.968-1.017-2.542c-0.678-0.572-1.531-1.017-2.561-1.329c-1.03-0.312-2.138-0.566-3.323-0.763
			c-1.187-0.195-2.294-0.488-3.323-0.879c-1.03-0.392-1.884-0.944-2.561-1.662c-0.679-0.717-1.017-1.766-1.017-3.147
			c0-0.99,0.221-1.817,0.664-2.482c0.443-0.664,1.01-1.192,1.701-1.583c0.69-0.391,1.466-0.671,2.326-0.841
			c0.86-0.169,1.72-0.254,2.58-0.254c1.042,0,2.02,0.117,2.933,0.352c0.912,0.234,1.7,0.613,2.365,1.134
			c0.664,0.521,1.186,1.187,1.563,1.994c0.378,0.809,0.567,1.785,0.567,2.933h-1.486c0-0.912-0.149-1.694-0.449-2.346
			s-0.717-1.18-1.251-1.584c-0.534-0.403-1.167-0.703-1.896-0.899c-0.729-0.195-1.512-0.293-2.346-0.293
			c-0.678,0-1.362,0.065-2.053,0.195c-0.69,0.131-1.31,0.353-1.856,0.665c-0.548,0.312-0.997,0.717-1.349,1.212
			c-0.353,0.495-0.528,1.095-0.528,1.798c0,0.809,0.195,1.461,0.587,1.955c0.391,0.496,0.905,0.894,1.544,1.192
			c0.639,0.3,1.354,0.541,2.15,0.724c0.795,0.183,1.596,0.365,2.404,0.547c0.99,0.183,1.922,0.398,2.795,0.646
			c0.873,0.248,1.629,0.586,2.268,1.017c0.639,0.43,1.141,0.984,1.506,1.661c0.364,0.679,0.547,1.538,0.547,2.581
			c0,1.094-0.248,1.993-0.742,2.697c-0.496,0.704-1.121,1.271-1.877,1.7c-0.756,0.431-1.597,0.729-2.521,0.899
			c-0.926,0.169-1.832,0.254-2.718,0.254c-1.146,0-2.209-0.149-3.186-0.449c-0.978-0.299-1.832-0.756-2.562-1.368
			s-1.304-1.362-1.72-2.248c-0.417-0.886-0.639-1.916-0.665-3.089H758.603z"/>
		<path fill="#8D7167" d="M777.055,625.197v-4.027h1.486v4.027H777.055z M777.055,649.084v-20.096h1.486v20.096H777.055z"/>
		<path fill="#8D7167" d="M783.271,628.989h1.485v4.301h0.078c0.261-0.756,0.632-1.427,1.114-2.014
			c0.482-0.586,1.042-1.088,1.682-1.505c0.638-0.417,1.335-0.729,2.092-0.938c0.755-0.208,1.524-0.312,2.307-0.312
			c1.173,0,2.17,0.144,2.99,0.43c0.821,0.287,1.492,0.665,2.014,1.134c0.521,0.47,0.932,0.997,1.231,1.584
			c0.3,0.586,0.515,1.18,0.646,1.778c0.13,0.601,0.208,1.18,0.234,1.74c0.025,0.561,0.039,1.049,0.039,1.466v12.433h-1.485v-12.706
			c0-0.495-0.039-1.12-0.118-1.877c-0.078-0.756-0.307-1.479-0.684-2.17c-0.378-0.69-0.952-1.283-1.721-1.778
			s-1.831-0.743-3.186-0.743c-1.147,0-2.164,0.209-3.05,0.626c-0.887,0.417-1.643,0.997-2.268,1.739
			c-0.626,0.743-1.102,1.629-1.427,2.658c-0.326,1.03-0.489,2.157-0.489,3.382v10.869h-1.485V628.989z"/>
		<path fill="#8D7167" d="M805.791,645.057h1.994v4.027c0,0.521-0.039,1.036-0.117,1.544c-0.079,0.509-0.216,0.983-0.411,1.428
			c-0.195,0.442-0.456,0.833-0.782,1.173c-0.326,0.338-0.723,0.599-1.192,0.781v-1.29c0.287-0.131,0.515-0.346,0.685-0.645
			c0.169-0.301,0.306-0.626,0.41-0.978c0.104-0.353,0.17-0.711,0.196-1.075c0.025-0.365,0.039-0.679,0.039-0.938h-0.821V645.057z"/>
		<path fill="#8D7167" d="M825.573,621.169h2.463l10.908,25.999h0.078l10.79-25.999h2.464v27.915h-1.721v-25.804h-0.078
			l-10.634,25.804h-1.721l-10.751-25.804h-0.078v25.804h-1.721V621.169z"/>
		<path fill="#8D7167" d="M857.202,621.169h9.148c2.502,0,4.58,0.392,6.236,1.174c1.654,0.781,2.978,1.824,3.968,3.127
			c0.99,1.304,1.688,2.789,2.092,4.457c0.403,1.669,0.606,3.389,0.606,5.161c0,1.98-0.255,3.825-0.763,5.532
			c-0.509,1.707-1.297,3.186-2.365,4.437c-1.069,1.252-2.418,2.235-4.047,2.952s-3.564,1.075-5.806,1.075h-9.07V621.169z
			 M866.428,647.599c1.304,0,2.613-0.202,3.93-0.606c1.315-0.403,2.508-1.081,3.577-2.033c1.068-0.951,1.936-2.229,2.6-3.831
			c0.665-1.603,0.997-3.616,0.997-6.04c0-1.902-0.189-3.532-0.566-4.888c-0.379-1.354-0.874-2.495-1.486-3.421
			c-0.612-0.925-1.316-1.654-2.111-2.189c-0.795-0.533-1.616-0.944-2.463-1.231c-0.847-0.286-1.694-0.475-2.541-0.566
			c-0.848-0.091-1.609-0.137-2.287-0.137h-7.154v24.943H866.428z"/>
	</g>
</g>
</svg>
